<svg xmlns="http://www.w3.org/2000/svg" width="1040" height="560" viewBox="0 0 1040 560">
  <rect width="1040" height="560" fill="#fffdfa"/>
  <line x1="90.0" y1="32" x2="90.0" y2="480" stroke="#d7d1cb" stroke-width="1"/><line x1="156.4" y1="32" x2="156.4" y2="480" stroke="#d7d1cb" stroke-width="1"/><line x1="267.0" y1="32" x2="267.0" y2="480" stroke="#d7d1cb" stroke-width="1"/><line x1="451.3" y1="32" x2="451.3" y2="480" stroke="#d7d1cb" stroke-width="1"/><line x1="635.7" y1="32" x2="635.7" y2="480" stroke="#d7d1cb" stroke-width="1"/><line x1="820.0" y1="32" x2="820.0" y2="480" stroke="#d7d1cb" stroke-width="1"/><line x1="90" y1="480.0" x2="820" y2="480.0" stroke="#d7d1cb" stroke-width="1"/><line x1="90" y1="376.4" x2="820" y2="376.4" stroke="#d7d1cb" stroke-width="1"/><line x1="90" y1="272.8" x2="820" y2="272.8" stroke="#d7d1cb" stroke-width="1"/><line x1="90" y1="169.1" x2="820" y2="169.1" stroke="#d7d1cb" stroke-width="1"/><line x1="90" y1="65.5" x2="820" y2="65.5" stroke="#d7d1cb" stroke-width="1"/>
  <line x1="90" y1="480" x2="820" y2="480" stroke="#3f3a37" stroke-width="2"/>
  <line x1="90" y1="32" x2="90" y2="480" stroke="#3f3a37" stroke-width="2"/>
  <polyline fill="none" stroke="#456eb4" stroke-width="4" stroke-linecap="round" stroke-linejoin="round" points="90.0,475.9 97.4,450.5 104.7,457.1 112.1,454.2 119.5,451.7 126.9,448.2 134.2,445.1 141.6,439.4 149.0,435.6 156.4,433.2 163.7,434.4 171.1,427.1 178.5,420.2 185.9,417.7 193.2,409.7 200.6,411.1 208.0,407.4 215.4,404.8 222.7,395.7 230.1,409.7 237.5,395.7 244.8,392.2 252.2,381.1 259.6,379.8 267.0,402.8 274.3,376.1 281.7,365.0 289.1,364.9 296.5,362.8 303.8,359.9 311.2,354.1 318.6,346.9 326.0,349.4 333.3,345.6 340.7,369.4 348.1,334.8 355.5,368.9 362.8,331.9 370.2,320.6 377.6,307.6 384.9,362.8 392.3,312.5 399.7,310.4 407.1,354.8 414.4,300.0 421.8,296.8 429.2,348.9 436.6,285.1 443.9,293.1 451.3,289.3 458.7,277.4 466.1,286.0 473.4,321.1 480.8,273.8 488.2,265.3 495.6,269.0 502.9,267.8 510.3,253.0 517.7,304.9 525.1,245.5 532.4,222.6 539.8,292.4 547.2,217.7 554.5,224.5 561.9,229.6 569.3,205.0 576.7,204.5 584.0,276.4 591.4,208.4 598.8,195.3 606.2,279.8 613.5,204.7 620.9,182.6 628.3,265.4 635.7,182.1 643.0,180.8 650.4,258.8 657.8,170.7 665.2,180.7 672.5,156.5 679.9,165.0 687.3,169.6 694.6,206.9 702.0,152.2 709.4,150.4 716.8,223.3 724.1,136.1 731.5,125.2 738.9,219.8 746.3,114.4 753.6,129.1 761.0,212.2 768.4,85.1 775.8,107.5 783.1,181.2 790.5,99.5 797.9,95.4 805.3,93.0 812.6,106.6 820.0,95.6"/><circle cx="90.0" cy="475.9" r="4.5" fill="#456eb4" fill-opacity="0.95"/><circle cx="97.4" cy="450.5" r="4.5" fill="#456eb4" fill-opacity="0.95"/><circle cx="104.7" cy="457.1" r="4.5" fill="#456eb4" fill-opacity="0.95"/><circle cx="112.1" cy="454.2" r="4.5" fill="#456eb4" fill-opacity="0.95"/><circle cx="119.5" cy="451.7" r="4.5" fill="#456eb4" fill-opacity="0.95"/><circle cx="126.9" cy="448.2" r="4.5" fill="#456eb4" fill-opacity="0.95"/><circle cx="134.2" cy="445.1" r="4.5" fill="#456eb4" fill-opacity="0.95"/><circle cx="141.6" cy="439.4" r="4.5" fill="#456eb4" fill-opacity="0.95"/><circle cx="149.0" cy="435.6" r="4.5" fill="#456eb4" fill-opacity="0.95"/><circle cx="156.4" cy="433.2" r="4.5" fill="#456eb4" fill-opacity="0.95"/><circle cx="163.7" cy="434.4" r="4.5" fill="#456eb4" fill-opacity="0.95"/><circle cx="171.1" cy="427.1" r="4.5" fill="#456eb4" fill-opacity="0.95"/><circle cx="178.5" cy="420.2" r="4.5" fill="#456eb4" fill-opacity="0.95"/><circle cx="185.9" cy="417.7" r="4.5" fill="#456eb4" fill-opacity="0.95"/><circle cx="193.2" cy="409.7" r="4.5" fill="#456eb4" fill-opacity="0.95"/><circle cx="200.6" cy="411.1" r="4.5" fill="#456eb4" fill-opacity="0.95"/><circle cx="208.0" cy="407.4" r="4.5" fill="#456eb4" fill-opacity="0.95"/><circle cx="215.4" cy="404.8" r="4.5" fill="#456eb4" fill-opacity="0.95"/><circle cx="222.7" cy="395.7" r="4.5" fill="#456eb4" fill-opacity="0.95"/><circle cx="230.1" cy="409.7" r="4.5" fill="#456eb4" fill-opacity="0.95"/><circle cx="237.5" cy="395.7" r="4.5" fill="#456eb4" fill-opacity="0.95"/><circle cx="244.8" cy="392.2" r="4.5" fill="#456eb4" fill-opacity="0.95"/><circle cx="252.2" cy="381.1" r="4.5" fill="#456eb4" fill-opacity="0.95"/><circle cx="259.6" cy="379.8" r="4.5" fill="#456eb4" fill-opacity="0.95"/><circle cx="267.0" cy="402.8" r="4.5" fill="#456eb4" fill-opacity="0.95"/><circle cx="274.3" cy="376.1" r="4.5" fill="#456eb4" fill-opacity="0.95"/><circle cx="281.7" cy="365.0" r="4.5" fill="#456eb4" fill-opacity="0.95"/><circle cx="289.1" cy="364.9" r="4.5" fill="#456eb4" fill-opacity="0.95"/><circle cx="296.5" cy="362.8" r="4.5" fill="#456eb4" fill-opacity="0.95"/><circle cx="303.8" cy="359.9" r="4.5" fill="#456eb4" fill-opacity="0.95"/><circle cx="311.2" cy="354.1" r="4.5" fill="#456eb4" fill-opacity="0.95"/><circle cx="318.6" cy="346.9" r="4.5" fill="#456eb4" fill-opacity="0.95"/><circle cx="326.0" cy="349.4" r="4.5" fill="#456eb4" fill-opacity="0.95"/><circle cx="333.3" cy="345.6" r="4.5" fill="#456eb4" fill-opacity="0.95"/><circle cx="340.7" cy="369.4" r="4.5" fill="#456eb4" fill-opacity="0.95"/><circle cx="348.1" cy="334.8" r="4.5" fill="#456eb4" fill-opacity="0.95"/><circle cx="355.5" cy="368.9" r="4.5" fill="#456eb4" fill-opacity="0.95"/><circle cx="362.8" cy="331.9" r="4.5" fill="#456eb4" fill-opacity="0.95"/><circle cx="370.2" cy="320.6" r="4.5" fill="#456eb4" fill-opacity="0.95"/><circle cx="377.6" cy="307.6" r="4.5" fill="#456eb4" fill-opacity="0.95"/><circle cx="384.9" cy="362.8" r="4.5" fill="#456eb4" fill-opacity="0.95"/><circle cx="392.3" cy="312.5" r="4.5" fill="#456eb4" fill-opacity="0.95"/><circle cx="399.7" cy="310.4" r="4.5" fill="#456eb4" fill-opacity="0.95"/><circle cx="407.1" cy="354.8" r="4.5" fill="#456eb4" fill-opacity="0.95"/><circle cx="414.4" cy="300.0" r="4.5" fill="#456eb4" fill-opacity="0.95"/><circle cx="421.8" cy="296.8" r="4.5" fill="#456eb4" fill-opacity="0.95"/><circle cx="429.2" cy="348.9" r="4.5" fill="#456eb4" fill-opacity="0.95"/><circle cx="436.6" cy="285.1" r="4.5" fill="#456eb4" fill-opacity="0.95"/><circle cx="443.9" cy="293.1" r="4.5" fill="#456eb4" fill-opacity="0.95"/><circle cx="451.3" cy="289.3" r="4.5" fill="#456eb4" fill-opacity="0.95"/><circle cx="458.7" cy="277.4" r="4.5" fill="#456eb4" fill-opacity="0.95"/><circle cx="466.1" cy="286.0" r="4.5" fill="#456eb4" fill-opacity="0.95"/><circle cx="473.4" cy="321.1" r="4.5" fill="#456eb4" fill-opacity="0.95"/><circle cx="480.8" cy="273.8" r="4.5" fill="#456eb4" fill-opacity="0.95"/><circle cx="488.2" cy="265.3" r="4.5" fill="#456eb4" fill-opacity="0.95"/><circle cx="495.6" cy="269.0" r="4.5" fill="#456eb4" fill-opacity="0.95"/><circle cx="502.9" cy="267.8" r="4.5" fill="#456eb4" fill-opacity="0.95"/><circle cx="510.3" cy="253.0" r="4.5" fill="#456eb4" fill-opacity="0.95"/><circle cx="517.7" cy="304.9" r="4.5" fill="#456eb4" fill-opacity="0.95"/><circle cx="525.1" cy="245.5" r="4.5" fill="#456eb4" fill-opacity="0.95"/><circle cx="532.4" cy="222.6" r="4.5" fill="#456eb4" fill-opacity="0.95"/><circle cx="539.8" cy="292.4" r="4.5" fill="#456eb4" fill-opacity="0.95"/><circle cx="547.2" cy="217.7" r="4.5" fill="#456eb4" fill-opacity="0.95"/><circle cx="554.5" cy="224.5" r="4.5" fill="#456eb4" fill-opacity="0.95"/><circle cx="561.9" cy="229.6" r="4.5" fill="#456eb4" fill-opacity="0.95"/><circle cx="569.3" cy="205.0" r="4.5" fill="#456eb4" fill-opacity="0.95"/><circle cx="576.7" cy="204.5" r="4.5" fill="#456eb4" fill-opacity="0.95"/><circle cx="584.0" cy="276.4" r="4.5" fill="#456eb4" fill-opacity="0.95"/><circle cx="591.4" cy="208.4" r="4.5" fill="#456eb4" fill-opacity="0.95"/><circle cx="598.8" cy="195.3" r="4.5" fill="#456eb4" fill-opacity="0.95"/><circle cx="606.2" cy="279.8" r="4.5" fill="#456eb4" fill-opacity="0.95"/><circle cx="613.5" cy="204.7" r="4.5" fill="#456eb4" fill-opacity="0.95"/><circle cx="620.9" cy="182.6" r="4.5" fill="#456eb4" fill-opacity="0.95"/><circle cx="628.3" cy="265.4" r="4.5" fill="#456eb4" fill-opacity="0.95"/><circle cx="635.7" cy="182.1" r="4.5" fill="#456eb4" fill-opacity="0.95"/><circle cx="643.0" cy="180.8" r="4.5" fill="#456eb4" fill-opacity="0.95"/><circle cx="650.4" cy="258.8" r="4.5" fill="#456eb4" fill-opacity="0.95"/><circle cx="657.8" cy="170.7" r="4.5" fill="#456eb4" fill-opacity="0.95"/><circle cx="665.2" cy="180.7" r="4.5" fill="#456eb4" fill-opacity="0.95"/><circle cx="672.5" cy="156.5" r="4.5" fill="#456eb4" fill-opacity="0.95"/><circle cx="679.9" cy="165.0" r="4.5" fill="#456eb4" fill-opacity="0.95"/><circle cx="687.3" cy="169.6" r="4.5" fill="#456eb4" fill-opacity="0.95"/><circle cx="694.6" cy="206.9" r="4.5" fill="#456eb4" fill-opacity="0.95"/><circle cx="702.0" cy="152.2" r="4.5" fill="#456eb4" fill-opacity="0.95"/><circle cx="709.4" cy="150.4" r="4.5" fill="#456eb4" fill-opacity="0.95"/><circle cx="716.8" cy="223.3" r="4.5" fill="#456eb4" fill-opacity="0.95"/><circle cx="724.1" cy="136.1" r="4.5" fill="#456eb4" fill-opacity="0.95"/><circle cx="731.5" cy="125.2" r="4.5" fill="#456eb4" fill-opacity="0.95"/><circle cx="738.9" cy="219.8" r="4.5" fill="#456eb4" fill-opacity="0.95"/><circle cx="746.3" cy="114.4" r="4.5" fill="#456eb4" fill-opacity="0.95"/><circle cx="753.6" cy="129.1" r="4.5" fill="#456eb4" fill-opacity="0.95"/><circle cx="761.0" cy="212.2" r="4.5" fill="#456eb4" fill-opacity="0.95"/><circle cx="768.4" cy="85.1" r="4.5" fill="#456eb4" fill-opacity="0.95"/><circle cx="775.8" cy="107.5" r="4.5" fill="#456eb4" fill-opacity="0.95"/><circle cx="783.1" cy="181.2" r="4.5" fill="#456eb4" fill-opacity="0.95"/><circle cx="790.5" cy="99.5" r="4.5" fill="#456eb4" fill-opacity="0.95"/><circle cx="797.9" cy="95.4" r="4.5" fill="#456eb4" fill-opacity="0.95"/><circle cx="805.3" cy="93.0" r="4.5" fill="#456eb4" fill-opacity="0.95"/><circle cx="812.6" cy="106.6" r="4.5" fill="#456eb4" fill-opacity="0.95"/><circle cx="820.0" cy="95.6" r="4.5" fill="#456eb4" fill-opacity="0.95"/><polyline fill="none" stroke="#22192e" stroke-width="4" stroke-linecap="round" stroke-linejoin="round" points="90.0,476.2 97.4,457.6 104.7,453.5 112.1,451.1 119.5,446.0 126.9,441.8 134.2,440.0 141.6,435.1 149.0,430.9 156.4,428.9 163.7,423.7 171.1,421.7 178.5,416.3 185.9,413.2 193.2,409.2 200.6,394.9 208.0,401.6 215.4,398.6 222.7,388.9 230.1,383.5 237.5,387.2 244.8,377.9 252.2,380.2 259.6,376.7 267.0,359.3 274.3,359.9 281.7,334.1 289.1,320.2 296.5,335.3 303.8,347.6 311.2,339.1 318.6,334.9 326.0,327.3 333.3,324.8 340.7,320.2 348.1,326.6 355.5,301.2 362.8,304.7 370.2,297.7 377.6,296.7 384.9,283.5 392.3,284.3 399.7,300.1 407.1,280.5 414.4,272.9 421.8,262.3 429.2,239.0 436.6,241.3 443.9,238.2 451.3,223.1 458.7,218.1 466.1,212.5 473.4,202.1 480.8,201.4 488.2,192.2 495.6,182.2 502.9,180.8 510.3,169.8 517.7,225.4 525.1,210.0 532.4,221.3 539.8,218.7 547.2,208.1 554.5,197.0 561.9,199.9 569.3,177.1 576.7,187.0 584.0,196.6 591.4,199.0 598.8,193.5 606.2,178.5 613.5,174.7 620.9,178.7 628.3,166.3 635.7,165.4 643.0,160.1 650.4,152.5 657.8,160.0 665.2,156.3 672.5,148.6 679.9,146.0 687.3,138.0 694.6,137.8 702.0,120.2 709.4,124.5 716.8,135.8 724.1,185.5 731.5,118.7 738.9,111.5 746.3,106.8 753.6,99.9 761.0,104.2 768.4,84.9 775.8,96.3 783.1,86.7 790.5,81.5 797.9,65.2 805.3,72.2 812.6,65.4 820.0,69.0"/><circle cx="90.0" cy="476.2" r="4.5" fill="#22192e" fill-opacity="0.95"/><circle cx="97.4" cy="457.6" r="4.5" fill="#22192e" fill-opacity="0.95"/><circle cx="104.7" cy="453.5" r="4.5" fill="#22192e" fill-opacity="0.95"/><circle cx="112.1" cy="451.1" r="4.5" fill="#22192e" fill-opacity="0.95"/><circle cx="119.5" cy="446.0" r="4.5" fill="#22192e" fill-opacity="0.95"/><circle cx="126.9" cy="441.8" r="4.5" fill="#22192e" fill-opacity="0.95"/><circle cx="134.2" cy="440.0" r="4.5" fill="#22192e" fill-opacity="0.95"/><circle cx="141.6" cy="435.1" r="4.5" fill="#22192e" fill-opacity="0.95"/><circle cx="149.0" cy="430.9" r="4.5" fill="#22192e" fill-opacity="0.95"/><circle cx="156.4" cy="428.9" r="4.5" fill="#22192e" fill-opacity="0.95"/><circle cx="163.7" cy="423.7" r="4.5" fill="#22192e" fill-opacity="0.95"/><circle cx="171.1" cy="421.7" r="4.5" fill="#22192e" fill-opacity="0.95"/><circle cx="178.5" cy="416.3" r="4.5" fill="#22192e" fill-opacity="0.95"/><circle cx="185.9" cy="413.2" r="4.5" fill="#22192e" fill-opacity="0.95"/><circle cx="193.2" cy="409.2" r="4.5" fill="#22192e" fill-opacity="0.95"/><circle cx="200.6" cy="394.9" r="4.5" fill="#22192e" fill-opacity="0.95"/><circle cx="208.0" cy="401.6" r="4.5" fill="#22192e" fill-opacity="0.95"/><circle cx="215.4" cy="398.6" r="4.5" fill="#22192e" fill-opacity="0.95"/><circle cx="222.7" cy="388.9" r="4.5" fill="#22192e" fill-opacity="0.95"/><circle cx="230.1" cy="383.5" r="4.5" fill="#22192e" fill-opacity="0.95"/><circle cx="237.5" cy="387.2" r="4.5" fill="#22192e" fill-opacity="0.95"/><circle cx="244.8" cy="377.9" r="4.5" fill="#22192e" fill-opacity="0.95"/><circle cx="252.2" cy="380.2" r="4.5" fill="#22192e" fill-opacity="0.95"/><circle cx="259.6" cy="376.7" r="4.5" fill="#22192e" fill-opacity="0.95"/><circle cx="267.0" cy="359.3" r="4.5" fill="#22192e" fill-opacity="0.95"/><circle cx="274.3" cy="359.9" r="4.5" fill="#22192e" fill-opacity="0.95"/><circle cx="281.7" cy="334.1" r="4.5" fill="#22192e" fill-opacity="0.95"/><circle cx="289.1" cy="320.2" r="4.5" fill="#22192e" fill-opacity="0.95"/><circle cx="296.5" cy="335.3" r="4.5" fill="#22192e" fill-opacity="0.95"/><circle cx="303.8" cy="347.6" r="4.5" fill="#22192e" fill-opacity="0.95"/><circle cx="311.2" cy="339.1" r="4.5" fill="#22192e" fill-opacity="0.95"/><circle cx="318.6" cy="334.9" r="4.5" fill="#22192e" fill-opacity="0.95"/><circle cx="326.0" cy="327.3" r="4.5" fill="#22192e" fill-opacity="0.95"/><circle cx="333.3" cy="324.8" r="4.5" fill="#22192e" fill-opacity="0.95"/><circle cx="340.7" cy="320.2" r="4.5" fill="#22192e" fill-opacity="0.95"/><circle cx="348.1" cy="326.6" r="4.5" fill="#22192e" fill-opacity="0.95"/><circle cx="355.5" cy="301.2" r="4.5" fill="#22192e" fill-opacity="0.95"/><circle cx="362.8" cy="304.7" r="4.5" fill="#22192e" fill-opacity="0.95"/><circle cx="370.2" cy="297.7" r="4.5" fill="#22192e" fill-opacity="0.95"/><circle cx="377.6" cy="296.7" r="4.5" fill="#22192e" fill-opacity="0.95"/><circle cx="384.9" cy="283.5" r="4.5" fill="#22192e" fill-opacity="0.95"/><circle cx="392.3" cy="284.3" r="4.5" fill="#22192e" fill-opacity="0.95"/><circle cx="399.7" cy="300.1" r="4.5" fill="#22192e" fill-opacity="0.95"/><circle cx="407.1" cy="280.5" r="4.5" fill="#22192e" fill-opacity="0.95"/><circle cx="414.4" cy="272.9" r="4.5" fill="#22192e" fill-opacity="0.95"/><circle cx="421.8" cy="262.3" r="4.5" fill="#22192e" fill-opacity="0.95"/><circle cx="429.2" cy="239.0" r="4.5" fill="#22192e" fill-opacity="0.95"/><circle cx="436.6" cy="241.3" r="4.5" fill="#22192e" fill-opacity="0.95"/><circle cx="443.9" cy="238.2" r="4.5" fill="#22192e" fill-opacity="0.95"/><circle cx="451.3" cy="223.1" r="4.5" fill="#22192e" fill-opacity="0.95"/><circle cx="458.7" cy="218.1" r="4.5" fill="#22192e" fill-opacity="0.95"/><circle cx="466.1" cy="212.5" r="4.5" fill="#22192e" fill-opacity="0.95"/><circle cx="473.4" cy="202.1" r="4.5" fill="#22192e" fill-opacity="0.95"/><circle cx="480.8" cy="201.4" r="4.5" fill="#22192e" fill-opacity="0.95"/><circle cx="488.2" cy="192.2" r="4.5" fill="#22192e" fill-opacity="0.95"/><circle cx="495.6" cy="182.2" r="4.5" fill="#22192e" fill-opacity="0.95"/><circle cx="502.9" cy="180.8" r="4.5" fill="#22192e" fill-opacity="0.95"/><circle cx="510.3" cy="169.8" r="4.5" fill="#22192e" fill-opacity="0.95"/><circle cx="517.7" cy="225.4" r="4.5" fill="#22192e" fill-opacity="0.95"/><circle cx="525.1" cy="210.0" r="4.5" fill="#22192e" fill-opacity="0.95"/><circle cx="532.4" cy="221.3" r="4.5" fill="#22192e" fill-opacity="0.95"/><circle cx="539.8" cy="218.7" r="4.5" fill="#22192e" fill-opacity="0.95"/><circle cx="547.2" cy="208.1" r="4.5" fill="#22192e" fill-opacity="0.95"/><circle cx="554.5" cy="197.0" r="4.5" fill="#22192e" fill-opacity="0.95"/><circle cx="561.9" cy="199.9" r="4.5" fill="#22192e" fill-opacity="0.95"/><circle cx="569.3" cy="177.1" r="4.5" fill="#22192e" fill-opacity="0.95"/><circle cx="576.7" cy="187.0" r="4.5" fill="#22192e" fill-opacity="0.95"/><circle cx="584.0" cy="196.6" r="4.5" fill="#22192e" fill-opacity="0.95"/><circle cx="591.4" cy="199.0" r="4.5" fill="#22192e" fill-opacity="0.95"/><circle cx="598.8" cy="193.5" r="4.5" fill="#22192e" fill-opacity="0.95"/><circle cx="606.2" cy="178.5" r="4.5" fill="#22192e" fill-opacity="0.95"/><circle cx="613.5" cy="174.7" r="4.5" fill="#22192e" fill-opacity="0.95"/><circle cx="620.9" cy="178.7" r="4.5" fill="#22192e" fill-opacity="0.95"/><circle cx="628.3" cy="166.3" r="4.5" fill="#22192e" fill-opacity="0.95"/><circle cx="635.7" cy="165.4" r="4.5" fill="#22192e" fill-opacity="0.95"/><circle cx="643.0" cy="160.1" r="4.5" fill="#22192e" fill-opacity="0.95"/><circle cx="650.4" cy="152.5" r="4.5" fill="#22192e" fill-opacity="0.95"/><circle cx="657.8" cy="160.0" r="4.5" fill="#22192e" fill-opacity="0.95"/><circle cx="665.2" cy="156.3" r="4.5" fill="#22192e" fill-opacity="0.95"/><circle cx="672.5" cy="148.6" r="4.5" fill="#22192e" fill-opacity="0.95"/><circle cx="679.9" cy="146.0" r="4.5" fill="#22192e" fill-opacity="0.95"/><circle cx="687.3" cy="138.0" r="4.5" fill="#22192e" fill-opacity="0.95"/><circle cx="694.6" cy="137.8" r="4.5" fill="#22192e" fill-opacity="0.95"/><circle cx="702.0" cy="120.2" r="4.5" fill="#22192e" fill-opacity="0.95"/><circle cx="709.4" cy="124.5" r="4.5" fill="#22192e" fill-opacity="0.95"/><circle cx="716.8" cy="135.8" r="4.5" fill="#22192e" fill-opacity="0.95"/><circle cx="724.1" cy="185.5" r="4.5" fill="#22192e" fill-opacity="0.95"/><circle cx="731.5" cy="118.7" r="4.5" fill="#22192e" fill-opacity="0.95"/><circle cx="738.9" cy="111.5" r="4.5" fill="#22192e" fill-opacity="0.95"/><circle cx="746.3" cy="106.8" r="4.5" fill="#22192e" fill-opacity="0.95"/><circle cx="753.6" cy="99.9" r="4.5" fill="#22192e" fill-opacity="0.95"/><circle cx="761.0" cy="104.2" r="4.5" fill="#22192e" fill-opacity="0.95"/><circle cx="768.4" cy="84.9" r="4.5" fill="#22192e" fill-opacity="0.95"/><circle cx="775.8" cy="96.3" r="4.5" fill="#22192e" fill-opacity="0.95"/><circle cx="783.1" cy="86.7" r="4.5" fill="#22192e" fill-opacity="0.95"/><circle cx="790.5" cy="81.5" r="4.5" fill="#22192e" fill-opacity="0.95"/><circle cx="797.9" cy="65.2" r="4.5" fill="#22192e" fill-opacity="0.95"/><circle cx="805.3" cy="72.2" r="4.5" fill="#22192e" fill-opacity="0.95"/><circle cx="812.6" cy="65.4" r="4.5" fill="#22192e" fill-opacity="0.95"/><circle cx="820.0" cy="69.0" r="4.5" fill="#22192e" fill-opacity="0.95"/>
  <rect x="830" y="38" width="180" height="88" rx="14" fill="#fffdfa" stroke="#d7d1cb" stroke-width="1.2"/><line x1="846" y1="62" x2="880" y2="62" stroke="#456eb4" stroke-width="4" stroke-linecap="round"/><circle cx="863" cy="62" r="4.5" fill="#456eb4"/><text x="894" y="69" font-size="21" font-family="Helvetica, Arial, sans-serif" fill="#2e2a28">30B-A3B MoE</text><line x1="846" y1="96" x2="880" y2="96" stroke="#22192e" stroke-width="4" stroke-linecap="round"/><circle cx="863" cy="96" r="4.5" fill="#22192e"/><text x="894" y="103" font-size="21" font-family="Helvetica, Arial, sans-serif" fill="#2e2a28">32B Dense</text>
  <text x="90.0" y="512" text-anchor="middle" font-size="18" font-family="Helvetica, Arial, sans-serif" fill="#6f6762">1</text><text x="156.4" y="512" text-anchor="middle" font-size="18" font-family="Helvetica, Arial, sans-serif" fill="#6f6762">10</text><text x="267.0" y="512" text-anchor="middle" font-size="18" font-family="Helvetica, Arial, sans-serif" fill="#6f6762">25</text><text x="451.3" y="512" text-anchor="middle" font-size="18" font-family="Helvetica, Arial, sans-serif" fill="#6f6762">50</text><text x="635.7" y="512" text-anchor="middle" font-size="18" font-family="Helvetica, Arial, sans-serif" fill="#6f6762">75</text><text x="820.0" y="512" text-anchor="middle" font-size="18" font-family="Helvetica, Arial, sans-serif" fill="#6f6762">100</text>
  <text x="76" y="486.0" text-anchor="end" font-size="18" font-family="Helvetica, Arial, sans-serif" fill="#6f6762">0.00</text><text x="76" y="382.4" text-anchor="end" font-size="18" font-family="Helvetica, Arial, sans-serif" fill="#6f6762">2.0</text><text x="76" y="278.8" text-anchor="end" font-size="18" font-family="Helvetica, Arial, sans-serif" fill="#6f6762">4.0</text><text x="76" y="175.1" text-anchor="end" font-size="18" font-family="Helvetica, Arial, sans-serif" fill="#6f6762">6.0</text><text x="76" y="71.5" text-anchor="end" font-size="18" font-family="Helvetica, Arial, sans-serif" fill="#6f6762">8.0</text>
  <text x="455.0" y="538" text-anchor="middle" font-size="20" font-family="Helvetica, Arial, sans-serif" fill="#2e2a28">Context Size</text>
  <g transform="translate(24 256.0) rotate(-90)">
    <text text-anchor="middle" font-size="20" font-family="Helvetica, Arial, sans-serif" fill="#2e2a28">TTFT (seconds)</text>
  </g>
</svg>
