<svg xmlns="http://www.w3.org/2000/svg" width="1040" height="640" viewBox="0 0 1040 640">
  <rect width="1040" height="640" fill="#fffdfa"/>
  <text x="90" y="38" font-size="28" font-weight="700" font-family="Helvetica, Arial, sans-serif" fill="#2e2a28">Dense Scale on 1x H100</text>
  <text x="90" y="62" font-size="16" font-family="Helvetica, Arial, sans-serif" fill="#6f6762">Local TTFT across context sizes 1..100 for Qwen3-VL dense models.</text>
  <line x1="90.0" y1="70" x2="90.0" y2="560" stroke="#d7d1cb" stroke-width="1"/><line x1="156.4" y1="70" x2="156.4" y2="560" stroke="#d7d1cb" stroke-width="1"/><line x1="267.0" y1="70" x2="267.0" y2="560" stroke="#d7d1cb" stroke-width="1"/><line x1="451.3" y1="70" x2="451.3" y2="560" stroke="#d7d1cb" stroke-width="1"/><line x1="635.7" y1="70" x2="635.7" y2="560" stroke="#d7d1cb" stroke-width="1"/><line x1="820.0" y1="70" x2="820.0" y2="560" stroke="#d7d1cb" stroke-width="1"/><line x1="90" y1="560.0" x2="820" y2="560.0" stroke="#d7d1cb" stroke-width="1"/><line x1="90" y1="473.7" x2="820" y2="473.7" stroke="#d7d1cb" stroke-width="1"/><line x1="90" y1="387.4" x2="820" y2="387.4" stroke="#d7d1cb" stroke-width="1"/><line x1="90" y1="301.2" x2="820" y2="301.2" stroke="#d7d1cb" stroke-width="1"/><line x1="90" y1="214.9" x2="820" y2="214.9" stroke="#d7d1cb" stroke-width="1"/><line x1="90" y1="128.6" x2="820" y2="128.6" stroke="#d7d1cb" stroke-width="1"/><line x1="90" y1="42.3" x2="820" y2="42.3" stroke="#d7d1cb" stroke-width="1"/>
  <line x1="90" y1="560" x2="820" y2="560" stroke="#3f3a37" stroke-width="2"/>
  <line x1="90" y1="70" x2="90" y2="560" stroke="#3f3a37" stroke-width="2"/>
  <polyline fill="none" stroke="#79d1b0" stroke-width="4" stroke-linecap="round" stroke-linejoin="round" points="90.0,552.2 97.4,488.5 104.7,482.6 112.1,483.5 119.5,484.7 126.9,478.3 134.2,476.6 141.6,477.1 149.0,481.2 156.4,471.7 163.7,468.1 171.1,464.8 178.5,466.9 185.9,462.7 193.2,460.9 200.6,458.7 208.0,456.3 215.4,456.4 222.7,453.6 230.1,454.2 237.5,450.3 244.8,450.1 252.2,442.1 259.6,448.3 267.0,441.8 274.3,434.9 281.7,435.6 289.1,430.8 296.5,436.9 303.8,433.6 311.2,423.4 318.6,425.3 326.0,421.5 333.3,423.0 340.7,417.7 348.1,408.7 355.5,339.8 362.8,406.7 370.2,408.7 377.6,406.6 384.9,409.1 392.3,404.0 399.7,395.7 407.1,396.5 414.4,392.5 421.8,390.8 429.2,391.4 436.6,389.8 443.9,383.7 451.3,394.5 458.7,382.2 466.1,371.1 473.4,375.1 480.8,368.0 488.2,367.5 495.6,363.4 502.9,367.5 510.3,363.9 517.7,289.9 525.1,354.4 532.4,357.5 539.8,350.7 547.2,349.5 554.5,356.0 561.9,345.4 569.3,346.3 576.7,337.9 584.0,342.1 591.4,337.2 598.8,339.5 606.2,337.1 613.5,330.9 620.9,320.6 628.3,323.6 635.7,320.5 643.0,318.6 650.4,312.6 657.8,319.8 665.2,312.4 672.5,301.1 679.9,304.7 687.3,303.5 694.6,305.3 702.0,297.9 709.4,295.7 716.8,293.2 724.1,289.3 731.5,289.4 738.9,287.2 746.3,285.8 753.6,270.5 761.0,271.2 768.4,267.2 775.8,269.2 783.1,262.9 790.5,265.7 797.9,257.5 805.3,263.9 812.6,259.2 820.0,262.1"/><circle cx="90.0" cy="552.2" r="4.5" fill="#79d1b0" fill-opacity="0.95"/><circle cx="97.4" cy="488.5" r="4.5" fill="#79d1b0" fill-opacity="0.95"/><circle cx="104.7" cy="482.6" r="4.5" fill="#79d1b0" fill-opacity="0.95"/><circle cx="112.1" cy="483.5" r="4.5" fill="#79d1b0" fill-opacity="0.95"/><circle cx="119.5" cy="484.7" r="4.5" fill="#79d1b0" fill-opacity="0.95"/><circle cx="126.9" cy="478.3" r="4.5" fill="#79d1b0" fill-opacity="0.95"/><circle cx="134.2" cy="476.6" r="4.5" fill="#79d1b0" fill-opacity="0.95"/><circle cx="141.6" cy="477.1" r="4.5" fill="#79d1b0" fill-opacity="0.95"/><circle cx="149.0" cy="481.2" r="4.5" fill="#79d1b0" fill-opacity="0.95"/><circle cx="156.4" cy="471.7" r="4.5" fill="#79d1b0" fill-opacity="0.95"/><circle cx="163.7" cy="468.1" r="4.5" fill="#79d1b0" fill-opacity="0.95"/><circle cx="171.1" cy="464.8" r="4.5" fill="#79d1b0" fill-opacity="0.95"/><circle cx="178.5" cy="466.9" r="4.5" fill="#79d1b0" fill-opacity="0.95"/><circle cx="185.9" cy="462.7" r="4.5" fill="#79d1b0" fill-opacity="0.95"/><circle cx="193.2" cy="460.9" r="4.5" fill="#79d1b0" fill-opacity="0.95"/><circle cx="200.6" cy="458.7" r="4.5" fill="#79d1b0" fill-opacity="0.95"/><circle cx="208.0" cy="456.3" r="4.5" fill="#79d1b0" fill-opacity="0.95"/><circle cx="215.4" cy="456.4" r="4.5" fill="#79d1b0" fill-opacity="0.95"/><circle cx="222.7" cy="453.6" r="4.5" fill="#79d1b0" fill-opacity="0.95"/><circle cx="230.1" cy="454.2" r="4.5" fill="#79d1b0" fill-opacity="0.95"/><circle cx="237.5" cy="450.3" r="4.5" fill="#79d1b0" fill-opacity="0.95"/><circle cx="244.8" cy="450.1" r="4.5" fill="#79d1b0" fill-opacity="0.95"/><circle cx="252.2" cy="442.1" r="4.5" fill="#79d1b0" fill-opacity="0.95"/><circle cx="259.6" cy="448.3" r="4.5" fill="#79d1b0" fill-opacity="0.95"/><circle cx="267.0" cy="441.8" r="4.5" fill="#79d1b0" fill-opacity="0.95"/><circle cx="274.3" cy="434.9" r="4.5" fill="#79d1b0" fill-opacity="0.95"/><circle cx="281.7" cy="435.6" r="4.5" fill="#79d1b0" fill-opacity="0.95"/><circle cx="289.1" cy="430.8" r="4.5" fill="#79d1b0" fill-opacity="0.95"/><circle cx="296.5" cy="436.9" r="4.5" fill="#79d1b0" fill-opacity="0.95"/><circle cx="303.8" cy="433.6" r="4.5" fill="#79d1b0" fill-opacity="0.95"/><circle cx="311.2" cy="423.4" r="4.5" fill="#79d1b0" fill-opacity="0.95"/><circle cx="318.6" cy="425.3" r="4.5" fill="#79d1b0" fill-opacity="0.95"/><circle cx="326.0" cy="421.5" r="4.5" fill="#79d1b0" fill-opacity="0.95"/><circle cx="333.3" cy="423.0" r="4.5" fill="#79d1b0" fill-opacity="0.95"/><circle cx="340.7" cy="417.7" r="4.5" fill="#79d1b0" fill-opacity="0.95"/><circle cx="348.1" cy="408.7" r="4.5" fill="#79d1b0" fill-opacity="0.95"/><circle cx="355.5" cy="339.8" r="4.5" fill="#79d1b0" fill-opacity="0.95"/><circle cx="362.8" cy="406.7" r="4.5" fill="#79d1b0" fill-opacity="0.95"/><circle cx="370.2" cy="408.7" r="4.5" fill="#79d1b0" fill-opacity="0.95"/><circle cx="377.6" cy="406.6" r="4.5" fill="#79d1b0" fill-opacity="0.95"/><circle cx="384.9" cy="409.1" r="4.5" fill="#79d1b0" fill-opacity="0.95"/><circle cx="392.3" cy="404.0" r="4.5" fill="#79d1b0" fill-opacity="0.95"/><circle cx="399.7" cy="395.7" r="4.5" fill="#79d1b0" fill-opacity="0.95"/><circle cx="407.1" cy="396.5" r="4.5" fill="#79d1b0" fill-opacity="0.95"/><circle cx="414.4" cy="392.5" r="4.5" fill="#79d1b0" fill-opacity="0.95"/><circle cx="421.8" cy="390.8" r="4.5" fill="#79d1b0" fill-opacity="0.95"/><circle cx="429.2" cy="391.4" r="4.5" fill="#79d1b0" fill-opacity="0.95"/><circle cx="436.6" cy="389.8" r="4.5" fill="#79d1b0" fill-opacity="0.95"/><circle cx="443.9" cy="383.7" r="4.5" fill="#79d1b0" fill-opacity="0.95"/><circle cx="451.3" cy="394.5" r="4.5" fill="#79d1b0" fill-opacity="0.95"/><circle cx="458.7" cy="382.2" r="4.5" fill="#79d1b0" fill-opacity="0.95"/><circle cx="466.1" cy="371.1" r="4.5" fill="#79d1b0" fill-opacity="0.95"/><circle cx="473.4" cy="375.1" r="4.5" fill="#79d1b0" fill-opacity="0.95"/><circle cx="480.8" cy="368.0" r="4.5" fill="#79d1b0" fill-opacity="0.95"/><circle cx="488.2" cy="367.5" r="4.5" fill="#79d1b0" fill-opacity="0.95"/><circle cx="495.6" cy="363.4" r="4.5" fill="#79d1b0" fill-opacity="0.95"/><circle cx="502.9" cy="367.5" r="4.5" fill="#79d1b0" fill-opacity="0.95"/><circle cx="510.3" cy="363.9" r="4.5" fill="#79d1b0" fill-opacity="0.95"/><circle cx="517.7" cy="289.9" r="4.5" fill="#79d1b0" fill-opacity="0.95"/><circle cx="525.1" cy="354.4" r="4.5" fill="#79d1b0" fill-opacity="0.95"/><circle cx="532.4" cy="357.5" r="4.5" fill="#79d1b0" fill-opacity="0.95"/><circle cx="539.8" cy="350.7" r="4.5" fill="#79d1b0" fill-opacity="0.95"/><circle cx="547.2" cy="349.5" r="4.5" fill="#79d1b0" fill-opacity="0.95"/><circle cx="554.5" cy="356.0" r="4.5" fill="#79d1b0" fill-opacity="0.95"/><circle cx="561.9" cy="345.4" r="4.5" fill="#79d1b0" fill-opacity="0.95"/><circle cx="569.3" cy="346.3" r="4.5" fill="#79d1b0" fill-opacity="0.95"/><circle cx="576.7" cy="337.9" r="4.5" fill="#79d1b0" fill-opacity="0.95"/><circle cx="584.0" cy="342.1" r="4.5" fill="#79d1b0" fill-opacity="0.95"/><circle cx="591.4" cy="337.2" r="4.5" fill="#79d1b0" fill-opacity="0.95"/><circle cx="598.8" cy="339.5" r="4.5" fill="#79d1b0" fill-opacity="0.95"/><circle cx="606.2" cy="337.1" r="4.5" fill="#79d1b0" fill-opacity="0.95"/><circle cx="613.5" cy="330.9" r="4.5" fill="#79d1b0" fill-opacity="0.95"/><circle cx="620.9" cy="320.6" r="4.5" fill="#79d1b0" fill-opacity="0.95"/><circle cx="628.3" cy="323.6" r="4.5" fill="#79d1b0" fill-opacity="0.95"/><circle cx="635.7" cy="320.5" r="4.5" fill="#79d1b0" fill-opacity="0.95"/><circle cx="643.0" cy="318.6" r="4.5" fill="#79d1b0" fill-opacity="0.95"/><circle cx="650.4" cy="312.6" r="4.5" fill="#79d1b0" fill-opacity="0.95"/><circle cx="657.8" cy="319.8" r="4.5" fill="#79d1b0" fill-opacity="0.95"/><circle cx="665.2" cy="312.4" r="4.5" fill="#79d1b0" fill-opacity="0.95"/><circle cx="672.5" cy="301.1" r="4.5" fill="#79d1b0" fill-opacity="0.95"/><circle cx="679.9" cy="304.7" r="4.5" fill="#79d1b0" fill-opacity="0.95"/><circle cx="687.3" cy="303.5" r="4.5" fill="#79d1b0" fill-opacity="0.95"/><circle cx="694.6" cy="305.3" r="4.5" fill="#79d1b0" fill-opacity="0.95"/><circle cx="702.0" cy="297.9" r="4.5" fill="#79d1b0" fill-opacity="0.95"/><circle cx="709.4" cy="295.7" r="4.5" fill="#79d1b0" fill-opacity="0.95"/><circle cx="716.8" cy="293.2" r="4.5" fill="#79d1b0" fill-opacity="0.95"/><circle cx="724.1" cy="289.3" r="4.5" fill="#79d1b0" fill-opacity="0.95"/><circle cx="731.5" cy="289.4" r="4.5" fill="#79d1b0" fill-opacity="0.95"/><circle cx="738.9" cy="287.2" r="4.5" fill="#79d1b0" fill-opacity="0.95"/><circle cx="746.3" cy="285.8" r="4.5" fill="#79d1b0" fill-opacity="0.95"/><circle cx="753.6" cy="270.5" r="4.5" fill="#79d1b0" fill-opacity="0.95"/><circle cx="761.0" cy="271.2" r="4.5" fill="#79d1b0" fill-opacity="0.95"/><circle cx="768.4" cy="267.2" r="4.5" fill="#79d1b0" fill-opacity="0.95"/><circle cx="775.8" cy="269.2" r="4.5" fill="#79d1b0" fill-opacity="0.95"/><circle cx="783.1" cy="262.9" r="4.5" fill="#79d1b0" fill-opacity="0.95"/><circle cx="790.5" cy="265.7" r="4.5" fill="#79d1b0" fill-opacity="0.95"/><circle cx="797.9" cy="257.5" r="4.5" fill="#79d1b0" fill-opacity="0.95"/><circle cx="805.3" cy="263.9" r="4.5" fill="#79d1b0" fill-opacity="0.95"/><circle cx="812.6" cy="259.2" r="4.5" fill="#79d1b0" fill-opacity="0.95"/><circle cx="820.0" cy="262.1" r="4.5" fill="#79d1b0" fill-opacity="0.95"/><polyline fill="none" stroke="#5099bb" stroke-width="4" stroke-linecap="round" stroke-linejoin="round" points="90.0,552.7 97.4,483.0 104.7,474.5 112.1,476.8 119.5,475.4 126.9,471.9 134.2,467.9 141.6,463.7 149.0,462.3 156.4,458.7 163.7,454.3 171.1,453.1 178.5,450.7 185.9,445.8 193.2,444.6 200.6,436.7 208.0,439.5 215.4,436.8 222.7,437.5 230.1,436.4 237.5,430.1 244.8,423.1 252.2,422.9 259.6,422.0 267.0,415.1 274.3,411.9 281.7,409.2 289.1,404.0 296.5,401.1 303.8,400.2 311.2,397.2 318.6,391.8 326.0,388.0 333.3,385.2 340.7,381.0 348.1,381.4 355.5,376.9 362.8,378.2 370.2,370.0 377.6,369.4 384.9,364.4 392.3,369.3 399.7,359.8 407.1,352.0 414.4,348.7 421.8,339.5 429.2,343.5 436.6,342.2 443.9,337.3 451.3,333.7 458.7,333.9 466.1,325.7 473.4,324.5 480.8,322.4 488.2,312.7 495.6,321.3 502.9,316.2 510.3,315.8 517.7,306.9 525.1,298.6 532.4,305.5 539.8,300.4 547.2,288.8 554.5,297.1 561.9,284.4 569.3,286.2 576.7,282.8 584.0,280.3 591.4,276.4 598.8,274.7 606.2,274.9 613.5,263.6 620.9,247.4 628.3,252.6 635.7,249.1 643.0,252.7 650.4,249.0 657.8,234.4 665.2,235.2 672.5,237.8 679.9,231.8 687.3,229.5 694.6,233.7 702.0,227.5 709.4,221.3 716.8,222.5 724.1,223.7 731.5,220.2 738.9,216.2 746.3,207.6 753.6,197.5 761.0,198.4 768.4,189.4 775.8,191.4 783.1,197.1 790.5,191.0 797.9,185.0 805.3,106.3 812.6,178.1 820.0,178.1"/><circle cx="90.0" cy="552.7" r="4.5" fill="#5099bb" fill-opacity="0.95"/><circle cx="97.4" cy="483.0" r="4.5" fill="#5099bb" fill-opacity="0.95"/><circle cx="104.7" cy="474.5" r="4.5" fill="#5099bb" fill-opacity="0.95"/><circle cx="112.1" cy="476.8" r="4.5" fill="#5099bb" fill-opacity="0.95"/><circle cx="119.5" cy="475.4" r="4.5" fill="#5099bb" fill-opacity="0.95"/><circle cx="126.9" cy="471.9" r="4.5" fill="#5099bb" fill-opacity="0.95"/><circle cx="134.2" cy="467.9" r="4.5" fill="#5099bb" fill-opacity="0.95"/><circle cx="141.6" cy="463.7" r="4.5" fill="#5099bb" fill-opacity="0.95"/><circle cx="149.0" cy="462.3" r="4.5" fill="#5099bb" fill-opacity="0.95"/><circle cx="156.4" cy="458.7" r="4.5" fill="#5099bb" fill-opacity="0.95"/><circle cx="163.7" cy="454.3" r="4.5" fill="#5099bb" fill-opacity="0.95"/><circle cx="171.1" cy="453.1" r="4.5" fill="#5099bb" fill-opacity="0.95"/><circle cx="178.5" cy="450.7" r="4.5" fill="#5099bb" fill-opacity="0.95"/><circle cx="185.9" cy="445.8" r="4.5" fill="#5099bb" fill-opacity="0.95"/><circle cx="193.2" cy="444.6" r="4.5" fill="#5099bb" fill-opacity="0.95"/><circle cx="200.6" cy="436.7" r="4.5" fill="#5099bb" fill-opacity="0.95"/><circle cx="208.0" cy="439.5" r="4.5" fill="#5099bb" fill-opacity="0.95"/><circle cx="215.4" cy="436.8" r="4.5" fill="#5099bb" fill-opacity="0.95"/><circle cx="222.7" cy="437.5" r="4.5" fill="#5099bb" fill-opacity="0.95"/><circle cx="230.1" cy="436.4" r="4.5" fill="#5099bb" fill-opacity="0.95"/><circle cx="237.5" cy="430.1" r="4.5" fill="#5099bb" fill-opacity="0.95"/><circle cx="244.8" cy="423.1" r="4.5" fill="#5099bb" fill-opacity="0.95"/><circle cx="252.2" cy="422.9" r="4.5" fill="#5099bb" fill-opacity="0.95"/><circle cx="259.6" cy="422.0" r="4.5" fill="#5099bb" fill-opacity="0.95"/><circle cx="267.0" cy="415.1" r="4.5" fill="#5099bb" fill-opacity="0.95"/><circle cx="274.3" cy="411.9" r="4.5" fill="#5099bb" fill-opacity="0.95"/><circle cx="281.7" cy="409.2" r="4.5" fill="#5099bb" fill-opacity="0.95"/><circle cx="289.1" cy="404.0" r="4.5" fill="#5099bb" fill-opacity="0.95"/><circle cx="296.5" cy="401.1" r="4.5" fill="#5099bb" fill-opacity="0.95"/><circle cx="303.8" cy="400.2" r="4.5" fill="#5099bb" fill-opacity="0.95"/><circle cx="311.2" cy="397.2" r="4.5" fill="#5099bb" fill-opacity="0.95"/><circle cx="318.6" cy="391.8" r="4.5" fill="#5099bb" fill-opacity="0.95"/><circle cx="326.0" cy="388.0" r="4.5" fill="#5099bb" fill-opacity="0.95"/><circle cx="333.3" cy="385.2" r="4.5" fill="#5099bb" fill-opacity="0.95"/><circle cx="340.7" cy="381.0" r="4.5" fill="#5099bb" fill-opacity="0.95"/><circle cx="348.1" cy="381.4" r="4.5" fill="#5099bb" fill-opacity="0.95"/><circle cx="355.5" cy="376.9" r="4.5" fill="#5099bb" fill-opacity="0.95"/><circle cx="362.8" cy="378.2" r="4.5" fill="#5099bb" fill-opacity="0.95"/><circle cx="370.2" cy="370.0" r="4.5" fill="#5099bb" fill-opacity="0.95"/><circle cx="377.6" cy="369.4" r="4.5" fill="#5099bb" fill-opacity="0.95"/><circle cx="384.9" cy="364.4" r="4.5" fill="#5099bb" fill-opacity="0.95"/><circle cx="392.3" cy="369.3" r="4.5" fill="#5099bb" fill-opacity="0.95"/><circle cx="399.7" cy="359.8" r="4.5" fill="#5099bb" fill-opacity="0.95"/><circle cx="407.1" cy="352.0" r="4.5" fill="#5099bb" fill-opacity="0.95"/><circle cx="414.4" cy="348.7" r="4.5" fill="#5099bb" fill-opacity="0.95"/><circle cx="421.8" cy="339.5" r="4.5" fill="#5099bb" fill-opacity="0.95"/><circle cx="429.2" cy="343.5" r="4.5" fill="#5099bb" fill-opacity="0.95"/><circle cx="436.6" cy="342.2" r="4.5" fill="#5099bb" fill-opacity="0.95"/><circle cx="443.9" cy="337.3" r="4.5" fill="#5099bb" fill-opacity="0.95"/><circle cx="451.3" cy="333.7" r="4.5" fill="#5099bb" fill-opacity="0.95"/><circle cx="458.7" cy="333.9" r="4.5" fill="#5099bb" fill-opacity="0.95"/><circle cx="466.1" cy="325.7" r="4.5" fill="#5099bb" fill-opacity="0.95"/><circle cx="473.4" cy="324.5" r="4.5" fill="#5099bb" fill-opacity="0.95"/><circle cx="480.8" cy="322.4" r="4.5" fill="#5099bb" fill-opacity="0.95"/><circle cx="488.2" cy="312.7" r="4.5" fill="#5099bb" fill-opacity="0.95"/><circle cx="495.6" cy="321.3" r="4.5" fill="#5099bb" fill-opacity="0.95"/><circle cx="502.9" cy="316.2" r="4.5" fill="#5099bb" fill-opacity="0.95"/><circle cx="510.3" cy="315.8" r="4.5" fill="#5099bb" fill-opacity="0.95"/><circle cx="517.7" cy="306.9" r="4.5" fill="#5099bb" fill-opacity="0.95"/><circle cx="525.1" cy="298.6" r="4.5" fill="#5099bb" fill-opacity="0.95"/><circle cx="532.4" cy="305.5" r="4.5" fill="#5099bb" fill-opacity="0.95"/><circle cx="539.8" cy="300.4" r="4.5" fill="#5099bb" fill-opacity="0.95"/><circle cx="547.2" cy="288.8" r="4.5" fill="#5099bb" fill-opacity="0.95"/><circle cx="554.5" cy="297.1" r="4.5" fill="#5099bb" fill-opacity="0.95"/><circle cx="561.9" cy="284.4" r="4.5" fill="#5099bb" fill-opacity="0.95"/><circle cx="569.3" cy="286.2" r="4.5" fill="#5099bb" fill-opacity="0.95"/><circle cx="576.7" cy="282.8" r="4.5" fill="#5099bb" fill-opacity="0.95"/><circle cx="584.0" cy="280.3" r="4.5" fill="#5099bb" fill-opacity="0.95"/><circle cx="591.4" cy="276.4" r="4.5" fill="#5099bb" fill-opacity="0.95"/><circle cx="598.8" cy="274.7" r="4.5" fill="#5099bb" fill-opacity="0.95"/><circle cx="606.2" cy="274.9" r="4.5" fill="#5099bb" fill-opacity="0.95"/><circle cx="613.5" cy="263.6" r="4.5" fill="#5099bb" fill-opacity="0.95"/><circle cx="620.9" cy="247.4" r="4.5" fill="#5099bb" fill-opacity="0.95"/><circle cx="628.3" cy="252.6" r="4.5" fill="#5099bb" fill-opacity="0.95"/><circle cx="635.7" cy="249.1" r="4.5" fill="#5099bb" fill-opacity="0.95"/><circle cx="643.0" cy="252.7" r="4.5" fill="#5099bb" fill-opacity="0.95"/><circle cx="650.4" cy="249.0" r="4.5" fill="#5099bb" fill-opacity="0.95"/><circle cx="657.8" cy="234.4" r="4.5" fill="#5099bb" fill-opacity="0.95"/><circle cx="665.2" cy="235.2" r="4.5" fill="#5099bb" fill-opacity="0.95"/><circle cx="672.5" cy="237.8" r="4.5" fill="#5099bb" fill-opacity="0.95"/><circle cx="679.9" cy="231.8" r="4.5" fill="#5099bb" fill-opacity="0.95"/><circle cx="687.3" cy="229.5" r="4.5" fill="#5099bb" fill-opacity="0.95"/><circle cx="694.6" cy="233.7" r="4.5" fill="#5099bb" fill-opacity="0.95"/><circle cx="702.0" cy="227.5" r="4.5" fill="#5099bb" fill-opacity="0.95"/><circle cx="709.4" cy="221.3" r="4.5" fill="#5099bb" fill-opacity="0.95"/><circle cx="716.8" cy="222.5" r="4.5" fill="#5099bb" fill-opacity="0.95"/><circle cx="724.1" cy="223.7" r="4.5" fill="#5099bb" fill-opacity="0.95"/><circle cx="731.5" cy="220.2" r="4.5" fill="#5099bb" fill-opacity="0.95"/><circle cx="738.9" cy="216.2" r="4.5" fill="#5099bb" fill-opacity="0.95"/><circle cx="746.3" cy="207.6" r="4.5" fill="#5099bb" fill-opacity="0.95"/><circle cx="753.6" cy="197.5" r="4.5" fill="#5099bb" fill-opacity="0.95"/><circle cx="761.0" cy="198.4" r="4.5" fill="#5099bb" fill-opacity="0.95"/><circle cx="768.4" cy="189.4" r="4.5" fill="#5099bb" fill-opacity="0.95"/><circle cx="775.8" cy="191.4" r="4.5" fill="#5099bb" fill-opacity="0.95"/><circle cx="783.1" cy="197.1" r="4.5" fill="#5099bb" fill-opacity="0.95"/><circle cx="790.5" cy="191.0" r="4.5" fill="#5099bb" fill-opacity="0.95"/><circle cx="797.9" cy="185.0" r="4.5" fill="#5099bb" fill-opacity="0.95"/><circle cx="805.3" cy="106.3" r="4.5" fill="#5099bb" fill-opacity="0.95"/><circle cx="812.6" cy="178.1" r="4.5" fill="#5099bb" fill-opacity="0.95"/><circle cx="820.0" cy="178.1" r="4.5" fill="#5099bb" fill-opacity="0.95"/><polyline fill="none" stroke="#483f9a" stroke-width="4" stroke-linecap="round" stroke-linejoin="round" points="90.0,552.1 97.4,469.6 104.7,462.3 112.1,466.2 119.5,463.0 126.9,458.1 134.2,457.7 141.6,452.0 149.0,448.6 156.4,445.8 163.7,445.1 171.1,439.5 178.5,437.0 185.9,435.1 193.2,432.4 200.6,430.6 208.0,427.5 215.4,425.6 222.7,422.8 230.1,414.0 237.5,419.6 244.8,414.5 252.2,412.9 259.6,405.0 267.0,404.5 274.3,403.8 281.7,400.8 289.1,391.9 296.5,391.6 303.8,389.2 311.2,386.2 318.6,380.9 326.0,379.2 333.3,371.5 340.7,371.7 348.1,370.6 355.5,292.4 362.8,362.2 370.2,358.5 377.6,358.0 384.9,354.3 392.3,352.4 399.7,346.5 407.1,342.6 414.4,338.1 421.8,340.9 429.2,339.6 436.6,333.8 443.9,333.6 451.3,326.7 458.7,317.4 466.1,317.0 473.4,312.7 480.8,303.3 488.2,311.4 495.6,308.7 502.9,303.8 510.3,298.4 517.7,296.2 525.1,296.8 532.4,295.9 539.8,285.6 547.2,285.8 554.5,286.3 561.9,282.8 569.3,275.6 576.7,276.2 584.0,267.7 591.4,264.0 598.8,260.4 606.2,257.6 613.5,254.7 620.9,246.1 628.3,248.3 635.7,242.5 643.0,237.3 650.4,235.6 657.8,228.6 665.2,229.9 672.5,221.7 679.9,220.1 687.3,215.0 694.6,211.4 702.0,212.5 709.4,204.9 716.8,206.2 724.1,204.5 731.5,203.2 738.9,187.8 746.3,192.0 753.6,183.5 761.0,189.4 768.4,184.6 775.8,172.2 783.1,175.4 790.5,169.8 797.9,173.5 805.3,159.6 812.6,166.1 820.0,156.6"/><circle cx="90.0" cy="552.1" r="4.5" fill="#483f9a" fill-opacity="0.95"/><circle cx="97.4" cy="469.6" r="4.5" fill="#483f9a" fill-opacity="0.95"/><circle cx="104.7" cy="462.3" r="4.5" fill="#483f9a" fill-opacity="0.95"/><circle cx="112.1" cy="466.2" r="4.5" fill="#483f9a" fill-opacity="0.95"/><circle cx="119.5" cy="463.0" r="4.5" fill="#483f9a" fill-opacity="0.95"/><circle cx="126.9" cy="458.1" r="4.5" fill="#483f9a" fill-opacity="0.95"/><circle cx="134.2" cy="457.7" r="4.5" fill="#483f9a" fill-opacity="0.95"/><circle cx="141.6" cy="452.0" r="4.5" fill="#483f9a" fill-opacity="0.95"/><circle cx="149.0" cy="448.6" r="4.5" fill="#483f9a" fill-opacity="0.95"/><circle cx="156.4" cy="445.8" r="4.5" fill="#483f9a" fill-opacity="0.95"/><circle cx="163.7" cy="445.1" r="4.5" fill="#483f9a" fill-opacity="0.95"/><circle cx="171.1" cy="439.5" r="4.5" fill="#483f9a" fill-opacity="0.95"/><circle cx="178.5" cy="437.0" r="4.5" fill="#483f9a" fill-opacity="0.95"/><circle cx="185.9" cy="435.1" r="4.5" fill="#483f9a" fill-opacity="0.95"/><circle cx="193.2" cy="432.4" r="4.5" fill="#483f9a" fill-opacity="0.95"/><circle cx="200.6" cy="430.6" r="4.5" fill="#483f9a" fill-opacity="0.95"/><circle cx="208.0" cy="427.5" r="4.5" fill="#483f9a" fill-opacity="0.95"/><circle cx="215.4" cy="425.6" r="4.5" fill="#483f9a" fill-opacity="0.95"/><circle cx="222.7" cy="422.8" r="4.5" fill="#483f9a" fill-opacity="0.95"/><circle cx="230.1" cy="414.0" r="4.5" fill="#483f9a" fill-opacity="0.95"/><circle cx="237.5" cy="419.6" r="4.5" fill="#483f9a" fill-opacity="0.95"/><circle cx="244.8" cy="414.5" r="4.5" fill="#483f9a" fill-opacity="0.95"/><circle cx="252.2" cy="412.9" r="4.5" fill="#483f9a" fill-opacity="0.95"/><circle cx="259.6" cy="405.0" r="4.5" fill="#483f9a" fill-opacity="0.95"/><circle cx="267.0" cy="404.5" r="4.5" fill="#483f9a" fill-opacity="0.95"/><circle cx="274.3" cy="403.8" r="4.5" fill="#483f9a" fill-opacity="0.95"/><circle cx="281.7" cy="400.8" r="4.5" fill="#483f9a" fill-opacity="0.95"/><circle cx="289.1" cy="391.9" r="4.5" fill="#483f9a" fill-opacity="0.95"/><circle cx="296.5" cy="391.6" r="4.5" fill="#483f9a" fill-opacity="0.95"/><circle cx="303.8" cy="389.2" r="4.5" fill="#483f9a" fill-opacity="0.95"/><circle cx="311.2" cy="386.2" r="4.5" fill="#483f9a" fill-opacity="0.95"/><circle cx="318.6" cy="380.9" r="4.5" fill="#483f9a" fill-opacity="0.95"/><circle cx="326.0" cy="379.2" r="4.5" fill="#483f9a" fill-opacity="0.95"/><circle cx="333.3" cy="371.5" r="4.5" fill="#483f9a" fill-opacity="0.95"/><circle cx="340.7" cy="371.7" r="4.5" fill="#483f9a" fill-opacity="0.95"/><circle cx="348.1" cy="370.6" r="4.5" fill="#483f9a" fill-opacity="0.95"/><circle cx="355.5" cy="292.4" r="4.5" fill="#483f9a" fill-opacity="0.95"/><circle cx="362.8" cy="362.2" r="4.5" fill="#483f9a" fill-opacity="0.95"/><circle cx="370.2" cy="358.5" r="4.5" fill="#483f9a" fill-opacity="0.95"/><circle cx="377.6" cy="358.0" r="4.5" fill="#483f9a" fill-opacity="0.95"/><circle cx="384.9" cy="354.3" r="4.5" fill="#483f9a" fill-opacity="0.95"/><circle cx="392.3" cy="352.4" r="4.5" fill="#483f9a" fill-opacity="0.95"/><circle cx="399.7" cy="346.5" r="4.5" fill="#483f9a" fill-opacity="0.95"/><circle cx="407.1" cy="342.6" r="4.5" fill="#483f9a" fill-opacity="0.95"/><circle cx="414.4" cy="338.1" r="4.5" fill="#483f9a" fill-opacity="0.95"/><circle cx="421.8" cy="340.9" r="4.5" fill="#483f9a" fill-opacity="0.95"/><circle cx="429.2" cy="339.6" r="4.5" fill="#483f9a" fill-opacity="0.95"/><circle cx="436.6" cy="333.8" r="4.5" fill="#483f9a" fill-opacity="0.95"/><circle cx="443.9" cy="333.6" r="4.5" fill="#483f9a" fill-opacity="0.95"/><circle cx="451.3" cy="326.7" r="4.5" fill="#483f9a" fill-opacity="0.95"/><circle cx="458.7" cy="317.4" r="4.5" fill="#483f9a" fill-opacity="0.95"/><circle cx="466.1" cy="317.0" r="4.5" fill="#483f9a" fill-opacity="0.95"/><circle cx="473.4" cy="312.7" r="4.5" fill="#483f9a" fill-opacity="0.95"/><circle cx="480.8" cy="303.3" r="4.5" fill="#483f9a" fill-opacity="0.95"/><circle cx="488.2" cy="311.4" r="4.5" fill="#483f9a" fill-opacity="0.95"/><circle cx="495.6" cy="308.7" r="4.5" fill="#483f9a" fill-opacity="0.95"/><circle cx="502.9" cy="303.8" r="4.5" fill="#483f9a" fill-opacity="0.95"/><circle cx="510.3" cy="298.4" r="4.5" fill="#483f9a" fill-opacity="0.95"/><circle cx="517.7" cy="296.2" r="4.5" fill="#483f9a" fill-opacity="0.95"/><circle cx="525.1" cy="296.8" r="4.5" fill="#483f9a" fill-opacity="0.95"/><circle cx="532.4" cy="295.9" r="4.5" fill="#483f9a" fill-opacity="0.95"/><circle cx="539.8" cy="285.6" r="4.5" fill="#483f9a" fill-opacity="0.95"/><circle cx="547.2" cy="285.8" r="4.5" fill="#483f9a" fill-opacity="0.95"/><circle cx="554.5" cy="286.3" r="4.5" fill="#483f9a" fill-opacity="0.95"/><circle cx="561.9" cy="282.8" r="4.5" fill="#483f9a" fill-opacity="0.95"/><circle cx="569.3" cy="275.6" r="4.5" fill="#483f9a" fill-opacity="0.95"/><circle cx="576.7" cy="276.2" r="4.5" fill="#483f9a" fill-opacity="0.95"/><circle cx="584.0" cy="267.7" r="4.5" fill="#483f9a" fill-opacity="0.95"/><circle cx="591.4" cy="264.0" r="4.5" fill="#483f9a" fill-opacity="0.95"/><circle cx="598.8" cy="260.4" r="4.5" fill="#483f9a" fill-opacity="0.95"/><circle cx="606.2" cy="257.6" r="4.5" fill="#483f9a" fill-opacity="0.95"/><circle cx="613.5" cy="254.7" r="4.5" fill="#483f9a" fill-opacity="0.95"/><circle cx="620.9" cy="246.1" r="4.5" fill="#483f9a" fill-opacity="0.95"/><circle cx="628.3" cy="248.3" r="4.5" fill="#483f9a" fill-opacity="0.95"/><circle cx="635.7" cy="242.5" r="4.5" fill="#483f9a" fill-opacity="0.95"/><circle cx="643.0" cy="237.3" r="4.5" fill="#483f9a" fill-opacity="0.95"/><circle cx="650.4" cy="235.6" r="4.5" fill="#483f9a" fill-opacity="0.95"/><circle cx="657.8" cy="228.6" r="4.5" fill="#483f9a" fill-opacity="0.95"/><circle cx="665.2" cy="229.9" r="4.5" fill="#483f9a" fill-opacity="0.95"/><circle cx="672.5" cy="221.7" r="4.5" fill="#483f9a" fill-opacity="0.95"/><circle cx="679.9" cy="220.1" r="4.5" fill="#483f9a" fill-opacity="0.95"/><circle cx="687.3" cy="215.0" r="4.5" fill="#483f9a" fill-opacity="0.95"/><circle cx="694.6" cy="211.4" r="4.5" fill="#483f9a" fill-opacity="0.95"/><circle cx="702.0" cy="212.5" r="4.5" fill="#483f9a" fill-opacity="0.95"/><circle cx="709.4" cy="204.9" r="4.5" fill="#483f9a" fill-opacity="0.95"/><circle cx="716.8" cy="206.2" r="4.5" fill="#483f9a" fill-opacity="0.95"/><circle cx="724.1" cy="204.5" r="4.5" fill="#483f9a" fill-opacity="0.95"/><circle cx="731.5" cy="203.2" r="4.5" fill="#483f9a" fill-opacity="0.95"/><circle cx="738.9" cy="187.8" r="4.5" fill="#483f9a" fill-opacity="0.95"/><circle cx="746.3" cy="192.0" r="4.5" fill="#483f9a" fill-opacity="0.95"/><circle cx="753.6" cy="183.5" r="4.5" fill="#483f9a" fill-opacity="0.95"/><circle cx="761.0" cy="189.4" r="4.5" fill="#483f9a" fill-opacity="0.95"/><circle cx="768.4" cy="184.6" r="4.5" fill="#483f9a" fill-opacity="0.95"/><circle cx="775.8" cy="172.2" r="4.5" fill="#483f9a" fill-opacity="0.95"/><circle cx="783.1" cy="175.4" r="4.5" fill="#483f9a" fill-opacity="0.95"/><circle cx="790.5" cy="169.8" r="4.5" fill="#483f9a" fill-opacity="0.95"/><circle cx="797.9" cy="173.5" r="4.5" fill="#483f9a" fill-opacity="0.95"/><circle cx="805.3" cy="159.6" r="4.5" fill="#483f9a" fill-opacity="0.95"/><circle cx="812.6" cy="166.1" r="4.5" fill="#483f9a" fill-opacity="0.95"/><circle cx="820.0" cy="156.6" r="4.5" fill="#483f9a" fill-opacity="0.95"/>
  <rect x="830" y="76" width="180" height="122" rx="14" fill="#fffdfa" stroke="#d7d1cb" stroke-width="1.2"/><line x1="846" y1="100" x2="880" y2="100" stroke="#79d1b0" stroke-width="4" stroke-linecap="round"/><circle cx="863" cy="100" r="4.5" fill="#79d1b0"/><text x="894" y="107" font-size="21" font-family="Helvetica, Arial, sans-serif" fill="#2e2a28">2B</text><line x1="846" y1="134" x2="880" y2="134" stroke="#5099bb" stroke-width="4" stroke-linecap="round"/><circle cx="863" cy="134" r="4.5" fill="#5099bb"/><text x="894" y="141" font-size="21" font-family="Helvetica, Arial, sans-serif" fill="#2e2a28">4B</text><line x1="846" y1="168" x2="880" y2="168" stroke="#483f9a" stroke-width="4" stroke-linecap="round"/><circle cx="863" cy="168" r="4.5" fill="#483f9a"/><text x="894" y="175" font-size="21" font-family="Helvetica, Arial, sans-serif" fill="#2e2a28">8B</text>
  <text x="90.0" y="592" text-anchor="middle" font-size="18" font-family="Helvetica, Arial, sans-serif" fill="#6f6762">1</text><text x="156.4" y="592" text-anchor="middle" font-size="18" font-family="Helvetica, Arial, sans-serif" fill="#6f6762">10</text><text x="267.0" y="592" text-anchor="middle" font-size="18" font-family="Helvetica, Arial, sans-serif" fill="#6f6762">25</text><text x="451.3" y="592" text-anchor="middle" font-size="18" font-family="Helvetica, Arial, sans-serif" fill="#6f6762">50</text><text x="635.7" y="592" text-anchor="middle" font-size="18" font-family="Helvetica, Arial, sans-serif" fill="#6f6762">75</text><text x="820.0" y="592" text-anchor="middle" font-size="18" font-family="Helvetica, Arial, sans-serif" fill="#6f6762">100</text>
  <text x="76" y="566.0" text-anchor="end" font-size="18" font-family="Helvetica, Arial, sans-serif" fill="#6f6762">0.00</text><text x="76" y="479.7" text-anchor="end" font-size="18" font-family="Helvetica, Arial, sans-serif" fill="#6f6762">0.25</text><text x="76" y="393.4" text-anchor="end" font-size="18" font-family="Helvetica, Arial, sans-serif" fill="#6f6762">0.50</text><text x="76" y="307.2" text-anchor="end" font-size="18" font-family="Helvetica, Arial, sans-serif" fill="#6f6762">0.75</text><text x="76" y="220.9" text-anchor="end" font-size="18" font-family="Helvetica, Arial, sans-serif" fill="#6f6762">1.0</text><text x="76" y="134.6" text-anchor="end" font-size="18" font-family="Helvetica, Arial, sans-serif" fill="#6f6762">1.2</text><text x="76" y="48.3" text-anchor="end" font-size="18" font-family="Helvetica, Arial, sans-serif" fill="#6f6762">1.5</text>
  <text x="455.0" y="618" text-anchor="middle" font-size="20" font-family="Helvetica, Arial, sans-serif" fill="#2e2a28">Context Size</text>
  <g transform="translate(24 315.0) rotate(-90)">
    <text text-anchor="middle" font-size="20" font-family="Helvetica, Arial, sans-serif" fill="#2e2a28">TTFT (seconds)</text>
  </g>
</svg>
