<svg xmlns="http://www.w3.org/2000/svg" width="1040" height="560" viewBox="0 0 1040 560">
  <rect width="1040" height="560" fill="#fffdfa"/>
  <line x1="90.0" y1="32" x2="90.0" y2="480" stroke="#d7d1cb" stroke-width="1"/><line x1="156.4" y1="32" x2="156.4" y2="480" stroke="#d7d1cb" stroke-width="1"/><line x1="267.0" y1="32" x2="267.0" y2="480" stroke="#d7d1cb" stroke-width="1"/><line x1="451.3" y1="32" x2="451.3" y2="480" stroke="#d7d1cb" stroke-width="1"/><line x1="635.7" y1="32" x2="635.7" y2="480" stroke="#d7d1cb" stroke-width="1"/><line x1="820.0" y1="32" x2="820.0" y2="480" stroke="#d7d1cb" stroke-width="1"/><line x1="90" y1="480.0" x2="820" y2="480.0" stroke="#d7d1cb" stroke-width="1"/><line x1="90" y1="401.1" x2="820" y2="401.1" stroke="#d7d1cb" stroke-width="1"/><line x1="90" y1="322.2" x2="820" y2="322.2" stroke="#d7d1cb" stroke-width="1"/><line x1="90" y1="243.4" x2="820" y2="243.4" stroke="#d7d1cb" stroke-width="1"/><line x1="90" y1="164.5" x2="820" y2="164.5" stroke="#d7d1cb" stroke-width="1"/><line x1="90" y1="85.6" x2="820" y2="85.6" stroke="#d7d1cb" stroke-width="1"/><line x1="90" y1="6.7" x2="820" y2="6.7" stroke="#d7d1cb" stroke-width="1"/>
  <line x1="90" y1="480" x2="820" y2="480" stroke="#3f3a37" stroke-width="2"/>
  <line x1="90" y1="32" x2="90" y2="480" stroke="#3f3a37" stroke-width="2"/>
  <polyline fill="none" stroke="#79d1b0" stroke-width="4" stroke-linecap="round" stroke-linejoin="round" points="90.0,472.9 97.4,414.6 104.7,409.3 112.1,410.1 119.5,411.1 126.9,405.3 134.2,403.8 141.6,404.2 149.0,407.9 156.4,399.3 163.7,396.0 171.1,392.9 178.5,394.9 185.9,391.1 193.2,389.4 200.6,387.4 208.0,385.2 215.4,385.3 222.7,382.7 230.1,383.3 237.5,379.7 244.8,379.6 252.2,372.2 259.6,377.9 267.0,371.9 274.3,365.6 281.7,366.3 289.1,361.9 296.5,367.5 303.8,364.4 311.2,355.1 318.6,356.9 326.0,353.4 333.3,354.8 340.7,349.9 348.1,341.7 355.5,278.7 362.8,339.9 370.2,341.7 377.6,339.8 384.9,342.1 392.3,337.4 399.7,329.8 407.1,330.5 414.4,326.9 421.8,325.3 429.2,325.9 436.6,324.4 443.9,318.8 451.3,328.7 458.7,317.5 466.1,307.3 473.4,311.0 480.8,304.4 488.2,304.0 495.6,300.2 502.9,304.0 510.3,300.7 517.7,233.0 525.1,292.0 532.4,294.8 539.8,288.7 547.2,287.6 554.5,293.4 561.9,283.8 569.3,284.6 576.7,276.9 584.0,280.8 591.4,276.3 598.8,278.4 606.2,276.2 613.5,270.6 620.9,261.2 628.3,263.8 635.7,261.0 643.0,259.3 650.4,253.8 657.8,260.4 665.2,253.6 672.5,243.3 679.9,246.6 687.3,245.5 694.6,247.1 702.0,240.3 709.4,238.3 716.8,236.1 724.1,232.5 731.5,232.6 738.9,230.6 746.3,229.3 753.6,215.3 761.0,215.9 768.4,212.3 775.8,214.2 783.1,208.4 790.5,210.9 797.9,203.4 805.3,209.3 812.6,204.9 820.0,207.7"/><circle cx="90.0" cy="472.9" r="4.5" fill="#79d1b0" fill-opacity="0.95"/><circle cx="97.4" cy="414.6" r="4.5" fill="#79d1b0" fill-opacity="0.95"/><circle cx="104.7" cy="409.3" r="4.5" fill="#79d1b0" fill-opacity="0.95"/><circle cx="112.1" cy="410.1" r="4.5" fill="#79d1b0" fill-opacity="0.95"/><circle cx="119.5" cy="411.1" r="4.5" fill="#79d1b0" fill-opacity="0.95"/><circle cx="126.9" cy="405.3" r="4.5" fill="#79d1b0" fill-opacity="0.95"/><circle cx="134.2" cy="403.8" r="4.5" fill="#79d1b0" fill-opacity="0.95"/><circle cx="141.6" cy="404.2" r="4.5" fill="#79d1b0" fill-opacity="0.95"/><circle cx="149.0" cy="407.9" r="4.5" fill="#79d1b0" fill-opacity="0.95"/><circle cx="156.4" cy="399.3" r="4.5" fill="#79d1b0" fill-opacity="0.95"/><circle cx="163.7" cy="396.0" r="4.5" fill="#79d1b0" fill-opacity="0.95"/><circle cx="171.1" cy="392.9" r="4.5" fill="#79d1b0" fill-opacity="0.95"/><circle cx="178.5" cy="394.9" r="4.5" fill="#79d1b0" fill-opacity="0.95"/><circle cx="185.9" cy="391.1" r="4.5" fill="#79d1b0" fill-opacity="0.95"/><circle cx="193.2" cy="389.4" r="4.5" fill="#79d1b0" fill-opacity="0.95"/><circle cx="200.6" cy="387.4" r="4.5" fill="#79d1b0" fill-opacity="0.95"/><circle cx="208.0" cy="385.2" r="4.5" fill="#79d1b0" fill-opacity="0.95"/><circle cx="215.4" cy="385.3" r="4.5" fill="#79d1b0" fill-opacity="0.95"/><circle cx="222.7" cy="382.7" r="4.5" fill="#79d1b0" fill-opacity="0.95"/><circle cx="230.1" cy="383.3" r="4.5" fill="#79d1b0" fill-opacity="0.95"/><circle cx="237.5" cy="379.7" r="4.5" fill="#79d1b0" fill-opacity="0.95"/><circle cx="244.8" cy="379.6" r="4.5" fill="#79d1b0" fill-opacity="0.95"/><circle cx="252.2" cy="372.2" r="4.5" fill="#79d1b0" fill-opacity="0.95"/><circle cx="259.6" cy="377.9" r="4.5" fill="#79d1b0" fill-opacity="0.95"/><circle cx="267.0" cy="371.9" r="4.5" fill="#79d1b0" fill-opacity="0.95"/><circle cx="274.3" cy="365.6" r="4.5" fill="#79d1b0" fill-opacity="0.95"/><circle cx="281.7" cy="366.3" r="4.5" fill="#79d1b0" fill-opacity="0.95"/><circle cx="289.1" cy="361.9" r="4.5" fill="#79d1b0" fill-opacity="0.95"/><circle cx="296.5" cy="367.5" r="4.5" fill="#79d1b0" fill-opacity="0.95"/><circle cx="303.8" cy="364.4" r="4.5" fill="#79d1b0" fill-opacity="0.95"/><circle cx="311.2" cy="355.1" r="4.5" fill="#79d1b0" fill-opacity="0.95"/><circle cx="318.6" cy="356.9" r="4.5" fill="#79d1b0" fill-opacity="0.95"/><circle cx="326.0" cy="353.4" r="4.5" fill="#79d1b0" fill-opacity="0.95"/><circle cx="333.3" cy="354.8" r="4.5" fill="#79d1b0" fill-opacity="0.95"/><circle cx="340.7" cy="349.9" r="4.5" fill="#79d1b0" fill-opacity="0.95"/><circle cx="348.1" cy="341.7" r="4.5" fill="#79d1b0" fill-opacity="0.95"/><circle cx="355.5" cy="278.7" r="4.5" fill="#79d1b0" fill-opacity="0.95"/><circle cx="362.8" cy="339.9" r="4.5" fill="#79d1b0" fill-opacity="0.95"/><circle cx="370.2" cy="341.7" r="4.5" fill="#79d1b0" fill-opacity="0.95"/><circle cx="377.6" cy="339.8" r="4.5" fill="#79d1b0" fill-opacity="0.95"/><circle cx="384.9" cy="342.1" r="4.5" fill="#79d1b0" fill-opacity="0.95"/><circle cx="392.3" cy="337.4" r="4.5" fill="#79d1b0" fill-opacity="0.95"/><circle cx="399.7" cy="329.8" r="4.5" fill="#79d1b0" fill-opacity="0.95"/><circle cx="407.1" cy="330.5" r="4.5" fill="#79d1b0" fill-opacity="0.95"/><circle cx="414.4" cy="326.9" r="4.5" fill="#79d1b0" fill-opacity="0.95"/><circle cx="421.8" cy="325.3" r="4.5" fill="#79d1b0" fill-opacity="0.95"/><circle cx="429.2" cy="325.9" r="4.5" fill="#79d1b0" fill-opacity="0.95"/><circle cx="436.6" cy="324.4" r="4.5" fill="#79d1b0" fill-opacity="0.95"/><circle cx="443.9" cy="318.8" r="4.5" fill="#79d1b0" fill-opacity="0.95"/><circle cx="451.3" cy="328.7" r="4.5" fill="#79d1b0" fill-opacity="0.95"/><circle cx="458.7" cy="317.5" r="4.5" fill="#79d1b0" fill-opacity="0.95"/><circle cx="466.1" cy="307.3" r="4.5" fill="#79d1b0" fill-opacity="0.95"/><circle cx="473.4" cy="311.0" r="4.5" fill="#79d1b0" fill-opacity="0.95"/><circle cx="480.8" cy="304.4" r="4.5" fill="#79d1b0" fill-opacity="0.95"/><circle cx="488.2" cy="304.0" r="4.5" fill="#79d1b0" fill-opacity="0.95"/><circle cx="495.6" cy="300.2" r="4.5" fill="#79d1b0" fill-opacity="0.95"/><circle cx="502.9" cy="304.0" r="4.5" fill="#79d1b0" fill-opacity="0.95"/><circle cx="510.3" cy="300.7" r="4.5" fill="#79d1b0" fill-opacity="0.95"/><circle cx="517.7" cy="233.0" r="4.5" fill="#79d1b0" fill-opacity="0.95"/><circle cx="525.1" cy="292.0" r="4.5" fill="#79d1b0" fill-opacity="0.95"/><circle cx="532.4" cy="294.8" r="4.5" fill="#79d1b0" fill-opacity="0.95"/><circle cx="539.8" cy="288.7" r="4.5" fill="#79d1b0" fill-opacity="0.95"/><circle cx="547.2" cy="287.6" r="4.5" fill="#79d1b0" fill-opacity="0.95"/><circle cx="554.5" cy="293.4" r="4.5" fill="#79d1b0" fill-opacity="0.95"/><circle cx="561.9" cy="283.8" r="4.5" fill="#79d1b0" fill-opacity="0.95"/><circle cx="569.3" cy="284.6" r="4.5" fill="#79d1b0" fill-opacity="0.95"/><circle cx="576.7" cy="276.9" r="4.5" fill="#79d1b0" fill-opacity="0.95"/><circle cx="584.0" cy="280.8" r="4.5" fill="#79d1b0" fill-opacity="0.95"/><circle cx="591.4" cy="276.3" r="4.5" fill="#79d1b0" fill-opacity="0.95"/><circle cx="598.8" cy="278.4" r="4.5" fill="#79d1b0" fill-opacity="0.95"/><circle cx="606.2" cy="276.2" r="4.5" fill="#79d1b0" fill-opacity="0.95"/><circle cx="613.5" cy="270.6" r="4.5" fill="#79d1b0" fill-opacity="0.95"/><circle cx="620.9" cy="261.2" r="4.5" fill="#79d1b0" fill-opacity="0.95"/><circle cx="628.3" cy="263.8" r="4.5" fill="#79d1b0" fill-opacity="0.95"/><circle cx="635.7" cy="261.0" r="4.5" fill="#79d1b0" fill-opacity="0.95"/><circle cx="643.0" cy="259.3" r="4.5" fill="#79d1b0" fill-opacity="0.95"/><circle cx="650.4" cy="253.8" r="4.5" fill="#79d1b0" fill-opacity="0.95"/><circle cx="657.8" cy="260.4" r="4.5" fill="#79d1b0" fill-opacity="0.95"/><circle cx="665.2" cy="253.6" r="4.5" fill="#79d1b0" fill-opacity="0.95"/><circle cx="672.5" cy="243.3" r="4.5" fill="#79d1b0" fill-opacity="0.95"/><circle cx="679.9" cy="246.6" r="4.5" fill="#79d1b0" fill-opacity="0.95"/><circle cx="687.3" cy="245.5" r="4.5" fill="#79d1b0" fill-opacity="0.95"/><circle cx="694.6" cy="247.1" r="4.5" fill="#79d1b0" fill-opacity="0.95"/><circle cx="702.0" cy="240.3" r="4.5" fill="#79d1b0" fill-opacity="0.95"/><circle cx="709.4" cy="238.3" r="4.5" fill="#79d1b0" fill-opacity="0.95"/><circle cx="716.8" cy="236.1" r="4.5" fill="#79d1b0" fill-opacity="0.95"/><circle cx="724.1" cy="232.5" r="4.5" fill="#79d1b0" fill-opacity="0.95"/><circle cx="731.5" cy="232.6" r="4.5" fill="#79d1b0" fill-opacity="0.95"/><circle cx="738.9" cy="230.6" r="4.5" fill="#79d1b0" fill-opacity="0.95"/><circle cx="746.3" cy="229.3" r="4.5" fill="#79d1b0" fill-opacity="0.95"/><circle cx="753.6" cy="215.3" r="4.5" fill="#79d1b0" fill-opacity="0.95"/><circle cx="761.0" cy="215.9" r="4.5" fill="#79d1b0" fill-opacity="0.95"/><circle cx="768.4" cy="212.3" r="4.5" fill="#79d1b0" fill-opacity="0.95"/><circle cx="775.8" cy="214.2" r="4.5" fill="#79d1b0" fill-opacity="0.95"/><circle cx="783.1" cy="208.4" r="4.5" fill="#79d1b0" fill-opacity="0.95"/><circle cx="790.5" cy="210.9" r="4.5" fill="#79d1b0" fill-opacity="0.95"/><circle cx="797.9" cy="203.4" r="4.5" fill="#79d1b0" fill-opacity="0.95"/><circle cx="805.3" cy="209.3" r="4.5" fill="#79d1b0" fill-opacity="0.95"/><circle cx="812.6" cy="204.9" r="4.5" fill="#79d1b0" fill-opacity="0.95"/><circle cx="820.0" cy="207.7" r="4.5" fill="#79d1b0" fill-opacity="0.95"/><polyline fill="none" stroke="#5099bb" stroke-width="4" stroke-linecap="round" stroke-linejoin="round" points="90.0,473.3 97.4,409.6 104.7,401.9 112.1,404.0 119.5,402.6 126.9,399.4 134.2,395.8 141.6,392.0 149.0,390.7 156.4,387.4 163.7,383.4 171.1,382.3 178.5,380.1 185.9,375.6 193.2,374.5 200.6,367.2 208.0,369.8 215.4,367.3 222.7,368.0 230.1,367.0 237.5,361.2 244.8,354.8 252.2,354.7 259.6,353.8 267.0,347.5 274.3,344.6 281.7,342.1 289.1,337.4 296.5,334.7 303.8,333.9 311.2,331.2 318.6,326.2 326.0,322.8 333.3,320.2 340.7,316.4 348.1,316.7 355.5,312.6 362.8,313.8 370.2,306.3 377.6,305.7 384.9,301.2 392.3,305.7 399.7,296.9 407.1,289.8 414.4,286.8 421.8,278.4 429.2,282.1 436.6,280.9 443.9,276.4 451.3,273.1 458.7,273.3 466.1,265.8 473.4,264.6 480.8,262.8 488.2,253.9 495.6,261.8 502.9,257.1 510.3,256.7 517.7,248.6 525.1,241.0 532.4,247.3 539.8,242.7 547.2,232.1 554.5,239.7 561.9,228.0 569.3,229.6 576.7,226.6 584.0,224.3 591.4,220.7 598.8,219.2 606.2,219.4 613.5,209.1 620.9,194.2 628.3,198.9 635.7,195.7 643.0,199.0 650.4,195.6 657.8,182.3 665.2,183.0 672.5,185.4 679.9,179.9 687.3,177.8 694.6,181.7 702.0,176.0 709.4,170.3 716.8,171.5 724.1,172.5 731.5,169.4 738.9,165.7 746.3,157.8 753.6,148.6 761.0,149.4 768.4,141.1 775.8,143.0 783.1,148.2 790.5,142.7 797.9,137.2 805.3,65.2 812.6,130.8 820.0,130.8"/><circle cx="90.0" cy="473.3" r="4.5" fill="#5099bb" fill-opacity="0.95"/><circle cx="97.4" cy="409.6" r="4.5" fill="#5099bb" fill-opacity="0.95"/><circle cx="104.7" cy="401.9" r="4.5" fill="#5099bb" fill-opacity="0.95"/><circle cx="112.1" cy="404.0" r="4.5" fill="#5099bb" fill-opacity="0.95"/><circle cx="119.5" cy="402.6" r="4.5" fill="#5099bb" fill-opacity="0.95"/><circle cx="126.9" cy="399.4" r="4.5" fill="#5099bb" fill-opacity="0.95"/><circle cx="134.2" cy="395.8" r="4.5" fill="#5099bb" fill-opacity="0.95"/><circle cx="141.6" cy="392.0" r="4.5" fill="#5099bb" fill-opacity="0.95"/><circle cx="149.0" cy="390.7" r="4.5" fill="#5099bb" fill-opacity="0.95"/><circle cx="156.4" cy="387.4" r="4.5" fill="#5099bb" fill-opacity="0.95"/><circle cx="163.7" cy="383.4" r="4.5" fill="#5099bb" fill-opacity="0.95"/><circle cx="171.1" cy="382.3" r="4.5" fill="#5099bb" fill-opacity="0.95"/><circle cx="178.5" cy="380.1" r="4.5" fill="#5099bb" fill-opacity="0.95"/><circle cx="185.9" cy="375.6" r="4.5" fill="#5099bb" fill-opacity="0.95"/><circle cx="193.2" cy="374.5" r="4.5" fill="#5099bb" fill-opacity="0.95"/><circle cx="200.6" cy="367.2" r="4.5" fill="#5099bb" fill-opacity="0.95"/><circle cx="208.0" cy="369.8" r="4.5" fill="#5099bb" fill-opacity="0.95"/><circle cx="215.4" cy="367.3" r="4.5" fill="#5099bb" fill-opacity="0.95"/><circle cx="222.7" cy="368.0" r="4.5" fill="#5099bb" fill-opacity="0.95"/><circle cx="230.1" cy="367.0" r="4.5" fill="#5099bb" fill-opacity="0.95"/><circle cx="237.5" cy="361.2" r="4.5" fill="#5099bb" fill-opacity="0.95"/><circle cx="244.8" cy="354.8" r="4.5" fill="#5099bb" fill-opacity="0.95"/><circle cx="252.2" cy="354.7" r="4.5" fill="#5099bb" fill-opacity="0.95"/><circle cx="259.6" cy="353.8" r="4.5" fill="#5099bb" fill-opacity="0.95"/><circle cx="267.0" cy="347.5" r="4.5" fill="#5099bb" fill-opacity="0.95"/><circle cx="274.3" cy="344.6" r="4.5" fill="#5099bb" fill-opacity="0.95"/><circle cx="281.7" cy="342.1" r="4.5" fill="#5099bb" fill-opacity="0.95"/><circle cx="289.1" cy="337.4" r="4.5" fill="#5099bb" fill-opacity="0.95"/><circle cx="296.5" cy="334.7" r="4.5" fill="#5099bb" fill-opacity="0.95"/><circle cx="303.8" cy="333.9" r="4.5" fill="#5099bb" fill-opacity="0.95"/><circle cx="311.2" cy="331.2" r="4.5" fill="#5099bb" fill-opacity="0.95"/><circle cx="318.6" cy="326.2" r="4.5" fill="#5099bb" fill-opacity="0.95"/><circle cx="326.0" cy="322.8" r="4.5" fill="#5099bb" fill-opacity="0.95"/><circle cx="333.3" cy="320.2" r="4.5" fill="#5099bb" fill-opacity="0.95"/><circle cx="340.7" cy="316.4" r="4.5" fill="#5099bb" fill-opacity="0.95"/><circle cx="348.1" cy="316.7" r="4.5" fill="#5099bb" fill-opacity="0.95"/><circle cx="355.5" cy="312.6" r="4.5" fill="#5099bb" fill-opacity="0.95"/><circle cx="362.8" cy="313.8" r="4.5" fill="#5099bb" fill-opacity="0.95"/><circle cx="370.2" cy="306.3" r="4.5" fill="#5099bb" fill-opacity="0.95"/><circle cx="377.6" cy="305.7" r="4.5" fill="#5099bb" fill-opacity="0.95"/><circle cx="384.9" cy="301.2" r="4.5" fill="#5099bb" fill-opacity="0.95"/><circle cx="392.3" cy="305.7" r="4.5" fill="#5099bb" fill-opacity="0.95"/><circle cx="399.7" cy="296.9" r="4.5" fill="#5099bb" fill-opacity="0.95"/><circle cx="407.1" cy="289.8" r="4.5" fill="#5099bb" fill-opacity="0.95"/><circle cx="414.4" cy="286.8" r="4.5" fill="#5099bb" fill-opacity="0.95"/><circle cx="421.8" cy="278.4" r="4.5" fill="#5099bb" fill-opacity="0.95"/><circle cx="429.2" cy="282.1" r="4.5" fill="#5099bb" fill-opacity="0.95"/><circle cx="436.6" cy="280.9" r="4.5" fill="#5099bb" fill-opacity="0.95"/><circle cx="443.9" cy="276.4" r="4.5" fill="#5099bb" fill-opacity="0.95"/><circle cx="451.3" cy="273.1" r="4.5" fill="#5099bb" fill-opacity="0.95"/><circle cx="458.7" cy="273.3" r="4.5" fill="#5099bb" fill-opacity="0.95"/><circle cx="466.1" cy="265.8" r="4.5" fill="#5099bb" fill-opacity="0.95"/><circle cx="473.4" cy="264.6" r="4.5" fill="#5099bb" fill-opacity="0.95"/><circle cx="480.8" cy="262.8" r="4.5" fill="#5099bb" fill-opacity="0.95"/><circle cx="488.2" cy="253.9" r="4.5" fill="#5099bb" fill-opacity="0.95"/><circle cx="495.6" cy="261.8" r="4.5" fill="#5099bb" fill-opacity="0.95"/><circle cx="502.9" cy="257.1" r="4.5" fill="#5099bb" fill-opacity="0.95"/><circle cx="510.3" cy="256.7" r="4.5" fill="#5099bb" fill-opacity="0.95"/><circle cx="517.7" cy="248.6" r="4.5" fill="#5099bb" fill-opacity="0.95"/><circle cx="525.1" cy="241.0" r="4.5" fill="#5099bb" fill-opacity="0.95"/><circle cx="532.4" cy="247.3" r="4.5" fill="#5099bb" fill-opacity="0.95"/><circle cx="539.8" cy="242.7" r="4.5" fill="#5099bb" fill-opacity="0.95"/><circle cx="547.2" cy="232.1" r="4.5" fill="#5099bb" fill-opacity="0.95"/><circle cx="554.5" cy="239.7" r="4.5" fill="#5099bb" fill-opacity="0.95"/><circle cx="561.9" cy="228.0" r="4.5" fill="#5099bb" fill-opacity="0.95"/><circle cx="569.3" cy="229.6" r="4.5" fill="#5099bb" fill-opacity="0.95"/><circle cx="576.7" cy="226.6" r="4.5" fill="#5099bb" fill-opacity="0.95"/><circle cx="584.0" cy="224.3" r="4.5" fill="#5099bb" fill-opacity="0.95"/><circle cx="591.4" cy="220.7" r="4.5" fill="#5099bb" fill-opacity="0.95"/><circle cx="598.8" cy="219.2" r="4.5" fill="#5099bb" fill-opacity="0.95"/><circle cx="606.2" cy="219.4" r="4.5" fill="#5099bb" fill-opacity="0.95"/><circle cx="613.5" cy="209.1" r="4.5" fill="#5099bb" fill-opacity="0.95"/><circle cx="620.9" cy="194.2" r="4.5" fill="#5099bb" fill-opacity="0.95"/><circle cx="628.3" cy="198.9" r="4.5" fill="#5099bb" fill-opacity="0.95"/><circle cx="635.7" cy="195.7" r="4.5" fill="#5099bb" fill-opacity="0.95"/><circle cx="643.0" cy="199.0" r="4.5" fill="#5099bb" fill-opacity="0.95"/><circle cx="650.4" cy="195.6" r="4.5" fill="#5099bb" fill-opacity="0.95"/><circle cx="657.8" cy="182.3" r="4.5" fill="#5099bb" fill-opacity="0.95"/><circle cx="665.2" cy="183.0" r="4.5" fill="#5099bb" fill-opacity="0.95"/><circle cx="672.5" cy="185.4" r="4.5" fill="#5099bb" fill-opacity="0.95"/><circle cx="679.9" cy="179.9" r="4.5" fill="#5099bb" fill-opacity="0.95"/><circle cx="687.3" cy="177.8" r="4.5" fill="#5099bb" fill-opacity="0.95"/><circle cx="694.6" cy="181.7" r="4.5" fill="#5099bb" fill-opacity="0.95"/><circle cx="702.0" cy="176.0" r="4.5" fill="#5099bb" fill-opacity="0.95"/><circle cx="709.4" cy="170.3" r="4.5" fill="#5099bb" fill-opacity="0.95"/><circle cx="716.8" cy="171.5" r="4.5" fill="#5099bb" fill-opacity="0.95"/><circle cx="724.1" cy="172.5" r="4.5" fill="#5099bb" fill-opacity="0.95"/><circle cx="731.5" cy="169.4" r="4.5" fill="#5099bb" fill-opacity="0.95"/><circle cx="738.9" cy="165.7" r="4.5" fill="#5099bb" fill-opacity="0.95"/><circle cx="746.3" cy="157.8" r="4.5" fill="#5099bb" fill-opacity="0.95"/><circle cx="753.6" cy="148.6" r="4.5" fill="#5099bb" fill-opacity="0.95"/><circle cx="761.0" cy="149.4" r="4.5" fill="#5099bb" fill-opacity="0.95"/><circle cx="768.4" cy="141.1" r="4.5" fill="#5099bb" fill-opacity="0.95"/><circle cx="775.8" cy="143.0" r="4.5" fill="#5099bb" fill-opacity="0.95"/><circle cx="783.1" cy="148.2" r="4.5" fill="#5099bb" fill-opacity="0.95"/><circle cx="790.5" cy="142.7" r="4.5" fill="#5099bb" fill-opacity="0.95"/><circle cx="797.9" cy="137.2" r="4.5" fill="#5099bb" fill-opacity="0.95"/><circle cx="805.3" cy="65.2" r="4.5" fill="#5099bb" fill-opacity="0.95"/><circle cx="812.6" cy="130.8" r="4.5" fill="#5099bb" fill-opacity="0.95"/><circle cx="820.0" cy="130.8" r="4.5" fill="#5099bb" fill-opacity="0.95"/><polyline fill="none" stroke="#483f9a" stroke-width="4" stroke-linecap="round" stroke-linejoin="round" points="90.0,472.8 97.4,397.4 104.7,390.7 112.1,394.3 119.5,391.3 126.9,386.9 134.2,386.4 141.6,381.3 149.0,378.2 156.4,375.6 163.7,375.0 171.1,369.8 178.5,367.6 185.9,365.8 193.2,363.3 200.6,361.7 208.0,358.9 215.4,357.2 222.7,354.6 230.1,346.5 237.5,351.7 244.8,346.9 252.2,345.5 259.6,338.2 267.0,337.9 274.3,337.2 281.7,334.4 289.1,326.3 296.5,326.1 303.8,323.8 311.2,321.1 318.6,316.2 326.0,314.7 333.3,307.7 340.7,307.9 348.1,306.8 355.5,235.4 362.8,299.1 370.2,295.8 377.6,295.4 384.9,292.0 392.3,290.2 399.7,284.8 407.1,281.2 414.4,277.1 421.8,279.7 429.2,278.5 436.6,273.2 443.9,273.0 451.3,266.7 458.7,258.2 466.1,257.8 473.4,253.9 480.8,245.3 488.2,252.7 495.6,250.2 502.9,245.7 510.3,240.9 517.7,238.8 525.1,239.3 532.4,238.6 539.8,229.1 547.2,229.3 554.5,229.7 561.9,226.5 569.3,220.0 576.7,220.6 584.0,212.7 591.4,209.4 598.8,206.1 606.2,203.5 613.5,200.9 620.9,193.0 628.3,195.0 635.7,189.7 643.0,185.0 650.4,183.4 657.8,177.0 665.2,178.2 672.5,170.7 679.9,169.2 687.3,164.5 694.6,161.2 702.0,162.3 709.4,155.3 716.8,156.6 724.1,155.0 731.5,153.8 738.9,139.7 746.3,143.6 753.6,135.7 761.0,141.1 768.4,136.8 775.8,125.4 783.1,128.4 790.5,123.2 797.9,126.6 805.3,113.9 812.6,119.9 820.0,111.2"/><circle cx="90.0" cy="472.8" r="4.5" fill="#483f9a" fill-opacity="0.95"/><circle cx="97.4" cy="397.4" r="4.5" fill="#483f9a" fill-opacity="0.95"/><circle cx="104.7" cy="390.7" r="4.5" fill="#483f9a" fill-opacity="0.95"/><circle cx="112.1" cy="394.3" r="4.5" fill="#483f9a" fill-opacity="0.95"/><circle cx="119.5" cy="391.3" r="4.5" fill="#483f9a" fill-opacity="0.95"/><circle cx="126.9" cy="386.9" r="4.5" fill="#483f9a" fill-opacity="0.95"/><circle cx="134.2" cy="386.4" r="4.5" fill="#483f9a" fill-opacity="0.95"/><circle cx="141.6" cy="381.3" r="4.5" fill="#483f9a" fill-opacity="0.95"/><circle cx="149.0" cy="378.2" r="4.5" fill="#483f9a" fill-opacity="0.95"/><circle cx="156.4" cy="375.6" r="4.5" fill="#483f9a" fill-opacity="0.95"/><circle cx="163.7" cy="375.0" r="4.5" fill="#483f9a" fill-opacity="0.95"/><circle cx="171.1" cy="369.8" r="4.5" fill="#483f9a" fill-opacity="0.95"/><circle cx="178.5" cy="367.6" r="4.5" fill="#483f9a" fill-opacity="0.95"/><circle cx="185.9" cy="365.8" r="4.5" fill="#483f9a" fill-opacity="0.95"/><circle cx="193.2" cy="363.3" r="4.5" fill="#483f9a" fill-opacity="0.95"/><circle cx="200.6" cy="361.7" r="4.5" fill="#483f9a" fill-opacity="0.95"/><circle cx="208.0" cy="358.9" r="4.5" fill="#483f9a" fill-opacity="0.95"/><circle cx="215.4" cy="357.2" r="4.5" fill="#483f9a" fill-opacity="0.95"/><circle cx="222.7" cy="354.6" r="4.5" fill="#483f9a" fill-opacity="0.95"/><circle cx="230.1" cy="346.5" r="4.5" fill="#483f9a" fill-opacity="0.95"/><circle cx="237.5" cy="351.7" r="4.5" fill="#483f9a" fill-opacity="0.95"/><circle cx="244.8" cy="346.9" r="4.5" fill="#483f9a" fill-opacity="0.95"/><circle cx="252.2" cy="345.5" r="4.5" fill="#483f9a" fill-opacity="0.95"/><circle cx="259.6" cy="338.2" r="4.5" fill="#483f9a" fill-opacity="0.95"/><circle cx="267.0" cy="337.9" r="4.5" fill="#483f9a" fill-opacity="0.95"/><circle cx="274.3" cy="337.2" r="4.5" fill="#483f9a" fill-opacity="0.95"/><circle cx="281.7" cy="334.4" r="4.5" fill="#483f9a" fill-opacity="0.95"/><circle cx="289.1" cy="326.3" r="4.5" fill="#483f9a" fill-opacity="0.95"/><circle cx="296.5" cy="326.1" r="4.5" fill="#483f9a" fill-opacity="0.95"/><circle cx="303.8" cy="323.8" r="4.5" fill="#483f9a" fill-opacity="0.95"/><circle cx="311.2" cy="321.1" r="4.5" fill="#483f9a" fill-opacity="0.95"/><circle cx="318.6" cy="316.2" r="4.5" fill="#483f9a" fill-opacity="0.95"/><circle cx="326.0" cy="314.7" r="4.5" fill="#483f9a" fill-opacity="0.95"/><circle cx="333.3" cy="307.7" r="4.5" fill="#483f9a" fill-opacity="0.95"/><circle cx="340.7" cy="307.9" r="4.5" fill="#483f9a" fill-opacity="0.95"/><circle cx="348.1" cy="306.8" r="4.5" fill="#483f9a" fill-opacity="0.95"/><circle cx="355.5" cy="235.4" r="4.5" fill="#483f9a" fill-opacity="0.95"/><circle cx="362.8" cy="299.1" r="4.5" fill="#483f9a" fill-opacity="0.95"/><circle cx="370.2" cy="295.8" r="4.5" fill="#483f9a" fill-opacity="0.95"/><circle cx="377.6" cy="295.4" r="4.5" fill="#483f9a" fill-opacity="0.95"/><circle cx="384.9" cy="292.0" r="4.5" fill="#483f9a" fill-opacity="0.95"/><circle cx="392.3" cy="290.2" r="4.5" fill="#483f9a" fill-opacity="0.95"/><circle cx="399.7" cy="284.8" r="4.5" fill="#483f9a" fill-opacity="0.95"/><circle cx="407.1" cy="281.2" r="4.5" fill="#483f9a" fill-opacity="0.95"/><circle cx="414.4" cy="277.1" r="4.5" fill="#483f9a" fill-opacity="0.95"/><circle cx="421.8" cy="279.7" r="4.5" fill="#483f9a" fill-opacity="0.95"/><circle cx="429.2" cy="278.5" r="4.5" fill="#483f9a" fill-opacity="0.95"/><circle cx="436.6" cy="273.2" r="4.5" fill="#483f9a" fill-opacity="0.95"/><circle cx="443.9" cy="273.0" r="4.5" fill="#483f9a" fill-opacity="0.95"/><circle cx="451.3" cy="266.7" r="4.5" fill="#483f9a" fill-opacity="0.95"/><circle cx="458.7" cy="258.2" r="4.5" fill="#483f9a" fill-opacity="0.95"/><circle cx="466.1" cy="257.8" r="4.5" fill="#483f9a" fill-opacity="0.95"/><circle cx="473.4" cy="253.9" r="4.5" fill="#483f9a" fill-opacity="0.95"/><circle cx="480.8" cy="245.3" r="4.5" fill="#483f9a" fill-opacity="0.95"/><circle cx="488.2" cy="252.7" r="4.5" fill="#483f9a" fill-opacity="0.95"/><circle cx="495.6" cy="250.2" r="4.5" fill="#483f9a" fill-opacity="0.95"/><circle cx="502.9" cy="245.7" r="4.5" fill="#483f9a" fill-opacity="0.95"/><circle cx="510.3" cy="240.9" r="4.5" fill="#483f9a" fill-opacity="0.95"/><circle cx="517.7" cy="238.8" r="4.5" fill="#483f9a" fill-opacity="0.95"/><circle cx="525.1" cy="239.3" r="4.5" fill="#483f9a" fill-opacity="0.95"/><circle cx="532.4" cy="238.6" r="4.5" fill="#483f9a" fill-opacity="0.95"/><circle cx="539.8" cy="229.1" r="4.5" fill="#483f9a" fill-opacity="0.95"/><circle cx="547.2" cy="229.3" r="4.5" fill="#483f9a" fill-opacity="0.95"/><circle cx="554.5" cy="229.7" r="4.5" fill="#483f9a" fill-opacity="0.95"/><circle cx="561.9" cy="226.5" r="4.5" fill="#483f9a" fill-opacity="0.95"/><circle cx="569.3" cy="220.0" r="4.5" fill="#483f9a" fill-opacity="0.95"/><circle cx="576.7" cy="220.6" r="4.5" fill="#483f9a" fill-opacity="0.95"/><circle cx="584.0" cy="212.7" r="4.5" fill="#483f9a" fill-opacity="0.95"/><circle cx="591.4" cy="209.4" r="4.5" fill="#483f9a" fill-opacity="0.95"/><circle cx="598.8" cy="206.1" r="4.5" fill="#483f9a" fill-opacity="0.95"/><circle cx="606.2" cy="203.5" r="4.5" fill="#483f9a" fill-opacity="0.95"/><circle cx="613.5" cy="200.9" r="4.5" fill="#483f9a" fill-opacity="0.95"/><circle cx="620.9" cy="193.0" r="4.5" fill="#483f9a" fill-opacity="0.95"/><circle cx="628.3" cy="195.0" r="4.5" fill="#483f9a" fill-opacity="0.95"/><circle cx="635.7" cy="189.7" r="4.5" fill="#483f9a" fill-opacity="0.95"/><circle cx="643.0" cy="185.0" r="4.5" fill="#483f9a" fill-opacity="0.95"/><circle cx="650.4" cy="183.4" r="4.5" fill="#483f9a" fill-opacity="0.95"/><circle cx="657.8" cy="177.0" r="4.5" fill="#483f9a" fill-opacity="0.95"/><circle cx="665.2" cy="178.2" r="4.5" fill="#483f9a" fill-opacity="0.95"/><circle cx="672.5" cy="170.7" r="4.5" fill="#483f9a" fill-opacity="0.95"/><circle cx="679.9" cy="169.2" r="4.5" fill="#483f9a" fill-opacity="0.95"/><circle cx="687.3" cy="164.5" r="4.5" fill="#483f9a" fill-opacity="0.95"/><circle cx="694.6" cy="161.2" r="4.5" fill="#483f9a" fill-opacity="0.95"/><circle cx="702.0" cy="162.3" r="4.5" fill="#483f9a" fill-opacity="0.95"/><circle cx="709.4" cy="155.3" r="4.5" fill="#483f9a" fill-opacity="0.95"/><circle cx="716.8" cy="156.6" r="4.5" fill="#483f9a" fill-opacity="0.95"/><circle cx="724.1" cy="155.0" r="4.5" fill="#483f9a" fill-opacity="0.95"/><circle cx="731.5" cy="153.8" r="4.5" fill="#483f9a" fill-opacity="0.95"/><circle cx="738.9" cy="139.7" r="4.5" fill="#483f9a" fill-opacity="0.95"/><circle cx="746.3" cy="143.6" r="4.5" fill="#483f9a" fill-opacity="0.95"/><circle cx="753.6" cy="135.7" r="4.5" fill="#483f9a" fill-opacity="0.95"/><circle cx="761.0" cy="141.1" r="4.5" fill="#483f9a" fill-opacity="0.95"/><circle cx="768.4" cy="136.8" r="4.5" fill="#483f9a" fill-opacity="0.95"/><circle cx="775.8" cy="125.4" r="4.5" fill="#483f9a" fill-opacity="0.95"/><circle cx="783.1" cy="128.4" r="4.5" fill="#483f9a" fill-opacity="0.95"/><circle cx="790.5" cy="123.2" r="4.5" fill="#483f9a" fill-opacity="0.95"/><circle cx="797.9" cy="126.6" r="4.5" fill="#483f9a" fill-opacity="0.95"/><circle cx="805.3" cy="113.9" r="4.5" fill="#483f9a" fill-opacity="0.95"/><circle cx="812.6" cy="119.9" r="4.5" fill="#483f9a" fill-opacity="0.95"/><circle cx="820.0" cy="111.2" r="4.5" fill="#483f9a" fill-opacity="0.95"/>
  <rect x="830" y="38" width="180" height="122" rx="14" fill="#fffdfa" stroke="#d7d1cb" stroke-width="1.2"/><line x1="846" y1="62" x2="880" y2="62" stroke="#79d1b0" stroke-width="4" stroke-linecap="round"/><circle cx="863" cy="62" r="4.5" fill="#79d1b0"/><text x="894" y="69" font-size="21" font-family="Helvetica, Arial, sans-serif" fill="#2e2a28">2B</text><line x1="846" y1="96" x2="880" y2="96" stroke="#5099bb" stroke-width="4" stroke-linecap="round"/><circle cx="863" cy="96" r="4.5" fill="#5099bb"/><text x="894" y="103" font-size="21" font-family="Helvetica, Arial, sans-serif" fill="#2e2a28">4B</text><line x1="846" y1="130" x2="880" y2="130" stroke="#483f9a" stroke-width="4" stroke-linecap="round"/><circle cx="863" cy="130" r="4.5" fill="#483f9a"/><text x="894" y="137" font-size="21" font-family="Helvetica, Arial, sans-serif" fill="#2e2a28">8B</text>
  <text x="90.0" y="512" text-anchor="middle" font-size="18" font-family="Helvetica, Arial, sans-serif" fill="#6f6762">1</text><text x="156.4" y="512" text-anchor="middle" font-size="18" font-family="Helvetica, Arial, sans-serif" fill="#6f6762">10</text><text x="267.0" y="512" text-anchor="middle" font-size="18" font-family="Helvetica, Arial, sans-serif" fill="#6f6762">25</text><text x="451.3" y="512" text-anchor="middle" font-size="18" font-family="Helvetica, Arial, sans-serif" fill="#6f6762">50</text><text x="635.7" y="512" text-anchor="middle" font-size="18" font-family="Helvetica, Arial, sans-serif" fill="#6f6762">75</text><text x="820.0" y="512" text-anchor="middle" font-size="18" font-family="Helvetica, Arial, sans-serif" fill="#6f6762">100</text>
  <text x="76" y="486.0" text-anchor="end" font-size="18" font-family="Helvetica, Arial, sans-serif" fill="#6f6762">0.00</text><text x="76" y="407.1" text-anchor="end" font-size="18" font-family="Helvetica, Arial, sans-serif" fill="#6f6762">0.25</text><text x="76" y="328.2" text-anchor="end" font-size="18" font-family="Helvetica, Arial, sans-serif" fill="#6f6762">0.50</text><text x="76" y="249.4" text-anchor="end" font-size="18" font-family="Helvetica, Arial, sans-serif" fill="#6f6762">0.75</text><text x="76" y="170.5" text-anchor="end" font-size="18" font-family="Helvetica, Arial, sans-serif" fill="#6f6762">1.0</text><text x="76" y="91.6" text-anchor="end" font-size="18" font-family="Helvetica, Arial, sans-serif" fill="#6f6762">1.2</text><text x="76" y="12.7" text-anchor="end" font-size="18" font-family="Helvetica, Arial, sans-serif" fill="#6f6762">1.5</text>
  <text x="455.0" y="538" text-anchor="middle" font-size="20" font-family="Helvetica, Arial, sans-serif" fill="#2e2a28">Context Size</text>
  <g transform="translate(24 256.0) rotate(-90)">
    <text text-anchor="middle" font-size="20" font-family="Helvetica, Arial, sans-serif" fill="#2e2a28">TTFT (seconds)</text>
  </g>
</svg>
