<svg xmlns="http://www.w3.org/2000/svg" width="1040" height="640" viewBox="0 0 1040 640">
  <rect width="1040" height="640" fill="#fffdfa"/>
  <text x="90" y="38" font-size="28" font-weight="700" font-family="Helvetica, Arial, sans-serif" fill="#2e2a28">30B-A3B MoE vs 32B Dense on 2x H100</text>
  <text x="90" y="62" font-size="16" font-family="Helvetica, Arial, sans-serif" fill="#6f6762">Local TTFT across context sizes 1..100 under the same tensor-parallel setup.</text>
  <line x1="90.0" y1="70" x2="90.0" y2="560" stroke="#d7d1cb" stroke-width="1"/><line x1="156.4" y1="70" x2="156.4" y2="560" stroke="#d7d1cb" stroke-width="1"/><line x1="267.0" y1="70" x2="267.0" y2="560" stroke="#d7d1cb" stroke-width="1"/><line x1="451.3" y1="70" x2="451.3" y2="560" stroke="#d7d1cb" stroke-width="1"/><line x1="635.7" y1="70" x2="635.7" y2="560" stroke="#d7d1cb" stroke-width="1"/><line x1="820.0" y1="70" x2="820.0" y2="560" stroke="#d7d1cb" stroke-width="1"/><line x1="90" y1="560.0" x2="820" y2="560.0" stroke="#d7d1cb" stroke-width="1"/><line x1="90" y1="446.7" x2="820" y2="446.7" stroke="#d7d1cb" stroke-width="1"/><line x1="90" y1="333.3" x2="820" y2="333.3" stroke="#d7d1cb" stroke-width="1"/><line x1="90" y1="220.0" x2="820" y2="220.0" stroke="#d7d1cb" stroke-width="1"/><line x1="90" y1="106.7" x2="820" y2="106.7" stroke="#d7d1cb" stroke-width="1"/>
  <line x1="90" y1="560" x2="820" y2="560" stroke="#3f3a37" stroke-width="2"/>
  <line x1="90" y1="70" x2="90" y2="560" stroke="#3f3a37" stroke-width="2"/>
  <polyline fill="none" stroke="#456eb4" stroke-width="4" stroke-linecap="round" stroke-linejoin="round" points="90.0,555.5 97.4,527.7 104.7,535.0 112.1,531.7 119.5,529.0 126.9,525.3 134.2,521.8 141.6,515.6 149.0,511.4 156.4,508.8 163.7,510.1 171.1,502.1 178.5,494.6 185.9,491.8 193.2,483.1 200.6,484.6 208.0,480.6 215.4,477.8 222.7,467.8 230.1,483.1 237.5,467.8 244.8,463.9 252.2,451.8 259.6,450.4 267.0,475.6 274.3,446.3 281.7,434.2 289.1,434.1 296.5,431.8 303.8,428.6 311.2,422.3 318.6,414.4 326.0,417.1 333.3,413.1 340.7,439.1 348.1,401.2 355.5,438.5 362.8,398.0 370.2,385.7 377.6,371.5 384.9,431.8 392.3,376.8 399.7,374.5 407.1,423.0 414.4,363.2 421.8,359.7 429.2,416.6 436.6,346.8 443.9,355.5 451.3,351.5 458.7,338.4 466.1,347.8 473.4,386.2 480.8,334.5 488.2,325.2 495.6,329.3 502.9,327.9 510.3,311.7 517.7,368.4 525.1,303.6 532.4,278.5 539.8,354.8 547.2,273.1 554.5,280.5 561.9,286.1 569.3,259.2 576.7,258.6 584.0,337.3 591.4,262.9 598.8,248.6 606.2,341.0 613.5,258.9 620.9,234.7 628.3,325.3 635.7,234.1 643.0,232.7 650.4,318.1 657.8,221.7 665.2,232.6 672.5,206.2 679.9,215.5 687.3,220.5 694.6,261.3 702.0,201.4 709.4,199.5 716.8,279.3 724.1,183.9 731.5,171.9 738.9,275.4 746.3,160.1 753.6,176.2 761.0,267.1 768.4,128.1 775.8,152.5 783.1,233.1 790.5,143.9 797.9,139.3 805.3,136.7 812.6,151.6 820.0,139.6"/><circle cx="90.0" cy="555.5" r="4.5" fill="#456eb4" fill-opacity="0.95"/><circle cx="97.4" cy="527.7" r="4.5" fill="#456eb4" fill-opacity="0.95"/><circle cx="104.7" cy="535.0" r="4.5" fill="#456eb4" fill-opacity="0.95"/><circle cx="112.1" cy="531.7" r="4.5" fill="#456eb4" fill-opacity="0.95"/><circle cx="119.5" cy="529.0" r="4.5" fill="#456eb4" fill-opacity="0.95"/><circle cx="126.9" cy="525.3" r="4.5" fill="#456eb4" fill-opacity="0.95"/><circle cx="134.2" cy="521.8" r="4.5" fill="#456eb4" fill-opacity="0.95"/><circle cx="141.6" cy="515.6" r="4.5" fill="#456eb4" fill-opacity="0.95"/><circle cx="149.0" cy="511.4" r="4.5" fill="#456eb4" fill-opacity="0.95"/><circle cx="156.4" cy="508.8" r="4.5" fill="#456eb4" fill-opacity="0.95"/><circle cx="163.7" cy="510.1" r="4.5" fill="#456eb4" fill-opacity="0.95"/><circle cx="171.1" cy="502.1" r="4.5" fill="#456eb4" fill-opacity="0.95"/><circle cx="178.5" cy="494.6" r="4.5" fill="#456eb4" fill-opacity="0.95"/><circle cx="185.9" cy="491.8" r="4.5" fill="#456eb4" fill-opacity="0.95"/><circle cx="193.2" cy="483.1" r="4.5" fill="#456eb4" fill-opacity="0.95"/><circle cx="200.6" cy="484.6" r="4.5" fill="#456eb4" fill-opacity="0.95"/><circle cx="208.0" cy="480.6" r="4.5" fill="#456eb4" fill-opacity="0.95"/><circle cx="215.4" cy="477.8" r="4.5" fill="#456eb4" fill-opacity="0.95"/><circle cx="222.7" cy="467.8" r="4.5" fill="#456eb4" fill-opacity="0.95"/><circle cx="230.1" cy="483.1" r="4.5" fill="#456eb4" fill-opacity="0.95"/><circle cx="237.5" cy="467.8" r="4.5" fill="#456eb4" fill-opacity="0.95"/><circle cx="244.8" cy="463.9" r="4.5" fill="#456eb4" fill-opacity="0.95"/><circle cx="252.2" cy="451.8" r="4.5" fill="#456eb4" fill-opacity="0.95"/><circle cx="259.6" cy="450.4" r="4.5" fill="#456eb4" fill-opacity="0.95"/><circle cx="267.0" cy="475.6" r="4.5" fill="#456eb4" fill-opacity="0.95"/><circle cx="274.3" cy="446.3" r="4.5" fill="#456eb4" fill-opacity="0.95"/><circle cx="281.7" cy="434.2" r="4.5" fill="#456eb4" fill-opacity="0.95"/><circle cx="289.1" cy="434.1" r="4.5" fill="#456eb4" fill-opacity="0.95"/><circle cx="296.5" cy="431.8" r="4.5" fill="#456eb4" fill-opacity="0.95"/><circle cx="303.8" cy="428.6" r="4.5" fill="#456eb4" fill-opacity="0.95"/><circle cx="311.2" cy="422.3" r="4.5" fill="#456eb4" fill-opacity="0.95"/><circle cx="318.6" cy="414.4" r="4.5" fill="#456eb4" fill-opacity="0.95"/><circle cx="326.0" cy="417.1" r="4.5" fill="#456eb4" fill-opacity="0.95"/><circle cx="333.3" cy="413.1" r="4.5" fill="#456eb4" fill-opacity="0.95"/><circle cx="340.7" cy="439.1" r="4.5" fill="#456eb4" fill-opacity="0.95"/><circle cx="348.1" cy="401.2" r="4.5" fill="#456eb4" fill-opacity="0.95"/><circle cx="355.5" cy="438.5" r="4.5" fill="#456eb4" fill-opacity="0.95"/><circle cx="362.8" cy="398.0" r="4.5" fill="#456eb4" fill-opacity="0.95"/><circle cx="370.2" cy="385.7" r="4.5" fill="#456eb4" fill-opacity="0.95"/><circle cx="377.6" cy="371.5" r="4.5" fill="#456eb4" fill-opacity="0.95"/><circle cx="384.9" cy="431.8" r="4.5" fill="#456eb4" fill-opacity="0.95"/><circle cx="392.3" cy="376.8" r="4.5" fill="#456eb4" fill-opacity="0.95"/><circle cx="399.7" cy="374.5" r="4.5" fill="#456eb4" fill-opacity="0.95"/><circle cx="407.1" cy="423.0" r="4.5" fill="#456eb4" fill-opacity="0.95"/><circle cx="414.4" cy="363.2" r="4.5" fill="#456eb4" fill-opacity="0.95"/><circle cx="421.8" cy="359.7" r="4.5" fill="#456eb4" fill-opacity="0.95"/><circle cx="429.2" cy="416.6" r="4.5" fill="#456eb4" fill-opacity="0.95"/><circle cx="436.6" cy="346.8" r="4.5" fill="#456eb4" fill-opacity="0.95"/><circle cx="443.9" cy="355.5" r="4.5" fill="#456eb4" fill-opacity="0.95"/><circle cx="451.3" cy="351.5" r="4.5" fill="#456eb4" fill-opacity="0.95"/><circle cx="458.7" cy="338.4" r="4.5" fill="#456eb4" fill-opacity="0.95"/><circle cx="466.1" cy="347.8" r="4.5" fill="#456eb4" fill-opacity="0.95"/><circle cx="473.4" cy="386.2" r="4.5" fill="#456eb4" fill-opacity="0.95"/><circle cx="480.8" cy="334.5" r="4.5" fill="#456eb4" fill-opacity="0.95"/><circle cx="488.2" cy="325.2" r="4.5" fill="#456eb4" fill-opacity="0.95"/><circle cx="495.6" cy="329.3" r="4.5" fill="#456eb4" fill-opacity="0.95"/><circle cx="502.9" cy="327.9" r="4.5" fill="#456eb4" fill-opacity="0.95"/><circle cx="510.3" cy="311.7" r="4.5" fill="#456eb4" fill-opacity="0.95"/><circle cx="517.7" cy="368.4" r="4.5" fill="#456eb4" fill-opacity="0.95"/><circle cx="525.1" cy="303.6" r="4.5" fill="#456eb4" fill-opacity="0.95"/><circle cx="532.4" cy="278.5" r="4.5" fill="#456eb4" fill-opacity="0.95"/><circle cx="539.8" cy="354.8" r="4.5" fill="#456eb4" fill-opacity="0.95"/><circle cx="547.2" cy="273.1" r="4.5" fill="#456eb4" fill-opacity="0.95"/><circle cx="554.5" cy="280.5" r="4.5" fill="#456eb4" fill-opacity="0.95"/><circle cx="561.9" cy="286.1" r="4.5" fill="#456eb4" fill-opacity="0.95"/><circle cx="569.3" cy="259.2" r="4.5" fill="#456eb4" fill-opacity="0.95"/><circle cx="576.7" cy="258.6" r="4.5" fill="#456eb4" fill-opacity="0.95"/><circle cx="584.0" cy="337.3" r="4.5" fill="#456eb4" fill-opacity="0.95"/><circle cx="591.4" cy="262.9" r="4.5" fill="#456eb4" fill-opacity="0.95"/><circle cx="598.8" cy="248.6" r="4.5" fill="#456eb4" fill-opacity="0.95"/><circle cx="606.2" cy="341.0" r="4.5" fill="#456eb4" fill-opacity="0.95"/><circle cx="613.5" cy="258.9" r="4.5" fill="#456eb4" fill-opacity="0.95"/><circle cx="620.9" cy="234.7" r="4.5" fill="#456eb4" fill-opacity="0.95"/><circle cx="628.3" cy="325.3" r="4.5" fill="#456eb4" fill-opacity="0.95"/><circle cx="635.7" cy="234.1" r="4.5" fill="#456eb4" fill-opacity="0.95"/><circle cx="643.0" cy="232.7" r="4.5" fill="#456eb4" fill-opacity="0.95"/><circle cx="650.4" cy="318.1" r="4.5" fill="#456eb4" fill-opacity="0.95"/><circle cx="657.8" cy="221.7" r="4.5" fill="#456eb4" fill-opacity="0.95"/><circle cx="665.2" cy="232.6" r="4.5" fill="#456eb4" fill-opacity="0.95"/><circle cx="672.5" cy="206.2" r="4.5" fill="#456eb4" fill-opacity="0.95"/><circle cx="679.9" cy="215.5" r="4.5" fill="#456eb4" fill-opacity="0.95"/><circle cx="687.3" cy="220.5" r="4.5" fill="#456eb4" fill-opacity="0.95"/><circle cx="694.6" cy="261.3" r="4.5" fill="#456eb4" fill-opacity="0.95"/><circle cx="702.0" cy="201.4" r="4.5" fill="#456eb4" fill-opacity="0.95"/><circle cx="709.4" cy="199.5" r="4.5" fill="#456eb4" fill-opacity="0.95"/><circle cx="716.8" cy="279.3" r="4.5" fill="#456eb4" fill-opacity="0.95"/><circle cx="724.1" cy="183.9" r="4.5" fill="#456eb4" fill-opacity="0.95"/><circle cx="731.5" cy="171.9" r="4.5" fill="#456eb4" fill-opacity="0.95"/><circle cx="738.9" cy="275.4" r="4.5" fill="#456eb4" fill-opacity="0.95"/><circle cx="746.3" cy="160.1" r="4.5" fill="#456eb4" fill-opacity="0.95"/><circle cx="753.6" cy="176.2" r="4.5" fill="#456eb4" fill-opacity="0.95"/><circle cx="761.0" cy="267.1" r="4.5" fill="#456eb4" fill-opacity="0.95"/><circle cx="768.4" cy="128.1" r="4.5" fill="#456eb4" fill-opacity="0.95"/><circle cx="775.8" cy="152.5" r="4.5" fill="#456eb4" fill-opacity="0.95"/><circle cx="783.1" cy="233.1" r="4.5" fill="#456eb4" fill-opacity="0.95"/><circle cx="790.5" cy="143.9" r="4.5" fill="#456eb4" fill-opacity="0.95"/><circle cx="797.9" cy="139.3" r="4.5" fill="#456eb4" fill-opacity="0.95"/><circle cx="805.3" cy="136.7" r="4.5" fill="#456eb4" fill-opacity="0.95"/><circle cx="812.6" cy="151.6" r="4.5" fill="#456eb4" fill-opacity="0.95"/><circle cx="820.0" cy="139.6" r="4.5" fill="#456eb4" fill-opacity="0.95"/><polyline fill="none" stroke="#22192e" stroke-width="4" stroke-linecap="round" stroke-linejoin="round" points="90.0,555.8 97.4,535.5 104.7,531.0 112.1,528.4 119.5,522.8 126.9,518.2 134.2,516.3 141.6,510.9 149.0,506.3 156.4,504.1 163.7,498.4 171.1,496.2 178.5,490.4 185.9,486.9 193.2,482.5 200.6,466.9 208.0,474.3 215.4,471.0 222.7,460.3 230.1,454.4 237.5,458.5 244.8,448.3 252.2,450.8 259.6,447.0 267.0,428.0 274.3,428.7 281.7,400.4 289.1,385.2 296.5,401.8 303.8,415.1 311.2,405.9 318.6,401.3 326.0,393.0 333.3,390.3 340.7,385.2 348.1,392.2 355.5,364.5 362.8,368.2 370.2,360.6 377.6,359.5 384.9,345.0 392.3,345.9 399.7,363.2 407.1,341.7 414.4,333.5 421.8,321.9 429.2,296.4 436.6,299.0 443.9,295.6 451.3,279.0 458.7,273.5 466.1,267.4 473.4,256.0 480.8,255.2 488.2,245.3 495.6,234.3 502.9,232.7 510.3,220.8 517.7,281.6 525.1,264.7 532.4,277.0 539.8,274.2 547.2,262.6 554.5,250.5 561.9,253.6 569.3,228.8 576.7,239.5 584.0,250.0 591.4,252.6 598.8,246.6 606.2,230.2 613.5,226.1 620.9,230.5 628.3,216.9 635.7,215.9 643.0,210.1 650.4,201.8 657.8,210.0 665.2,206.0 672.5,197.6 679.9,194.6 687.3,186.0 694.6,185.7 702.0,166.5 709.4,171.2 716.8,183.5 724.1,237.9 731.5,164.9 738.9,157.0 746.3,151.8 753.6,144.2 761.0,149.0 768.4,127.8 775.8,140.4 783.1,129.8 790.5,124.2 797.9,106.3 805.3,114.0 812.6,106.6 820.0,110.4"/><circle cx="90.0" cy="555.8" r="4.5" fill="#22192e" fill-opacity="0.95"/><circle cx="97.4" cy="535.5" r="4.5" fill="#22192e" fill-opacity="0.95"/><circle cx="104.7" cy="531.0" r="4.5" fill="#22192e" fill-opacity="0.95"/><circle cx="112.1" cy="528.4" r="4.5" fill="#22192e" fill-opacity="0.95"/><circle cx="119.5" cy="522.8" r="4.5" fill="#22192e" fill-opacity="0.95"/><circle cx="126.9" cy="518.2" r="4.5" fill="#22192e" fill-opacity="0.95"/><circle cx="134.2" cy="516.3" r="4.5" fill="#22192e" fill-opacity="0.95"/><circle cx="141.6" cy="510.9" r="4.5" fill="#22192e" fill-opacity="0.95"/><circle cx="149.0" cy="506.3" r="4.5" fill="#22192e" fill-opacity="0.95"/><circle cx="156.4" cy="504.1" r="4.5" fill="#22192e" fill-opacity="0.95"/><circle cx="163.7" cy="498.4" r="4.5" fill="#22192e" fill-opacity="0.95"/><circle cx="171.1" cy="496.2" r="4.5" fill="#22192e" fill-opacity="0.95"/><circle cx="178.5" cy="490.4" r="4.5" fill="#22192e" fill-opacity="0.95"/><circle cx="185.9" cy="486.9" r="4.5" fill="#22192e" fill-opacity="0.95"/><circle cx="193.2" cy="482.5" r="4.5" fill="#22192e" fill-opacity="0.95"/><circle cx="200.6" cy="466.9" r="4.5" fill="#22192e" fill-opacity="0.95"/><circle cx="208.0" cy="474.3" r="4.5" fill="#22192e" fill-opacity="0.95"/><circle cx="215.4" cy="471.0" r="4.5" fill="#22192e" fill-opacity="0.95"/><circle cx="222.7" cy="460.3" r="4.5" fill="#22192e" fill-opacity="0.95"/><circle cx="230.1" cy="454.4" r="4.5" fill="#22192e" fill-opacity="0.95"/><circle cx="237.5" cy="458.5" r="4.5" fill="#22192e" fill-opacity="0.95"/><circle cx="244.8" cy="448.3" r="4.5" fill="#22192e" fill-opacity="0.95"/><circle cx="252.2" cy="450.8" r="4.5" fill="#22192e" fill-opacity="0.95"/><circle cx="259.6" cy="447.0" r="4.5" fill="#22192e" fill-opacity="0.95"/><circle cx="267.0" cy="428.0" r="4.5" fill="#22192e" fill-opacity="0.95"/><circle cx="274.3" cy="428.7" r="4.5" fill="#22192e" fill-opacity="0.95"/><circle cx="281.7" cy="400.4" r="4.5" fill="#22192e" fill-opacity="0.95"/><circle cx="289.1" cy="385.2" r="4.5" fill="#22192e" fill-opacity="0.95"/><circle cx="296.5" cy="401.8" r="4.5" fill="#22192e" fill-opacity="0.95"/><circle cx="303.8" cy="415.1" r="4.5" fill="#22192e" fill-opacity="0.95"/><circle cx="311.2" cy="405.9" r="4.5" fill="#22192e" fill-opacity="0.95"/><circle cx="318.6" cy="401.3" r="4.5" fill="#22192e" fill-opacity="0.95"/><circle cx="326.0" cy="393.0" r="4.5" fill="#22192e" fill-opacity="0.95"/><circle cx="333.3" cy="390.3" r="4.5" fill="#22192e" fill-opacity="0.95"/><circle cx="340.7" cy="385.2" r="4.5" fill="#22192e" fill-opacity="0.95"/><circle cx="348.1" cy="392.2" r="4.5" fill="#22192e" fill-opacity="0.95"/><circle cx="355.5" cy="364.5" r="4.5" fill="#22192e" fill-opacity="0.95"/><circle cx="362.8" cy="368.2" r="4.5" fill="#22192e" fill-opacity="0.95"/><circle cx="370.2" cy="360.6" r="4.5" fill="#22192e" fill-opacity="0.95"/><circle cx="377.6" cy="359.5" r="4.5" fill="#22192e" fill-opacity="0.95"/><circle cx="384.9" cy="345.0" r="4.5" fill="#22192e" fill-opacity="0.95"/><circle cx="392.3" cy="345.9" r="4.5" fill="#22192e" fill-opacity="0.95"/><circle cx="399.7" cy="363.2" r="4.5" fill="#22192e" fill-opacity="0.95"/><circle cx="407.1" cy="341.7" r="4.5" fill="#22192e" fill-opacity="0.95"/><circle cx="414.4" cy="333.5" r="4.5" fill="#22192e" fill-opacity="0.95"/><circle cx="421.8" cy="321.9" r="4.5" fill="#22192e" fill-opacity="0.95"/><circle cx="429.2" cy="296.4" r="4.5" fill="#22192e" fill-opacity="0.95"/><circle cx="436.6" cy="299.0" r="4.5" fill="#22192e" fill-opacity="0.95"/><circle cx="443.9" cy="295.6" r="4.5" fill="#22192e" fill-opacity="0.95"/><circle cx="451.3" cy="279.0" r="4.5" fill="#22192e" fill-opacity="0.95"/><circle cx="458.7" cy="273.5" r="4.5" fill="#22192e" fill-opacity="0.95"/><circle cx="466.1" cy="267.4" r="4.5" fill="#22192e" fill-opacity="0.95"/><circle cx="473.4" cy="256.0" r="4.5" fill="#22192e" fill-opacity="0.95"/><circle cx="480.8" cy="255.2" r="4.5" fill="#22192e" fill-opacity="0.95"/><circle cx="488.2" cy="245.3" r="4.5" fill="#22192e" fill-opacity="0.95"/><circle cx="495.6" cy="234.3" r="4.5" fill="#22192e" fill-opacity="0.95"/><circle cx="502.9" cy="232.7" r="4.5" fill="#22192e" fill-opacity="0.95"/><circle cx="510.3" cy="220.8" r="4.5" fill="#22192e" fill-opacity="0.95"/><circle cx="517.7" cy="281.6" r="4.5" fill="#22192e" fill-opacity="0.95"/><circle cx="525.1" cy="264.7" r="4.5" fill="#22192e" fill-opacity="0.95"/><circle cx="532.4" cy="277.0" r="4.5" fill="#22192e" fill-opacity="0.95"/><circle cx="539.8" cy="274.2" r="4.5" fill="#22192e" fill-opacity="0.95"/><circle cx="547.2" cy="262.6" r="4.5" fill="#22192e" fill-opacity="0.95"/><circle cx="554.5" cy="250.5" r="4.5" fill="#22192e" fill-opacity="0.95"/><circle cx="561.9" cy="253.6" r="4.5" fill="#22192e" fill-opacity="0.95"/><circle cx="569.3" cy="228.8" r="4.5" fill="#22192e" fill-opacity="0.95"/><circle cx="576.7" cy="239.5" r="4.5" fill="#22192e" fill-opacity="0.95"/><circle cx="584.0" cy="250.0" r="4.5" fill="#22192e" fill-opacity="0.95"/><circle cx="591.4" cy="252.6" r="4.5" fill="#22192e" fill-opacity="0.95"/><circle cx="598.8" cy="246.6" r="4.5" fill="#22192e" fill-opacity="0.95"/><circle cx="606.2" cy="230.2" r="4.5" fill="#22192e" fill-opacity="0.95"/><circle cx="613.5" cy="226.1" r="4.5" fill="#22192e" fill-opacity="0.95"/><circle cx="620.9" cy="230.5" r="4.5" fill="#22192e" fill-opacity="0.95"/><circle cx="628.3" cy="216.9" r="4.5" fill="#22192e" fill-opacity="0.95"/><circle cx="635.7" cy="215.9" r="4.5" fill="#22192e" fill-opacity="0.95"/><circle cx="643.0" cy="210.1" r="4.5" fill="#22192e" fill-opacity="0.95"/><circle cx="650.4" cy="201.8" r="4.5" fill="#22192e" fill-opacity="0.95"/><circle cx="657.8" cy="210.0" r="4.5" fill="#22192e" fill-opacity="0.95"/><circle cx="665.2" cy="206.0" r="4.5" fill="#22192e" fill-opacity="0.95"/><circle cx="672.5" cy="197.6" r="4.5" fill="#22192e" fill-opacity="0.95"/><circle cx="679.9" cy="194.6" r="4.5" fill="#22192e" fill-opacity="0.95"/><circle cx="687.3" cy="186.0" r="4.5" fill="#22192e" fill-opacity="0.95"/><circle cx="694.6" cy="185.7" r="4.5" fill="#22192e" fill-opacity="0.95"/><circle cx="702.0" cy="166.5" r="4.5" fill="#22192e" fill-opacity="0.95"/><circle cx="709.4" cy="171.2" r="4.5" fill="#22192e" fill-opacity="0.95"/><circle cx="716.8" cy="183.5" r="4.5" fill="#22192e" fill-opacity="0.95"/><circle cx="724.1" cy="237.9" r="4.5" fill="#22192e" fill-opacity="0.95"/><circle cx="731.5" cy="164.9" r="4.5" fill="#22192e" fill-opacity="0.95"/><circle cx="738.9" cy="157.0" r="4.5" fill="#22192e" fill-opacity="0.95"/><circle cx="746.3" cy="151.8" r="4.5" fill="#22192e" fill-opacity="0.95"/><circle cx="753.6" cy="144.2" r="4.5" fill="#22192e" fill-opacity="0.95"/><circle cx="761.0" cy="149.0" r="4.5" fill="#22192e" fill-opacity="0.95"/><circle cx="768.4" cy="127.8" r="4.5" fill="#22192e" fill-opacity="0.95"/><circle cx="775.8" cy="140.4" r="4.5" fill="#22192e" fill-opacity="0.95"/><circle cx="783.1" cy="129.8" r="4.5" fill="#22192e" fill-opacity="0.95"/><circle cx="790.5" cy="124.2" r="4.5" fill="#22192e" fill-opacity="0.95"/><circle cx="797.9" cy="106.3" r="4.5" fill="#22192e" fill-opacity="0.95"/><circle cx="805.3" cy="114.0" r="4.5" fill="#22192e" fill-opacity="0.95"/><circle cx="812.6" cy="106.6" r="4.5" fill="#22192e" fill-opacity="0.95"/><circle cx="820.0" cy="110.4" r="4.5" fill="#22192e" fill-opacity="0.95"/>
  <rect x="830" y="76" width="180" height="88" rx="14" fill="#fffdfa" stroke="#d7d1cb" stroke-width="1.2"/><line x1="846" y1="100" x2="880" y2="100" stroke="#456eb4" stroke-width="4" stroke-linecap="round"/><circle cx="863" cy="100" r="4.5" fill="#456eb4"/><text x="894" y="107" font-size="21" font-family="Helvetica, Arial, sans-serif" fill="#2e2a28">30B-A3B MoE</text><line x1="846" y1="134" x2="880" y2="134" stroke="#22192e" stroke-width="4" stroke-linecap="round"/><circle cx="863" cy="134" r="4.5" fill="#22192e"/><text x="894" y="141" font-size="21" font-family="Helvetica, Arial, sans-serif" fill="#2e2a28">32B Dense</text>
  <text x="90.0" y="592" text-anchor="middle" font-size="18" font-family="Helvetica, Arial, sans-serif" fill="#6f6762">1</text><text x="156.4" y="592" text-anchor="middle" font-size="18" font-family="Helvetica, Arial, sans-serif" fill="#6f6762">10</text><text x="267.0" y="592" text-anchor="middle" font-size="18" font-family="Helvetica, Arial, sans-serif" fill="#6f6762">25</text><text x="451.3" y="592" text-anchor="middle" font-size="18" font-family="Helvetica, Arial, sans-serif" fill="#6f6762">50</text><text x="635.7" y="592" text-anchor="middle" font-size="18" font-family="Helvetica, Arial, sans-serif" fill="#6f6762">75</text><text x="820.0" y="592" text-anchor="middle" font-size="18" font-family="Helvetica, Arial, sans-serif" fill="#6f6762">100</text>
  <text x="76" y="566.0" text-anchor="end" font-size="18" font-family="Helvetica, Arial, sans-serif" fill="#6f6762">0.00</text><text x="76" y="452.7" text-anchor="end" font-size="18" font-family="Helvetica, Arial, sans-serif" fill="#6f6762">2.0</text><text x="76" y="339.3" text-anchor="end" font-size="18" font-family="Helvetica, Arial, sans-serif" fill="#6f6762">4.0</text><text x="76" y="226.0" text-anchor="end" font-size="18" font-family="Helvetica, Arial, sans-serif" fill="#6f6762">6.0</text><text x="76" y="112.7" text-anchor="end" font-size="18" font-family="Helvetica, Arial, sans-serif" fill="#6f6762">8.0</text>
  <text x="455.0" y="618" text-anchor="middle" font-size="20" font-family="Helvetica, Arial, sans-serif" fill="#2e2a28">Context Size</text>
  <g transform="translate(24 315.0) rotate(-90)">
    <text text-anchor="middle" font-size="20" font-family="Helvetica, Arial, sans-serif" fill="#2e2a28">TTFT (seconds)</text>
  </g>
</svg>
