<svg xmlns="http://www.w3.org/2000/svg" width="1040" height="560" viewBox="0 0 1040 560">
  <rect width="1040" height="560" fill="#fffdfa"/>
  <line x1="90.0" y1="32" x2="90.0" y2="480" stroke="#d7d1cb" stroke-width="1"/><line x1="156.4" y1="32" x2="156.4" y2="480" stroke="#d7d1cb" stroke-width="1"/><line x1="267.0" y1="32" x2="267.0" y2="480" stroke="#d7d1cb" stroke-width="1"/><line x1="451.3" y1="32" x2="451.3" y2="480" stroke="#d7d1cb" stroke-width="1"/><line x1="635.7" y1="32" x2="635.7" y2="480" stroke="#d7d1cb" stroke-width="1"/><line x1="820.0" y1="32" x2="820.0" y2="480" stroke="#d7d1cb" stroke-width="1"/><line x1="90" y1="480.0" x2="820" y2="480.0" stroke="#d7d1cb" stroke-width="1"/><line x1="90" y1="391.9" x2="820" y2="391.9" stroke="#d7d1cb" stroke-width="1"/><line x1="90" y1="303.8" x2="820" y2="303.8" stroke="#d7d1cb" stroke-width="1"/><line x1="90" y1="215.7" x2="820" y2="215.7" stroke="#d7d1cb" stroke-width="1"/><line x1="90" y1="127.6" x2="820" y2="127.6" stroke="#d7d1cb" stroke-width="1"/><line x1="90" y1="39.5" x2="820" y2="39.5" stroke="#d7d1cb" stroke-width="1"/>
  <line x1="90" y1="480" x2="820" y2="480" stroke="#3f3a37" stroke-width="2"/>
  <line x1="90" y1="32" x2="90" y2="480" stroke="#3f3a37" stroke-width="2"/>
  <polyline fill="none" stroke="#79d1b0" stroke-width="4" stroke-linecap="round" stroke-linejoin="round" points="90.0,478.9 97.4,468.2 104.7,468.8 112.1,467.4 119.5,467.7 126.9,467.1 134.2,466.5 141.6,466.2 149.0,466.1 156.4,465.2 163.7,466.2 171.1,464.7 178.5,464.7 185.9,464.4 193.2,463.5 200.6,463.1 208.0,463.5 215.4,463.2 222.7,462.5 230.1,462.0 237.5,461.0 244.8,461.6 252.2,460.8 259.6,460.1 267.0,460.1 274.3,460.1 281.7,458.7 289.1,458.4 296.5,458.9 303.8,457.7 311.2,458.8 318.6,456.9 326.0,457.1 333.3,456.3 340.7,455.8 348.1,454.9 355.5,454.3 362.8,454.5 370.2,454.0 377.6,453.2 384.9,453.5 392.3,454.2 399.7,452.4 407.1,452.6 414.4,451.8 421.8,451.1 429.2,451.8 436.6,451.1 443.9,450.9 451.3,449.6 458.7,448.9 466.1,449.3 473.4,449.9 480.8,448.3 488.2,447.7 495.6,447.4 502.9,446.8 510.3,446.9 517.7,446.1 525.1,445.4 532.4,444.1 539.8,444.2 547.2,444.4 554.5,443.9 561.9,444.3 569.3,444.2 576.7,442.7 584.0,443.3 591.4,442.8 598.8,441.1 606.2,441.8 613.5,440.4 620.9,440.2 628.3,439.0 635.7,439.1 643.0,439.0 650.4,438.4 657.8,437.7 665.2,438.0 672.5,437.0 679.9,436.2 687.3,436.3 694.6,436.1 702.0,435.8 709.4,435.1 716.8,434.7 724.1,435.2 731.5,433.4 738.9,433.9 746.3,432.5 753.6,432.2 761.0,432.5 768.4,432.1 775.8,431.3 783.1,432.5 790.5,430.2 797.9,430.4 805.3,430.1 812.6,429.8 820.0,428.4"/><circle cx="90.0" cy="478.9" r="4.5" fill="#79d1b0" fill-opacity="0.95"/><circle cx="97.4" cy="468.2" r="4.5" fill="#79d1b0" fill-opacity="0.95"/><circle cx="104.7" cy="468.8" r="4.5" fill="#79d1b0" fill-opacity="0.95"/><circle cx="112.1" cy="467.4" r="4.5" fill="#79d1b0" fill-opacity="0.95"/><circle cx="119.5" cy="467.7" r="4.5" fill="#79d1b0" fill-opacity="0.95"/><circle cx="126.9" cy="467.1" r="4.5" fill="#79d1b0" fill-opacity="0.95"/><circle cx="134.2" cy="466.5" r="4.5" fill="#79d1b0" fill-opacity="0.95"/><circle cx="141.6" cy="466.2" r="4.5" fill="#79d1b0" fill-opacity="0.95"/><circle cx="149.0" cy="466.1" r="4.5" fill="#79d1b0" fill-opacity="0.95"/><circle cx="156.4" cy="465.2" r="4.5" fill="#79d1b0" fill-opacity="0.95"/><circle cx="163.7" cy="466.2" r="4.5" fill="#79d1b0" fill-opacity="0.95"/><circle cx="171.1" cy="464.7" r="4.5" fill="#79d1b0" fill-opacity="0.95"/><circle cx="178.5" cy="464.7" r="4.5" fill="#79d1b0" fill-opacity="0.95"/><circle cx="185.9" cy="464.4" r="4.5" fill="#79d1b0" fill-opacity="0.95"/><circle cx="193.2" cy="463.5" r="4.5" fill="#79d1b0" fill-opacity="0.95"/><circle cx="200.6" cy="463.1" r="4.5" fill="#79d1b0" fill-opacity="0.95"/><circle cx="208.0" cy="463.5" r="4.5" fill="#79d1b0" fill-opacity="0.95"/><circle cx="215.4" cy="463.2" r="4.5" fill="#79d1b0" fill-opacity="0.95"/><circle cx="222.7" cy="462.5" r="4.5" fill="#79d1b0" fill-opacity="0.95"/><circle cx="230.1" cy="462.0" r="4.5" fill="#79d1b0" fill-opacity="0.95"/><circle cx="237.5" cy="461.0" r="4.5" fill="#79d1b0" fill-opacity="0.95"/><circle cx="244.8" cy="461.6" r="4.5" fill="#79d1b0" fill-opacity="0.95"/><circle cx="252.2" cy="460.8" r="4.5" fill="#79d1b0" fill-opacity="0.95"/><circle cx="259.6" cy="460.1" r="4.5" fill="#79d1b0" fill-opacity="0.95"/><circle cx="267.0" cy="460.1" r="4.5" fill="#79d1b0" fill-opacity="0.95"/><circle cx="274.3" cy="460.1" r="4.5" fill="#79d1b0" fill-opacity="0.95"/><circle cx="281.7" cy="458.7" r="4.5" fill="#79d1b0" fill-opacity="0.95"/><circle cx="289.1" cy="458.4" r="4.5" fill="#79d1b0" fill-opacity="0.95"/><circle cx="296.5" cy="458.9" r="4.5" fill="#79d1b0" fill-opacity="0.95"/><circle cx="303.8" cy="457.7" r="4.5" fill="#79d1b0" fill-opacity="0.95"/><circle cx="311.2" cy="458.8" r="4.5" fill="#79d1b0" fill-opacity="0.95"/><circle cx="318.6" cy="456.9" r="4.5" fill="#79d1b0" fill-opacity="0.95"/><circle cx="326.0" cy="457.1" r="4.5" fill="#79d1b0" fill-opacity="0.95"/><circle cx="333.3" cy="456.3" r="4.5" fill="#79d1b0" fill-opacity="0.95"/><circle cx="340.7" cy="455.8" r="4.5" fill="#79d1b0" fill-opacity="0.95"/><circle cx="348.1" cy="454.9" r="4.5" fill="#79d1b0" fill-opacity="0.95"/><circle cx="355.5" cy="454.3" r="4.5" fill="#79d1b0" fill-opacity="0.95"/><circle cx="362.8" cy="454.5" r="4.5" fill="#79d1b0" fill-opacity="0.95"/><circle cx="370.2" cy="454.0" r="4.5" fill="#79d1b0" fill-opacity="0.95"/><circle cx="377.6" cy="453.2" r="4.5" fill="#79d1b0" fill-opacity="0.95"/><circle cx="384.9" cy="453.5" r="4.5" fill="#79d1b0" fill-opacity="0.95"/><circle cx="392.3" cy="454.2" r="4.5" fill="#79d1b0" fill-opacity="0.95"/><circle cx="399.7" cy="452.4" r="4.5" fill="#79d1b0" fill-opacity="0.95"/><circle cx="407.1" cy="452.6" r="4.5" fill="#79d1b0" fill-opacity="0.95"/><circle cx="414.4" cy="451.8" r="4.5" fill="#79d1b0" fill-opacity="0.95"/><circle cx="421.8" cy="451.1" r="4.5" fill="#79d1b0" fill-opacity="0.95"/><circle cx="429.2" cy="451.8" r="4.5" fill="#79d1b0" fill-opacity="0.95"/><circle cx="436.6" cy="451.1" r="4.5" fill="#79d1b0" fill-opacity="0.95"/><circle cx="443.9" cy="450.9" r="4.5" fill="#79d1b0" fill-opacity="0.95"/><circle cx="451.3" cy="449.6" r="4.5" fill="#79d1b0" fill-opacity="0.95"/><circle cx="458.7" cy="448.9" r="4.5" fill="#79d1b0" fill-opacity="0.95"/><circle cx="466.1" cy="449.3" r="4.5" fill="#79d1b0" fill-opacity="0.95"/><circle cx="473.4" cy="449.9" r="4.5" fill="#79d1b0" fill-opacity="0.95"/><circle cx="480.8" cy="448.3" r="4.5" fill="#79d1b0" fill-opacity="0.95"/><circle cx="488.2" cy="447.7" r="4.5" fill="#79d1b0" fill-opacity="0.95"/><circle cx="495.6" cy="447.4" r="4.5" fill="#79d1b0" fill-opacity="0.95"/><circle cx="502.9" cy="446.8" r="4.5" fill="#79d1b0" fill-opacity="0.95"/><circle cx="510.3" cy="446.9" r="4.5" fill="#79d1b0" fill-opacity="0.95"/><circle cx="517.7" cy="446.1" r="4.5" fill="#79d1b0" fill-opacity="0.95"/><circle cx="525.1" cy="445.4" r="4.5" fill="#79d1b0" fill-opacity="0.95"/><circle cx="532.4" cy="444.1" r="4.5" fill="#79d1b0" fill-opacity="0.95"/><circle cx="539.8" cy="444.2" r="4.5" fill="#79d1b0" fill-opacity="0.95"/><circle cx="547.2" cy="444.4" r="4.5" fill="#79d1b0" fill-opacity="0.95"/><circle cx="554.5" cy="443.9" r="4.5" fill="#79d1b0" fill-opacity="0.95"/><circle cx="561.9" cy="444.3" r="4.5" fill="#79d1b0" fill-opacity="0.95"/><circle cx="569.3" cy="444.2" r="4.5" fill="#79d1b0" fill-opacity="0.95"/><circle cx="576.7" cy="442.7" r="4.5" fill="#79d1b0" fill-opacity="0.95"/><circle cx="584.0" cy="443.3" r="4.5" fill="#79d1b0" fill-opacity="0.95"/><circle cx="591.4" cy="442.8" r="4.5" fill="#79d1b0" fill-opacity="0.95"/><circle cx="598.8" cy="441.1" r="4.5" fill="#79d1b0" fill-opacity="0.95"/><circle cx="606.2" cy="441.8" r="4.5" fill="#79d1b0" fill-opacity="0.95"/><circle cx="613.5" cy="440.4" r="4.5" fill="#79d1b0" fill-opacity="0.95"/><circle cx="620.9" cy="440.2" r="4.5" fill="#79d1b0" fill-opacity="0.95"/><circle cx="628.3" cy="439.0" r="4.5" fill="#79d1b0" fill-opacity="0.95"/><circle cx="635.7" cy="439.1" r="4.5" fill="#79d1b0" fill-opacity="0.95"/><circle cx="643.0" cy="439.0" r="4.5" fill="#79d1b0" fill-opacity="0.95"/><circle cx="650.4" cy="438.4" r="4.5" fill="#79d1b0" fill-opacity="0.95"/><circle cx="657.8" cy="437.7" r="4.5" fill="#79d1b0" fill-opacity="0.95"/><circle cx="665.2" cy="438.0" r="4.5" fill="#79d1b0" fill-opacity="0.95"/><circle cx="672.5" cy="437.0" r="4.5" fill="#79d1b0" fill-opacity="0.95"/><circle cx="679.9" cy="436.2" r="4.5" fill="#79d1b0" fill-opacity="0.95"/><circle cx="687.3" cy="436.3" r="4.5" fill="#79d1b0" fill-opacity="0.95"/><circle cx="694.6" cy="436.1" r="4.5" fill="#79d1b0" fill-opacity="0.95"/><circle cx="702.0" cy="435.8" r="4.5" fill="#79d1b0" fill-opacity="0.95"/><circle cx="709.4" cy="435.1" r="4.5" fill="#79d1b0" fill-opacity="0.95"/><circle cx="716.8" cy="434.7" r="4.5" fill="#79d1b0" fill-opacity="0.95"/><circle cx="724.1" cy="435.2" r="4.5" fill="#79d1b0" fill-opacity="0.95"/><circle cx="731.5" cy="433.4" r="4.5" fill="#79d1b0" fill-opacity="0.95"/><circle cx="738.9" cy="433.9" r="4.5" fill="#79d1b0" fill-opacity="0.95"/><circle cx="746.3" cy="432.5" r="4.5" fill="#79d1b0" fill-opacity="0.95"/><circle cx="753.6" cy="432.2" r="4.5" fill="#79d1b0" fill-opacity="0.95"/><circle cx="761.0" cy="432.5" r="4.5" fill="#79d1b0" fill-opacity="0.95"/><circle cx="768.4" cy="432.1" r="4.5" fill="#79d1b0" fill-opacity="0.95"/><circle cx="775.8" cy="431.3" r="4.5" fill="#79d1b0" fill-opacity="0.95"/><circle cx="783.1" cy="432.5" r="4.5" fill="#79d1b0" fill-opacity="0.95"/><circle cx="790.5" cy="430.2" r="4.5" fill="#79d1b0" fill-opacity="0.95"/><circle cx="797.9" cy="430.4" r="4.5" fill="#79d1b0" fill-opacity="0.95"/><circle cx="805.3" cy="430.1" r="4.5" fill="#79d1b0" fill-opacity="0.95"/><circle cx="812.6" cy="429.8" r="4.5" fill="#79d1b0" fill-opacity="0.95"/><circle cx="820.0" cy="428.4" r="4.5" fill="#79d1b0" fill-opacity="0.95"/><polyline fill="none" stroke="#456eb4" stroke-width="4" stroke-linecap="round" stroke-linejoin="round" points="90.0,472.1 97.4,460.9 104.7,461.0 112.1,459.6 119.5,441.3 126.9,458.9 134.2,457.8 141.6,457.0 149.0,456.3 156.4,457.0 163.7,456.2 171.1,454.4 178.5,454.0 185.9,452.5 193.2,454.5 200.6,452.4 208.0,450.3 215.4,454.1 222.7,450.0 230.1,451.1 237.5,449.7 244.8,448.0 252.2,448.3 259.6,442.6 267.0,447.3 274.3,442.4 281.7,447.2 289.1,439.4 296.5,439.0 303.8,443.4 311.2,443.6 318.6,439.7 326.0,438.8 333.3,434.0 340.7,438.5 348.1,439.0 355.5,441.0 362.8,432.1 370.2,436.8 377.6,433.5 384.9,436.6 392.3,432.5 399.7,432.3 407.1,379.9 414.4,431.1 421.8,429.6 429.2,430.6 436.6,75.3 443.9,428.1 451.3,428.7 458.7,426.5 466.1,424.2 473.4,429.2 480.8,423.0 488.2,425.6 495.6,417.4 502.9,426.2 510.3,418.6 517.7,417.2 525.1,413.4 532.4,419.3 539.8,414.7 547.2,420.7 554.5,418.8 561.9,403.2 569.3,415.6 576.7,418.6 584.0,402.2 591.4,411.3 598.8,410.6 606.2,412.4 613.5,412.7 620.9,411.7 628.3,339.7 635.7,409.7 643.0,406.5 650.4,409.8 657.8,411.6 665.2,404.7 672.5,408.0 679.9,406.3 687.3,403.2 694.6,403.8 702.0,400.5 709.4,401.2 716.8,401.9 724.1,405.1 731.5,400.7 738.9,399.5 746.3,399.7 753.6,399.0 761.0,397.4 768.4,395.2 775.8,397.3 783.1,397.4 790.5,398.3 797.9,393.6 805.3,389.2 812.6,392.4 820.0,388.0"/><circle cx="90.0" cy="472.1" r="4.5" fill="#456eb4" fill-opacity="0.95"/><circle cx="97.4" cy="460.9" r="4.5" fill="#456eb4" fill-opacity="0.95"/><circle cx="104.7" cy="461.0" r="4.5" fill="#456eb4" fill-opacity="0.95"/><circle cx="112.1" cy="459.6" r="4.5" fill="#456eb4" fill-opacity="0.95"/><circle cx="119.5" cy="441.3" r="4.5" fill="#456eb4" fill-opacity="0.95"/><circle cx="126.9" cy="458.9" r="4.5" fill="#456eb4" fill-opacity="0.95"/><circle cx="134.2" cy="457.8" r="4.5" fill="#456eb4" fill-opacity="0.95"/><circle cx="141.6" cy="457.0" r="4.5" fill="#456eb4" fill-opacity="0.95"/><circle cx="149.0" cy="456.3" r="4.5" fill="#456eb4" fill-opacity="0.95"/><circle cx="156.4" cy="457.0" r="4.5" fill="#456eb4" fill-opacity="0.95"/><circle cx="163.7" cy="456.2" r="4.5" fill="#456eb4" fill-opacity="0.95"/><circle cx="171.1" cy="454.4" r="4.5" fill="#456eb4" fill-opacity="0.95"/><circle cx="178.5" cy="454.0" r="4.5" fill="#456eb4" fill-opacity="0.95"/><circle cx="185.9" cy="452.5" r="4.5" fill="#456eb4" fill-opacity="0.95"/><circle cx="193.2" cy="454.5" r="4.5" fill="#456eb4" fill-opacity="0.95"/><circle cx="200.6" cy="452.4" r="4.5" fill="#456eb4" fill-opacity="0.95"/><circle cx="208.0" cy="450.3" r="4.5" fill="#456eb4" fill-opacity="0.95"/><circle cx="215.4" cy="454.1" r="4.5" fill="#456eb4" fill-opacity="0.95"/><circle cx="222.7" cy="450.0" r="4.5" fill="#456eb4" fill-opacity="0.95"/><circle cx="230.1" cy="451.1" r="4.5" fill="#456eb4" fill-opacity="0.95"/><circle cx="237.5" cy="449.7" r="4.5" fill="#456eb4" fill-opacity="0.95"/><circle cx="244.8" cy="448.0" r="4.5" fill="#456eb4" fill-opacity="0.95"/><circle cx="252.2" cy="448.3" r="4.5" fill="#456eb4" fill-opacity="0.95"/><circle cx="259.6" cy="442.6" r="4.5" fill="#456eb4" fill-opacity="0.95"/><circle cx="267.0" cy="447.3" r="4.5" fill="#456eb4" fill-opacity="0.95"/><circle cx="274.3" cy="442.4" r="4.5" fill="#456eb4" fill-opacity="0.95"/><circle cx="281.7" cy="447.2" r="4.5" fill="#456eb4" fill-opacity="0.95"/><circle cx="289.1" cy="439.4" r="4.5" fill="#456eb4" fill-opacity="0.95"/><circle cx="296.5" cy="439.0" r="4.5" fill="#456eb4" fill-opacity="0.95"/><circle cx="303.8" cy="443.4" r="4.5" fill="#456eb4" fill-opacity="0.95"/><circle cx="311.2" cy="443.6" r="4.5" fill="#456eb4" fill-opacity="0.95"/><circle cx="318.6" cy="439.7" r="4.5" fill="#456eb4" fill-opacity="0.95"/><circle cx="326.0" cy="438.8" r="4.5" fill="#456eb4" fill-opacity="0.95"/><circle cx="333.3" cy="434.0" r="4.5" fill="#456eb4" fill-opacity="0.95"/><circle cx="340.7" cy="438.5" r="4.5" fill="#456eb4" fill-opacity="0.95"/><circle cx="348.1" cy="439.0" r="4.5" fill="#456eb4" fill-opacity="0.95"/><circle cx="355.5" cy="441.0" r="4.5" fill="#456eb4" fill-opacity="0.95"/><circle cx="362.8" cy="432.1" r="4.5" fill="#456eb4" fill-opacity="0.95"/><circle cx="370.2" cy="436.8" r="4.5" fill="#456eb4" fill-opacity="0.95"/><circle cx="377.6" cy="433.5" r="4.5" fill="#456eb4" fill-opacity="0.95"/><circle cx="384.9" cy="436.6" r="4.5" fill="#456eb4" fill-opacity="0.95"/><circle cx="392.3" cy="432.5" r="4.5" fill="#456eb4" fill-opacity="0.95"/><circle cx="399.7" cy="432.3" r="4.5" fill="#456eb4" fill-opacity="0.95"/><circle cx="407.1" cy="379.9" r="4.5" fill="#456eb4" fill-opacity="0.95"/><circle cx="414.4" cy="431.1" r="4.5" fill="#456eb4" fill-opacity="0.95"/><circle cx="421.8" cy="429.6" r="4.5" fill="#456eb4" fill-opacity="0.95"/><circle cx="429.2" cy="430.6" r="4.5" fill="#456eb4" fill-opacity="0.95"/><circle cx="436.6" cy="75.3" r="4.5" fill="#456eb4" fill-opacity="0.95"/><circle cx="443.9" cy="428.1" r="4.5" fill="#456eb4" fill-opacity="0.95"/><circle cx="451.3" cy="428.7" r="4.5" fill="#456eb4" fill-opacity="0.95"/><circle cx="458.7" cy="426.5" r="4.5" fill="#456eb4" fill-opacity="0.95"/><circle cx="466.1" cy="424.2" r="4.5" fill="#456eb4" fill-opacity="0.95"/><circle cx="473.4" cy="429.2" r="4.5" fill="#456eb4" fill-opacity="0.95"/><circle cx="480.8" cy="423.0" r="4.5" fill="#456eb4" fill-opacity="0.95"/><circle cx="488.2" cy="425.6" r="4.5" fill="#456eb4" fill-opacity="0.95"/><circle cx="495.6" cy="417.4" r="4.5" fill="#456eb4" fill-opacity="0.95"/><circle cx="502.9" cy="426.2" r="4.5" fill="#456eb4" fill-opacity="0.95"/><circle cx="510.3" cy="418.6" r="4.5" fill="#456eb4" fill-opacity="0.95"/><circle cx="517.7" cy="417.2" r="4.5" fill="#456eb4" fill-opacity="0.95"/><circle cx="525.1" cy="413.4" r="4.5" fill="#456eb4" fill-opacity="0.95"/><circle cx="532.4" cy="419.3" r="4.5" fill="#456eb4" fill-opacity="0.95"/><circle cx="539.8" cy="414.7" r="4.5" fill="#456eb4" fill-opacity="0.95"/><circle cx="547.2" cy="420.7" r="4.5" fill="#456eb4" fill-opacity="0.95"/><circle cx="554.5" cy="418.8" r="4.5" fill="#456eb4" fill-opacity="0.95"/><circle cx="561.9" cy="403.2" r="4.5" fill="#456eb4" fill-opacity="0.95"/><circle cx="569.3" cy="415.6" r="4.5" fill="#456eb4" fill-opacity="0.95"/><circle cx="576.7" cy="418.6" r="4.5" fill="#456eb4" fill-opacity="0.95"/><circle cx="584.0" cy="402.2" r="4.5" fill="#456eb4" fill-opacity="0.95"/><circle cx="591.4" cy="411.3" r="4.5" fill="#456eb4" fill-opacity="0.95"/><circle cx="598.8" cy="410.6" r="4.5" fill="#456eb4" fill-opacity="0.95"/><circle cx="606.2" cy="412.4" r="4.5" fill="#456eb4" fill-opacity="0.95"/><circle cx="613.5" cy="412.7" r="4.5" fill="#456eb4" fill-opacity="0.95"/><circle cx="620.9" cy="411.7" r="4.5" fill="#456eb4" fill-opacity="0.95"/><circle cx="628.3" cy="339.7" r="4.5" fill="#456eb4" fill-opacity="0.95"/><circle cx="635.7" cy="409.7" r="4.5" fill="#456eb4" fill-opacity="0.95"/><circle cx="643.0" cy="406.5" r="4.5" fill="#456eb4" fill-opacity="0.95"/><circle cx="650.4" cy="409.8" r="4.5" fill="#456eb4" fill-opacity="0.95"/><circle cx="657.8" cy="411.6" r="4.5" fill="#456eb4" fill-opacity="0.95"/><circle cx="665.2" cy="404.7" r="4.5" fill="#456eb4" fill-opacity="0.95"/><circle cx="672.5" cy="408.0" r="4.5" fill="#456eb4" fill-opacity="0.95"/><circle cx="679.9" cy="406.3" r="4.5" fill="#456eb4" fill-opacity="0.95"/><circle cx="687.3" cy="403.2" r="4.5" fill="#456eb4" fill-opacity="0.95"/><circle cx="694.6" cy="403.8" r="4.5" fill="#456eb4" fill-opacity="0.95"/><circle cx="702.0" cy="400.5" r="4.5" fill="#456eb4" fill-opacity="0.95"/><circle cx="709.4" cy="401.2" r="4.5" fill="#456eb4" fill-opacity="0.95"/><circle cx="716.8" cy="401.9" r="4.5" fill="#456eb4" fill-opacity="0.95"/><circle cx="724.1" cy="405.1" r="4.5" fill="#456eb4" fill-opacity="0.95"/><circle cx="731.5" cy="400.7" r="4.5" fill="#456eb4" fill-opacity="0.95"/><circle cx="738.9" cy="399.5" r="4.5" fill="#456eb4" fill-opacity="0.95"/><circle cx="746.3" cy="399.7" r="4.5" fill="#456eb4" fill-opacity="0.95"/><circle cx="753.6" cy="399.0" r="4.5" fill="#456eb4" fill-opacity="0.95"/><circle cx="761.0" cy="397.4" r="4.5" fill="#456eb4" fill-opacity="0.95"/><circle cx="768.4" cy="395.2" r="4.5" fill="#456eb4" fill-opacity="0.95"/><circle cx="775.8" cy="397.3" r="4.5" fill="#456eb4" fill-opacity="0.95"/><circle cx="783.1" cy="397.4" r="4.5" fill="#456eb4" fill-opacity="0.95"/><circle cx="790.5" cy="398.3" r="4.5" fill="#456eb4" fill-opacity="0.95"/><circle cx="797.9" cy="393.6" r="4.5" fill="#456eb4" fill-opacity="0.95"/><circle cx="805.3" cy="389.2" r="4.5" fill="#456eb4" fill-opacity="0.95"/><circle cx="812.6" cy="392.4" r="4.5" fill="#456eb4" fill-opacity="0.95"/><circle cx="820.0" cy="388.0" r="4.5" fill="#456eb4" fill-opacity="0.95"/><polyline fill="none" stroke="#22192e" stroke-width="4" stroke-linecap="round" stroke-linejoin="round" points="90.0,468.9 97.4,443.9 104.7,443.3 112.1,446.0 119.5,426.5 126.9,434.8 134.2,433.0 141.6,424.6 149.0,418.3 156.4,432.1 163.7,426.2 171.1,434.6 178.5,442.8 185.9,441.3 193.2,413.3 200.6,419.0 208.0,65.2 215.4,406.7 222.7,406.4 230.1,415.1 237.5,415.6 244.8,400.4 252.2,400.4 259.6,404.9 267.0,393.2 274.3,391.6 281.7,384.2 289.1,370.7 296.5,385.3 303.8,380.1 311.2,402.5 318.6,417.5 326.0,396.9 333.3,399.5 340.7,368.2 348.1,374.5 355.5,359.9 362.8,360.5 370.2,385.8 377.6,393.7 384.9,352.2 392.3,365.9 399.7,350.7 407.1,311.5 414.4,361.9 421.8,339.9 429.2,348.3 436.6,320.8 443.9,294.9 451.3,315.8 458.7,348.9 466.1,342.4 473.4,331.4 480.8,365.5 488.2,323.2 495.6,317.7 502.9,325.0 510.3,351.3 517.7,312.1 525.1,316.1 532.4,303.6 539.8,254.9 547.2,316.8 554.5,274.1 561.9,292.7 569.3,273.4 576.7,305.5 584.0,330.5 591.4,261.4 598.8,292.4 606.2,287.9 613.5,324.0 620.9,341.5 628.3,337.4 635.7,305.5 643.0,186.4 650.4,179.9 657.8,288.6 665.2,302.0 672.5,289.7 679.9,374.9 687.3,358.5 694.6,272.8 702.0,304.3 709.4,215.9 716.8,290.6 724.1,262.6 731.5,217.3 738.9,228.6 746.3,235.7 753.6,196.3 761.0,236.5 768.4,363.0 775.8,360.1 783.1,288.7 790.5,288.4 797.9,320.6 805.3,296.9 812.6,377.6 820.0,376.9"/><circle cx="90.0" cy="468.9" r="4.5" fill="#22192e" fill-opacity="0.95"/><circle cx="97.4" cy="443.9" r="4.5" fill="#22192e" fill-opacity="0.95"/><circle cx="104.7" cy="443.3" r="4.5" fill="#22192e" fill-opacity="0.95"/><circle cx="112.1" cy="446.0" r="4.5" fill="#22192e" fill-opacity="0.95"/><circle cx="119.5" cy="426.5" r="4.5" fill="#22192e" fill-opacity="0.95"/><circle cx="126.9" cy="434.8" r="4.5" fill="#22192e" fill-opacity="0.95"/><circle cx="134.2" cy="433.0" r="4.5" fill="#22192e" fill-opacity="0.95"/><circle cx="141.6" cy="424.6" r="4.5" fill="#22192e" fill-opacity="0.95"/><circle cx="149.0" cy="418.3" r="4.5" fill="#22192e" fill-opacity="0.95"/><circle cx="156.4" cy="432.1" r="4.5" fill="#22192e" fill-opacity="0.95"/><circle cx="163.7" cy="426.2" r="4.5" fill="#22192e" fill-opacity="0.95"/><circle cx="171.1" cy="434.6" r="4.5" fill="#22192e" fill-opacity="0.95"/><circle cx="178.5" cy="442.8" r="4.5" fill="#22192e" fill-opacity="0.95"/><circle cx="185.9" cy="441.3" r="4.5" fill="#22192e" fill-opacity="0.95"/><circle cx="193.2" cy="413.3" r="4.5" fill="#22192e" fill-opacity="0.95"/><circle cx="200.6" cy="419.0" r="4.5" fill="#22192e" fill-opacity="0.95"/><circle cx="208.0" cy="65.2" r="4.5" fill="#22192e" fill-opacity="0.95"/><circle cx="215.4" cy="406.7" r="4.5" fill="#22192e" fill-opacity="0.95"/><circle cx="222.7" cy="406.4" r="4.5" fill="#22192e" fill-opacity="0.95"/><circle cx="230.1" cy="415.1" r="4.5" fill="#22192e" fill-opacity="0.95"/><circle cx="237.5" cy="415.6" r="4.5" fill="#22192e" fill-opacity="0.95"/><circle cx="244.8" cy="400.4" r="4.5" fill="#22192e" fill-opacity="0.95"/><circle cx="252.2" cy="400.4" r="4.5" fill="#22192e" fill-opacity="0.95"/><circle cx="259.6" cy="404.9" r="4.5" fill="#22192e" fill-opacity="0.95"/><circle cx="267.0" cy="393.2" r="4.5" fill="#22192e" fill-opacity="0.95"/><circle cx="274.3" cy="391.6" r="4.5" fill="#22192e" fill-opacity="0.95"/><circle cx="281.7" cy="384.2" r="4.5" fill="#22192e" fill-opacity="0.95"/><circle cx="289.1" cy="370.7" r="4.5" fill="#22192e" fill-opacity="0.95"/><circle cx="296.5" cy="385.3" r="4.5" fill="#22192e" fill-opacity="0.95"/><circle cx="303.8" cy="380.1" r="4.5" fill="#22192e" fill-opacity="0.95"/><circle cx="311.2" cy="402.5" r="4.5" fill="#22192e" fill-opacity="0.95"/><circle cx="318.6" cy="417.5" r="4.5" fill="#22192e" fill-opacity="0.95"/><circle cx="326.0" cy="396.9" r="4.5" fill="#22192e" fill-opacity="0.95"/><circle cx="333.3" cy="399.5" r="4.5" fill="#22192e" fill-opacity="0.95"/><circle cx="340.7" cy="368.2" r="4.5" fill="#22192e" fill-opacity="0.95"/><circle cx="348.1" cy="374.5" r="4.5" fill="#22192e" fill-opacity="0.95"/><circle cx="355.5" cy="359.9" r="4.5" fill="#22192e" fill-opacity="0.95"/><circle cx="362.8" cy="360.5" r="4.5" fill="#22192e" fill-opacity="0.95"/><circle cx="370.2" cy="385.8" r="4.5" fill="#22192e" fill-opacity="0.95"/><circle cx="377.6" cy="393.7" r="4.5" fill="#22192e" fill-opacity="0.95"/><circle cx="384.9" cy="352.2" r="4.5" fill="#22192e" fill-opacity="0.95"/><circle cx="392.3" cy="365.9" r="4.5" fill="#22192e" fill-opacity="0.95"/><circle cx="399.7" cy="350.7" r="4.5" fill="#22192e" fill-opacity="0.95"/><circle cx="407.1" cy="311.5" r="4.5" fill="#22192e" fill-opacity="0.95"/><circle cx="414.4" cy="361.9" r="4.5" fill="#22192e" fill-opacity="0.95"/><circle cx="421.8" cy="339.9" r="4.5" fill="#22192e" fill-opacity="0.95"/><circle cx="429.2" cy="348.3" r="4.5" fill="#22192e" fill-opacity="0.95"/><circle cx="436.6" cy="320.8" r="4.5" fill="#22192e" fill-opacity="0.95"/><circle cx="443.9" cy="294.9" r="4.5" fill="#22192e" fill-opacity="0.95"/><circle cx="451.3" cy="315.8" r="4.5" fill="#22192e" fill-opacity="0.95"/><circle cx="458.7" cy="348.9" r="4.5" fill="#22192e" fill-opacity="0.95"/><circle cx="466.1" cy="342.4" r="4.5" fill="#22192e" fill-opacity="0.95"/><circle cx="473.4" cy="331.4" r="4.5" fill="#22192e" fill-opacity="0.95"/><circle cx="480.8" cy="365.5" r="4.5" fill="#22192e" fill-opacity="0.95"/><circle cx="488.2" cy="323.2" r="4.5" fill="#22192e" fill-opacity="0.95"/><circle cx="495.6" cy="317.7" r="4.5" fill="#22192e" fill-opacity="0.95"/><circle cx="502.9" cy="325.0" r="4.5" fill="#22192e" fill-opacity="0.95"/><circle cx="510.3" cy="351.3" r="4.5" fill="#22192e" fill-opacity="0.95"/><circle cx="517.7" cy="312.1" r="4.5" fill="#22192e" fill-opacity="0.95"/><circle cx="525.1" cy="316.1" r="4.5" fill="#22192e" fill-opacity="0.95"/><circle cx="532.4" cy="303.6" r="4.5" fill="#22192e" fill-opacity="0.95"/><circle cx="539.8" cy="254.9" r="4.5" fill="#22192e" fill-opacity="0.95"/><circle cx="547.2" cy="316.8" r="4.5" fill="#22192e" fill-opacity="0.95"/><circle cx="554.5" cy="274.1" r="4.5" fill="#22192e" fill-opacity="0.95"/><circle cx="561.9" cy="292.7" r="4.5" fill="#22192e" fill-opacity="0.95"/><circle cx="569.3" cy="273.4" r="4.5" fill="#22192e" fill-opacity="0.95"/><circle cx="576.7" cy="305.5" r="4.5" fill="#22192e" fill-opacity="0.95"/><circle cx="584.0" cy="330.5" r="4.5" fill="#22192e" fill-opacity="0.95"/><circle cx="591.4" cy="261.4" r="4.5" fill="#22192e" fill-opacity="0.95"/><circle cx="598.8" cy="292.4" r="4.5" fill="#22192e" fill-opacity="0.95"/><circle cx="606.2" cy="287.9" r="4.5" fill="#22192e" fill-opacity="0.95"/><circle cx="613.5" cy="324.0" r="4.5" fill="#22192e" fill-opacity="0.95"/><circle cx="620.9" cy="341.5" r="4.5" fill="#22192e" fill-opacity="0.95"/><circle cx="628.3" cy="337.4" r="4.5" fill="#22192e" fill-opacity="0.95"/><circle cx="635.7" cy="305.5" r="4.5" fill="#22192e" fill-opacity="0.95"/><circle cx="643.0" cy="186.4" r="4.5" fill="#22192e" fill-opacity="0.95"/><circle cx="650.4" cy="179.9" r="4.5" fill="#22192e" fill-opacity="0.95"/><circle cx="657.8" cy="288.6" r="4.5" fill="#22192e" fill-opacity="0.95"/><circle cx="665.2" cy="302.0" r="4.5" fill="#22192e" fill-opacity="0.95"/><circle cx="672.5" cy="289.7" r="4.5" fill="#22192e" fill-opacity="0.95"/><circle cx="679.9" cy="374.9" r="4.5" fill="#22192e" fill-opacity="0.95"/><circle cx="687.3" cy="358.5" r="4.5" fill="#22192e" fill-opacity="0.95"/><circle cx="694.6" cy="272.8" r="4.5" fill="#22192e" fill-opacity="0.95"/><circle cx="702.0" cy="304.3" r="4.5" fill="#22192e" fill-opacity="0.95"/><circle cx="709.4" cy="215.9" r="4.5" fill="#22192e" fill-opacity="0.95"/><circle cx="716.8" cy="290.6" r="4.5" fill="#22192e" fill-opacity="0.95"/><circle cx="724.1" cy="262.6" r="4.5" fill="#22192e" fill-opacity="0.95"/><circle cx="731.5" cy="217.3" r="4.5" fill="#22192e" fill-opacity="0.95"/><circle cx="738.9" cy="228.6" r="4.5" fill="#22192e" fill-opacity="0.95"/><circle cx="746.3" cy="235.7" r="4.5" fill="#22192e" fill-opacity="0.95"/><circle cx="753.6" cy="196.3" r="4.5" fill="#22192e" fill-opacity="0.95"/><circle cx="761.0" cy="236.5" r="4.5" fill="#22192e" fill-opacity="0.95"/><circle cx="768.4" cy="363.0" r="4.5" fill="#22192e" fill-opacity="0.95"/><circle cx="775.8" cy="360.1" r="4.5" fill="#22192e" fill-opacity="0.95"/><circle cx="783.1" cy="288.7" r="4.5" fill="#22192e" fill-opacity="0.95"/><circle cx="790.5" cy="288.4" r="4.5" fill="#22192e" fill-opacity="0.95"/><circle cx="797.9" cy="320.6" r="4.5" fill="#22192e" fill-opacity="0.95"/><circle cx="805.3" cy="296.9" r="4.5" fill="#22192e" fill-opacity="0.95"/><circle cx="812.6" cy="377.6" r="4.5" fill="#22192e" fill-opacity="0.95"/><circle cx="820.0" cy="376.9" r="4.5" fill="#22192e" fill-opacity="0.95"/>
  <rect x="830" y="38" width="180" height="122" rx="14" fill="#fffdfa" stroke="#d7d1cb" stroke-width="1.2"/><line x1="846" y1="62" x2="880" y2="62" stroke="#79d1b0" stroke-width="4" stroke-linecap="round"/><circle cx="863" cy="62" r="4.5" fill="#79d1b0"/><text x="894" y="69" font-size="21" font-family="Helvetica, Arial, sans-serif" fill="#2e2a28">local</text><line x1="846" y1="96" x2="880" y2="96" stroke="#456eb4" stroke-width="4" stroke-linecap="round"/><circle cx="863" cy="96" r="4.5" fill="#456eb4"/><text x="894" y="103" font-size="21" font-family="Helvetica, Arial, sans-serif" fill="#2e2a28">us-ca-2</text><line x1="846" y1="130" x2="880" y2="130" stroke="#22192e" stroke-width="4" stroke-linecap="round"/><circle cx="863" cy="130" r="4.5" fill="#22192e"/><text x="894" y="137" font-size="21" font-family="Helvetica, Arial, sans-serif" fill="#2e2a28">us-mo-1</text>
  <text x="90.0" y="512" text-anchor="middle" font-size="18" font-family="Helvetica, Arial, sans-serif" fill="#6f6762">1</text><text x="156.4" y="512" text-anchor="middle" font-size="18" font-family="Helvetica, Arial, sans-serif" fill="#6f6762">10</text><text x="267.0" y="512" text-anchor="middle" font-size="18" font-family="Helvetica, Arial, sans-serif" fill="#6f6762">25</text><text x="451.3" y="512" text-anchor="middle" font-size="18" font-family="Helvetica, Arial, sans-serif" fill="#6f6762">50</text><text x="635.7" y="512" text-anchor="middle" font-size="18" font-family="Helvetica, Arial, sans-serif" fill="#6f6762">75</text><text x="820.0" y="512" text-anchor="middle" font-size="18" font-family="Helvetica, Arial, sans-serif" fill="#6f6762">100</text>
  <text x="76" y="486.0" text-anchor="end" font-size="18" font-family="Helvetica, Arial, sans-serif" fill="#6f6762">0.00</text><text x="76" y="397.9" text-anchor="end" font-size="18" font-family="Helvetica, Arial, sans-serif" fill="#6f6762">2.0</text><text x="76" y="309.8" text-anchor="end" font-size="18" font-family="Helvetica, Arial, sans-serif" fill="#6f6762">4.0</text><text x="76" y="221.7" text-anchor="end" font-size="18" font-family="Helvetica, Arial, sans-serif" fill="#6f6762">6.0</text><text x="76" y="133.6" text-anchor="end" font-size="18" font-family="Helvetica, Arial, sans-serif" fill="#6f6762">8.0</text><text x="76" y="45.5" text-anchor="end" font-size="18" font-family="Helvetica, Arial, sans-serif" fill="#6f6762">10.0</text>
  <text x="455.0" y="538" text-anchor="middle" font-size="20" font-family="Helvetica, Arial, sans-serif" fill="#2e2a28">Context Size (text+image pairs)</text>
  <g transform="translate(24 256.0) rotate(-90)">
    <text text-anchor="middle" font-size="20" font-family="Helvetica, Arial, sans-serif" fill="#2e2a28">TTFT (seconds)</text>
  </g>
</svg>
