<svg xmlns="http://www.w3.org/2000/svg" width="1040" height="640" viewBox="0 0 1040 640">
  <rect width="1040" height="640" fill="#fffdfa"/>
  <text x="90" y="38" font-size="28" font-weight="700" font-family="Helvetica, Arial, sans-serif" fill="#2e2a28">Full Screenshot History by Region</text>
  <text x="90" y="62" font-size="16" font-family="Helvetica, Arial, sans-serif" fill="#6f6762">8B TTFT when every past screenshot is resent in the request context.</text>
  <line x1="90.0" y1="70" x2="90.0" y2="560" stroke="#d7d1cb" stroke-width="1"/><line x1="156.4" y1="70" x2="156.4" y2="560" stroke="#d7d1cb" stroke-width="1"/><line x1="267.0" y1="70" x2="267.0" y2="560" stroke="#d7d1cb" stroke-width="1"/><line x1="451.3" y1="70" x2="451.3" y2="560" stroke="#d7d1cb" stroke-width="1"/><line x1="635.7" y1="70" x2="635.7" y2="560" stroke="#d7d1cb" stroke-width="1"/><line x1="820.0" y1="70" x2="820.0" y2="560" stroke="#d7d1cb" stroke-width="1"/><line x1="90" y1="560.0" x2="820" y2="560.0" stroke="#d7d1cb" stroke-width="1"/><line x1="90" y1="463.6" x2="820" y2="463.6" stroke="#d7d1cb" stroke-width="1"/><line x1="90" y1="367.3" x2="820" y2="367.3" stroke="#d7d1cb" stroke-width="1"/><line x1="90" y1="270.9" x2="820" y2="270.9" stroke="#d7d1cb" stroke-width="1"/><line x1="90" y1="174.6" x2="820" y2="174.6" stroke="#d7d1cb" stroke-width="1"/><line x1="90" y1="78.2" x2="820" y2="78.2" stroke="#d7d1cb" stroke-width="1"/>
  <line x1="90" y1="560" x2="820" y2="560" stroke="#3f3a37" stroke-width="2"/>
  <line x1="90" y1="70" x2="90" y2="560" stroke="#3f3a37" stroke-width="2"/>
  <polyline fill="none" stroke="#79d1b0" stroke-width="4" stroke-linecap="round" stroke-linejoin="round" points="90.0,558.8 97.4,547.1 104.7,547.8 112.1,546.2 119.5,546.6 126.9,545.9 134.2,545.3 141.6,544.9 149.0,544.7 156.4,543.8 163.7,544.9 171.1,543.3 178.5,543.3 185.9,542.9 193.2,542.0 200.6,541.5 208.0,541.9 215.4,541.6 222.7,540.9 230.1,540.3 237.5,539.2 244.8,539.8 252.2,538.9 259.6,538.2 267.0,538.2 274.3,538.2 281.7,536.7 289.1,536.4 296.5,536.9 303.8,535.7 311.2,536.8 318.6,534.8 326.0,535.0 333.3,534.1 340.7,533.5 348.1,532.6 355.5,531.9 362.8,532.2 370.2,531.6 377.6,530.7 384.9,531.1 392.3,531.8 399.7,529.8 407.1,530.0 414.4,529.1 421.8,528.4 429.2,529.1 436.6,528.3 443.9,528.2 451.3,526.7 458.7,525.9 466.1,526.4 473.4,527.1 480.8,525.3 488.2,524.6 495.6,524.3 502.9,523.7 510.3,523.8 517.7,522.9 525.1,522.2 532.4,520.7 539.8,520.9 547.2,521.1 554.5,520.6 561.9,521.0 569.3,520.9 576.7,519.3 584.0,519.8 591.4,519.3 598.8,517.4 606.2,518.2 613.5,516.7 620.9,516.5 628.3,515.2 635.7,515.3 643.0,515.2 650.4,514.6 657.8,513.7 665.2,514.0 672.5,512.9 679.9,512.1 687.3,512.2 694.6,512.0 702.0,511.6 709.4,510.9 716.8,510.5 724.1,511.0 731.5,509.1 738.9,509.5 746.3,508.1 753.6,507.7 761.0,508.1 768.4,507.6 775.8,506.7 783.1,508.1 790.5,505.5 797.9,505.7 805.3,505.5 812.6,505.1 820.0,503.6"/><circle cx="90.0" cy="558.8" r="4.5" fill="#79d1b0" fill-opacity="0.95"/><circle cx="97.4" cy="547.1" r="4.5" fill="#79d1b0" fill-opacity="0.95"/><circle cx="104.7" cy="547.8" r="4.5" fill="#79d1b0" fill-opacity="0.95"/><circle cx="112.1" cy="546.2" r="4.5" fill="#79d1b0" fill-opacity="0.95"/><circle cx="119.5" cy="546.6" r="4.5" fill="#79d1b0" fill-opacity="0.95"/><circle cx="126.9" cy="545.9" r="4.5" fill="#79d1b0" fill-opacity="0.95"/><circle cx="134.2" cy="545.3" r="4.5" fill="#79d1b0" fill-opacity="0.95"/><circle cx="141.6" cy="544.9" r="4.5" fill="#79d1b0" fill-opacity="0.95"/><circle cx="149.0" cy="544.7" r="4.5" fill="#79d1b0" fill-opacity="0.95"/><circle cx="156.4" cy="543.8" r="4.5" fill="#79d1b0" fill-opacity="0.95"/><circle cx="163.7" cy="544.9" r="4.5" fill="#79d1b0" fill-opacity="0.95"/><circle cx="171.1" cy="543.3" r="4.5" fill="#79d1b0" fill-opacity="0.95"/><circle cx="178.5" cy="543.3" r="4.5" fill="#79d1b0" fill-opacity="0.95"/><circle cx="185.9" cy="542.9" r="4.5" fill="#79d1b0" fill-opacity="0.95"/><circle cx="193.2" cy="542.0" r="4.5" fill="#79d1b0" fill-opacity="0.95"/><circle cx="200.6" cy="541.5" r="4.5" fill="#79d1b0" fill-opacity="0.95"/><circle cx="208.0" cy="541.9" r="4.5" fill="#79d1b0" fill-opacity="0.95"/><circle cx="215.4" cy="541.6" r="4.5" fill="#79d1b0" fill-opacity="0.95"/><circle cx="222.7" cy="540.9" r="4.5" fill="#79d1b0" fill-opacity="0.95"/><circle cx="230.1" cy="540.3" r="4.5" fill="#79d1b0" fill-opacity="0.95"/><circle cx="237.5" cy="539.2" r="4.5" fill="#79d1b0" fill-opacity="0.95"/><circle cx="244.8" cy="539.8" r="4.5" fill="#79d1b0" fill-opacity="0.95"/><circle cx="252.2" cy="538.9" r="4.5" fill="#79d1b0" fill-opacity="0.95"/><circle cx="259.6" cy="538.2" r="4.5" fill="#79d1b0" fill-opacity="0.95"/><circle cx="267.0" cy="538.2" r="4.5" fill="#79d1b0" fill-opacity="0.95"/><circle cx="274.3" cy="538.2" r="4.5" fill="#79d1b0" fill-opacity="0.95"/><circle cx="281.7" cy="536.7" r="4.5" fill="#79d1b0" fill-opacity="0.95"/><circle cx="289.1" cy="536.4" r="4.5" fill="#79d1b0" fill-opacity="0.95"/><circle cx="296.5" cy="536.9" r="4.5" fill="#79d1b0" fill-opacity="0.95"/><circle cx="303.8" cy="535.7" r="4.5" fill="#79d1b0" fill-opacity="0.95"/><circle cx="311.2" cy="536.8" r="4.5" fill="#79d1b0" fill-opacity="0.95"/><circle cx="318.6" cy="534.8" r="4.5" fill="#79d1b0" fill-opacity="0.95"/><circle cx="326.0" cy="535.0" r="4.5" fill="#79d1b0" fill-opacity="0.95"/><circle cx="333.3" cy="534.1" r="4.5" fill="#79d1b0" fill-opacity="0.95"/><circle cx="340.7" cy="533.5" r="4.5" fill="#79d1b0" fill-opacity="0.95"/><circle cx="348.1" cy="532.6" r="4.5" fill="#79d1b0" fill-opacity="0.95"/><circle cx="355.5" cy="531.9" r="4.5" fill="#79d1b0" fill-opacity="0.95"/><circle cx="362.8" cy="532.2" r="4.5" fill="#79d1b0" fill-opacity="0.95"/><circle cx="370.2" cy="531.6" r="4.5" fill="#79d1b0" fill-opacity="0.95"/><circle cx="377.6" cy="530.7" r="4.5" fill="#79d1b0" fill-opacity="0.95"/><circle cx="384.9" cy="531.1" r="4.5" fill="#79d1b0" fill-opacity="0.95"/><circle cx="392.3" cy="531.8" r="4.5" fill="#79d1b0" fill-opacity="0.95"/><circle cx="399.7" cy="529.8" r="4.5" fill="#79d1b0" fill-opacity="0.95"/><circle cx="407.1" cy="530.0" r="4.5" fill="#79d1b0" fill-opacity="0.95"/><circle cx="414.4" cy="529.1" r="4.5" fill="#79d1b0" fill-opacity="0.95"/><circle cx="421.8" cy="528.4" r="4.5" fill="#79d1b0" fill-opacity="0.95"/><circle cx="429.2" cy="529.1" r="4.5" fill="#79d1b0" fill-opacity="0.95"/><circle cx="436.6" cy="528.3" r="4.5" fill="#79d1b0" fill-opacity="0.95"/><circle cx="443.9" cy="528.2" r="4.5" fill="#79d1b0" fill-opacity="0.95"/><circle cx="451.3" cy="526.7" r="4.5" fill="#79d1b0" fill-opacity="0.95"/><circle cx="458.7" cy="525.9" r="4.5" fill="#79d1b0" fill-opacity="0.95"/><circle cx="466.1" cy="526.4" r="4.5" fill="#79d1b0" fill-opacity="0.95"/><circle cx="473.4" cy="527.1" r="4.5" fill="#79d1b0" fill-opacity="0.95"/><circle cx="480.8" cy="525.3" r="4.5" fill="#79d1b0" fill-opacity="0.95"/><circle cx="488.2" cy="524.6" r="4.5" fill="#79d1b0" fill-opacity="0.95"/><circle cx="495.6" cy="524.3" r="4.5" fill="#79d1b0" fill-opacity="0.95"/><circle cx="502.9" cy="523.7" r="4.5" fill="#79d1b0" fill-opacity="0.95"/><circle cx="510.3" cy="523.8" r="4.5" fill="#79d1b0" fill-opacity="0.95"/><circle cx="517.7" cy="522.9" r="4.5" fill="#79d1b0" fill-opacity="0.95"/><circle cx="525.1" cy="522.2" r="4.5" fill="#79d1b0" fill-opacity="0.95"/><circle cx="532.4" cy="520.7" r="4.5" fill="#79d1b0" fill-opacity="0.95"/><circle cx="539.8" cy="520.9" r="4.5" fill="#79d1b0" fill-opacity="0.95"/><circle cx="547.2" cy="521.1" r="4.5" fill="#79d1b0" fill-opacity="0.95"/><circle cx="554.5" cy="520.6" r="4.5" fill="#79d1b0" fill-opacity="0.95"/><circle cx="561.9" cy="521.0" r="4.5" fill="#79d1b0" fill-opacity="0.95"/><circle cx="569.3" cy="520.9" r="4.5" fill="#79d1b0" fill-opacity="0.95"/><circle cx="576.7" cy="519.3" r="4.5" fill="#79d1b0" fill-opacity="0.95"/><circle cx="584.0" cy="519.8" r="4.5" fill="#79d1b0" fill-opacity="0.95"/><circle cx="591.4" cy="519.3" r="4.5" fill="#79d1b0" fill-opacity="0.95"/><circle cx="598.8" cy="517.4" r="4.5" fill="#79d1b0" fill-opacity="0.95"/><circle cx="606.2" cy="518.2" r="4.5" fill="#79d1b0" fill-opacity="0.95"/><circle cx="613.5" cy="516.7" r="4.5" fill="#79d1b0" fill-opacity="0.95"/><circle cx="620.9" cy="516.5" r="4.5" fill="#79d1b0" fill-opacity="0.95"/><circle cx="628.3" cy="515.2" r="4.5" fill="#79d1b0" fill-opacity="0.95"/><circle cx="635.7" cy="515.3" r="4.5" fill="#79d1b0" fill-opacity="0.95"/><circle cx="643.0" cy="515.2" r="4.5" fill="#79d1b0" fill-opacity="0.95"/><circle cx="650.4" cy="514.6" r="4.5" fill="#79d1b0" fill-opacity="0.95"/><circle cx="657.8" cy="513.7" r="4.5" fill="#79d1b0" fill-opacity="0.95"/><circle cx="665.2" cy="514.0" r="4.5" fill="#79d1b0" fill-opacity="0.95"/><circle cx="672.5" cy="512.9" r="4.5" fill="#79d1b0" fill-opacity="0.95"/><circle cx="679.9" cy="512.1" r="4.5" fill="#79d1b0" fill-opacity="0.95"/><circle cx="687.3" cy="512.2" r="4.5" fill="#79d1b0" fill-opacity="0.95"/><circle cx="694.6" cy="512.0" r="4.5" fill="#79d1b0" fill-opacity="0.95"/><circle cx="702.0" cy="511.6" r="4.5" fill="#79d1b0" fill-opacity="0.95"/><circle cx="709.4" cy="510.9" r="4.5" fill="#79d1b0" fill-opacity="0.95"/><circle cx="716.8" cy="510.5" r="4.5" fill="#79d1b0" fill-opacity="0.95"/><circle cx="724.1" cy="511.0" r="4.5" fill="#79d1b0" fill-opacity="0.95"/><circle cx="731.5" cy="509.1" r="4.5" fill="#79d1b0" fill-opacity="0.95"/><circle cx="738.9" cy="509.5" r="4.5" fill="#79d1b0" fill-opacity="0.95"/><circle cx="746.3" cy="508.1" r="4.5" fill="#79d1b0" fill-opacity="0.95"/><circle cx="753.6" cy="507.7" r="4.5" fill="#79d1b0" fill-opacity="0.95"/><circle cx="761.0" cy="508.1" r="4.5" fill="#79d1b0" fill-opacity="0.95"/><circle cx="768.4" cy="507.6" r="4.5" fill="#79d1b0" fill-opacity="0.95"/><circle cx="775.8" cy="506.7" r="4.5" fill="#79d1b0" fill-opacity="0.95"/><circle cx="783.1" cy="508.1" r="4.5" fill="#79d1b0" fill-opacity="0.95"/><circle cx="790.5" cy="505.5" r="4.5" fill="#79d1b0" fill-opacity="0.95"/><circle cx="797.9" cy="505.7" r="4.5" fill="#79d1b0" fill-opacity="0.95"/><circle cx="805.3" cy="505.5" r="4.5" fill="#79d1b0" fill-opacity="0.95"/><circle cx="812.6" cy="505.1" r="4.5" fill="#79d1b0" fill-opacity="0.95"/><circle cx="820.0" cy="503.6" r="4.5" fill="#79d1b0" fill-opacity="0.95"/><polyline fill="none" stroke="#456eb4" stroke-width="4" stroke-linecap="round" stroke-linejoin="round" points="90.0,551.3 97.4,539.1 104.7,539.2 112.1,537.7 119.5,517.7 126.9,536.9 134.2,535.7 141.6,534.8 149.0,534.1 156.4,534.8 163.7,534.0 171.1,532.0 178.5,531.6 185.9,529.9 193.2,532.1 200.6,529.8 208.0,527.6 215.4,531.7 222.7,527.2 230.1,528.3 237.5,526.8 244.8,525.1 252.2,525.3 259.6,519.1 267.0,524.2 274.3,518.9 281.7,524.1 289.1,515.6 296.5,515.2 303.8,520.0 311.2,520.2 318.6,515.9 326.0,514.9 333.3,509.6 340.7,514.6 348.1,515.2 355.5,517.3 362.8,507.6 370.2,512.8 377.6,509.2 384.9,512.5 392.3,508.0 399.7,507.8 407.1,450.5 414.4,506.5 421.8,504.9 429.2,506.0 436.6,117.3 443.9,503.2 451.3,503.9 458.7,501.5 466.1,499.0 473.4,504.4 480.8,497.6 488.2,500.5 495.6,491.5 502.9,501.2 510.3,492.8 517.7,491.3 525.1,487.1 532.4,493.6 539.8,488.6 547.2,495.1 554.5,493.1 561.9,476.0 569.3,489.6 576.7,492.9 584.0,474.9 591.4,484.9 598.8,484.1 606.2,486.0 613.5,486.4 620.9,485.3 628.3,406.5 635.7,483.1 643.0,479.6 650.4,483.2 657.8,485.2 665.2,477.6 672.5,481.3 679.9,479.4 687.3,476.0 694.6,476.7 702.0,473.0 709.4,473.8 716.8,474.6 724.1,478.1 731.5,473.2 738.9,472.0 746.3,472.1 753.6,471.4 761.0,469.7 768.4,467.2 775.8,469.5 783.1,469.7 790.5,470.7 797.9,465.5 805.3,460.7 812.6,464.2 820.0,459.4"/><circle cx="90.0" cy="551.3" r="4.5" fill="#456eb4" fill-opacity="0.95"/><circle cx="97.4" cy="539.1" r="4.5" fill="#456eb4" fill-opacity="0.95"/><circle cx="104.7" cy="539.2" r="4.5" fill="#456eb4" fill-opacity="0.95"/><circle cx="112.1" cy="537.7" r="4.5" fill="#456eb4" fill-opacity="0.95"/><circle cx="119.5" cy="517.7" r="4.5" fill="#456eb4" fill-opacity="0.95"/><circle cx="126.9" cy="536.9" r="4.5" fill="#456eb4" fill-opacity="0.95"/><circle cx="134.2" cy="535.7" r="4.5" fill="#456eb4" fill-opacity="0.95"/><circle cx="141.6" cy="534.8" r="4.5" fill="#456eb4" fill-opacity="0.95"/><circle cx="149.0" cy="534.1" r="4.5" fill="#456eb4" fill-opacity="0.95"/><circle cx="156.4" cy="534.8" r="4.5" fill="#456eb4" fill-opacity="0.95"/><circle cx="163.7" cy="534.0" r="4.5" fill="#456eb4" fill-opacity="0.95"/><circle cx="171.1" cy="532.0" r="4.5" fill="#456eb4" fill-opacity="0.95"/><circle cx="178.5" cy="531.6" r="4.5" fill="#456eb4" fill-opacity="0.95"/><circle cx="185.9" cy="529.9" r="4.5" fill="#456eb4" fill-opacity="0.95"/><circle cx="193.2" cy="532.1" r="4.5" fill="#456eb4" fill-opacity="0.95"/><circle cx="200.6" cy="529.8" r="4.5" fill="#456eb4" fill-opacity="0.95"/><circle cx="208.0" cy="527.6" r="4.5" fill="#456eb4" fill-opacity="0.95"/><circle cx="215.4" cy="531.7" r="4.5" fill="#456eb4" fill-opacity="0.95"/><circle cx="222.7" cy="527.2" r="4.5" fill="#456eb4" fill-opacity="0.95"/><circle cx="230.1" cy="528.3" r="4.5" fill="#456eb4" fill-opacity="0.95"/><circle cx="237.5" cy="526.8" r="4.5" fill="#456eb4" fill-opacity="0.95"/><circle cx="244.8" cy="525.1" r="4.5" fill="#456eb4" fill-opacity="0.95"/><circle cx="252.2" cy="525.3" r="4.5" fill="#456eb4" fill-opacity="0.95"/><circle cx="259.6" cy="519.1" r="4.5" fill="#456eb4" fill-opacity="0.95"/><circle cx="267.0" cy="524.2" r="4.5" fill="#456eb4" fill-opacity="0.95"/><circle cx="274.3" cy="518.9" r="4.5" fill="#456eb4" fill-opacity="0.95"/><circle cx="281.7" cy="524.1" r="4.5" fill="#456eb4" fill-opacity="0.95"/><circle cx="289.1" cy="515.6" r="4.5" fill="#456eb4" fill-opacity="0.95"/><circle cx="296.5" cy="515.2" r="4.5" fill="#456eb4" fill-opacity="0.95"/><circle cx="303.8" cy="520.0" r="4.5" fill="#456eb4" fill-opacity="0.95"/><circle cx="311.2" cy="520.2" r="4.5" fill="#456eb4" fill-opacity="0.95"/><circle cx="318.6" cy="515.9" r="4.5" fill="#456eb4" fill-opacity="0.95"/><circle cx="326.0" cy="514.9" r="4.5" fill="#456eb4" fill-opacity="0.95"/><circle cx="333.3" cy="509.6" r="4.5" fill="#456eb4" fill-opacity="0.95"/><circle cx="340.7" cy="514.6" r="4.5" fill="#456eb4" fill-opacity="0.95"/><circle cx="348.1" cy="515.2" r="4.5" fill="#456eb4" fill-opacity="0.95"/><circle cx="355.5" cy="517.3" r="4.5" fill="#456eb4" fill-opacity="0.95"/><circle cx="362.8" cy="507.6" r="4.5" fill="#456eb4" fill-opacity="0.95"/><circle cx="370.2" cy="512.8" r="4.5" fill="#456eb4" fill-opacity="0.95"/><circle cx="377.6" cy="509.2" r="4.5" fill="#456eb4" fill-opacity="0.95"/><circle cx="384.9" cy="512.5" r="4.5" fill="#456eb4" fill-opacity="0.95"/><circle cx="392.3" cy="508.0" r="4.5" fill="#456eb4" fill-opacity="0.95"/><circle cx="399.7" cy="507.8" r="4.5" fill="#456eb4" fill-opacity="0.95"/><circle cx="407.1" cy="450.5" r="4.5" fill="#456eb4" fill-opacity="0.95"/><circle cx="414.4" cy="506.5" r="4.5" fill="#456eb4" fill-opacity="0.95"/><circle cx="421.8" cy="504.9" r="4.5" fill="#456eb4" fill-opacity="0.95"/><circle cx="429.2" cy="506.0" r="4.5" fill="#456eb4" fill-opacity="0.95"/><circle cx="436.6" cy="117.3" r="4.5" fill="#456eb4" fill-opacity="0.95"/><circle cx="443.9" cy="503.2" r="4.5" fill="#456eb4" fill-opacity="0.95"/><circle cx="451.3" cy="503.9" r="4.5" fill="#456eb4" fill-opacity="0.95"/><circle cx="458.7" cy="501.5" r="4.5" fill="#456eb4" fill-opacity="0.95"/><circle cx="466.1" cy="499.0" r="4.5" fill="#456eb4" fill-opacity="0.95"/><circle cx="473.4" cy="504.4" r="4.5" fill="#456eb4" fill-opacity="0.95"/><circle cx="480.8" cy="497.6" r="4.5" fill="#456eb4" fill-opacity="0.95"/><circle cx="488.2" cy="500.5" r="4.5" fill="#456eb4" fill-opacity="0.95"/><circle cx="495.6" cy="491.5" r="4.5" fill="#456eb4" fill-opacity="0.95"/><circle cx="502.9" cy="501.2" r="4.5" fill="#456eb4" fill-opacity="0.95"/><circle cx="510.3" cy="492.8" r="4.5" fill="#456eb4" fill-opacity="0.95"/><circle cx="517.7" cy="491.3" r="4.5" fill="#456eb4" fill-opacity="0.95"/><circle cx="525.1" cy="487.1" r="4.5" fill="#456eb4" fill-opacity="0.95"/><circle cx="532.4" cy="493.6" r="4.5" fill="#456eb4" fill-opacity="0.95"/><circle cx="539.8" cy="488.6" r="4.5" fill="#456eb4" fill-opacity="0.95"/><circle cx="547.2" cy="495.1" r="4.5" fill="#456eb4" fill-opacity="0.95"/><circle cx="554.5" cy="493.1" r="4.5" fill="#456eb4" fill-opacity="0.95"/><circle cx="561.9" cy="476.0" r="4.5" fill="#456eb4" fill-opacity="0.95"/><circle cx="569.3" cy="489.6" r="4.5" fill="#456eb4" fill-opacity="0.95"/><circle cx="576.7" cy="492.9" r="4.5" fill="#456eb4" fill-opacity="0.95"/><circle cx="584.0" cy="474.9" r="4.5" fill="#456eb4" fill-opacity="0.95"/><circle cx="591.4" cy="484.9" r="4.5" fill="#456eb4" fill-opacity="0.95"/><circle cx="598.8" cy="484.1" r="4.5" fill="#456eb4" fill-opacity="0.95"/><circle cx="606.2" cy="486.0" r="4.5" fill="#456eb4" fill-opacity="0.95"/><circle cx="613.5" cy="486.4" r="4.5" fill="#456eb4" fill-opacity="0.95"/><circle cx="620.9" cy="485.3" r="4.5" fill="#456eb4" fill-opacity="0.95"/><circle cx="628.3" cy="406.5" r="4.5" fill="#456eb4" fill-opacity="0.95"/><circle cx="635.7" cy="483.1" r="4.5" fill="#456eb4" fill-opacity="0.95"/><circle cx="643.0" cy="479.6" r="4.5" fill="#456eb4" fill-opacity="0.95"/><circle cx="650.4" cy="483.2" r="4.5" fill="#456eb4" fill-opacity="0.95"/><circle cx="657.8" cy="485.2" r="4.5" fill="#456eb4" fill-opacity="0.95"/><circle cx="665.2" cy="477.6" r="4.5" fill="#456eb4" fill-opacity="0.95"/><circle cx="672.5" cy="481.3" r="4.5" fill="#456eb4" fill-opacity="0.95"/><circle cx="679.9" cy="479.4" r="4.5" fill="#456eb4" fill-opacity="0.95"/><circle cx="687.3" cy="476.0" r="4.5" fill="#456eb4" fill-opacity="0.95"/><circle cx="694.6" cy="476.7" r="4.5" fill="#456eb4" fill-opacity="0.95"/><circle cx="702.0" cy="473.0" r="4.5" fill="#456eb4" fill-opacity="0.95"/><circle cx="709.4" cy="473.8" r="4.5" fill="#456eb4" fill-opacity="0.95"/><circle cx="716.8" cy="474.6" r="4.5" fill="#456eb4" fill-opacity="0.95"/><circle cx="724.1" cy="478.1" r="4.5" fill="#456eb4" fill-opacity="0.95"/><circle cx="731.5" cy="473.2" r="4.5" fill="#456eb4" fill-opacity="0.95"/><circle cx="738.9" cy="472.0" r="4.5" fill="#456eb4" fill-opacity="0.95"/><circle cx="746.3" cy="472.1" r="4.5" fill="#456eb4" fill-opacity="0.95"/><circle cx="753.6" cy="471.4" r="4.5" fill="#456eb4" fill-opacity="0.95"/><circle cx="761.0" cy="469.7" r="4.5" fill="#456eb4" fill-opacity="0.95"/><circle cx="768.4" cy="467.2" r="4.5" fill="#456eb4" fill-opacity="0.95"/><circle cx="775.8" cy="469.5" r="4.5" fill="#456eb4" fill-opacity="0.95"/><circle cx="783.1" cy="469.7" r="4.5" fill="#456eb4" fill-opacity="0.95"/><circle cx="790.5" cy="470.7" r="4.5" fill="#456eb4" fill-opacity="0.95"/><circle cx="797.9" cy="465.5" r="4.5" fill="#456eb4" fill-opacity="0.95"/><circle cx="805.3" cy="460.7" r="4.5" fill="#456eb4" fill-opacity="0.95"/><circle cx="812.6" cy="464.2" r="4.5" fill="#456eb4" fill-opacity="0.95"/><circle cx="820.0" cy="459.4" r="4.5" fill="#456eb4" fill-opacity="0.95"/><polyline fill="none" stroke="#22192e" stroke-width="4" stroke-linecap="round" stroke-linejoin="round" points="90.0,547.8 97.4,520.6 104.7,519.8 112.1,522.8 119.5,501.5 126.9,510.5 134.2,508.6 141.6,499.4 149.0,492.5 156.4,507.6 163.7,501.2 171.1,510.4 178.5,519.3 185.9,517.6 193.2,487.1 200.6,493.2 208.0,106.3 215.4,479.8 222.7,479.5 230.1,489.0 237.5,489.5 244.8,472.9 252.2,472.9 259.6,477.9 267.0,465.0 274.3,463.3 281.7,455.2 289.1,440.5 296.5,456.4 303.8,450.7 311.2,475.2 318.6,491.7 326.0,469.1 333.3,472.0 340.7,437.7 348.1,444.6 355.5,428.6 362.8,429.3 370.2,456.9 377.6,465.6 384.9,420.2 392.3,435.2 399.7,418.6 407.1,375.8 414.4,430.8 421.8,406.7 429.2,415.9 436.6,385.9 443.9,357.6 451.3,380.4 458.7,416.6 466.1,409.5 473.4,397.4 480.8,434.7 488.2,388.5 495.6,382.5 502.9,390.4 510.3,419.2 517.7,376.3 525.1,380.7 532.4,367.0 539.8,313.8 547.2,381.4 554.5,334.8 561.9,355.1 569.3,334.1 576.7,369.1 584.0,396.5 591.4,320.9 598.8,354.8 606.2,349.9 613.5,389.4 620.9,408.5 628.3,404.1 635.7,369.2 643.0,238.9 650.4,231.7 657.8,350.7 665.2,365.3 672.5,351.9 679.9,445.0 687.3,427.1 694.6,333.4 702.0,367.9 709.4,271.1 716.8,352.9 724.1,322.2 731.5,272.7 738.9,285.1 746.3,292.8 753.6,249.7 761.0,293.6 768.4,432.1 775.8,428.9 783.1,350.7 790.5,350.4 797.9,385.6 805.3,359.8 812.6,448.0 820.0,447.3"/><circle cx="90.0" cy="547.8" r="4.5" fill="#22192e" fill-opacity="0.95"/><circle cx="97.4" cy="520.6" r="4.5" fill="#22192e" fill-opacity="0.95"/><circle cx="104.7" cy="519.8" r="4.5" fill="#22192e" fill-opacity="0.95"/><circle cx="112.1" cy="522.8" r="4.5" fill="#22192e" fill-opacity="0.95"/><circle cx="119.5" cy="501.5" r="4.5" fill="#22192e" fill-opacity="0.95"/><circle cx="126.9" cy="510.5" r="4.5" fill="#22192e" fill-opacity="0.95"/><circle cx="134.2" cy="508.6" r="4.5" fill="#22192e" fill-opacity="0.95"/><circle cx="141.6" cy="499.4" r="4.5" fill="#22192e" fill-opacity="0.95"/><circle cx="149.0" cy="492.5" r="4.5" fill="#22192e" fill-opacity="0.95"/><circle cx="156.4" cy="507.6" r="4.5" fill="#22192e" fill-opacity="0.95"/><circle cx="163.7" cy="501.2" r="4.5" fill="#22192e" fill-opacity="0.95"/><circle cx="171.1" cy="510.4" r="4.5" fill="#22192e" fill-opacity="0.95"/><circle cx="178.5" cy="519.3" r="4.5" fill="#22192e" fill-opacity="0.95"/><circle cx="185.9" cy="517.6" r="4.5" fill="#22192e" fill-opacity="0.95"/><circle cx="193.2" cy="487.1" r="4.5" fill="#22192e" fill-opacity="0.95"/><circle cx="200.6" cy="493.2" r="4.5" fill="#22192e" fill-opacity="0.95"/><circle cx="208.0" cy="106.3" r="4.5" fill="#22192e" fill-opacity="0.95"/><circle cx="215.4" cy="479.8" r="4.5" fill="#22192e" fill-opacity="0.95"/><circle cx="222.7" cy="479.5" r="4.5" fill="#22192e" fill-opacity="0.95"/><circle cx="230.1" cy="489.0" r="4.5" fill="#22192e" fill-opacity="0.95"/><circle cx="237.5" cy="489.5" r="4.5" fill="#22192e" fill-opacity="0.95"/><circle cx="244.8" cy="472.9" r="4.5" fill="#22192e" fill-opacity="0.95"/><circle cx="252.2" cy="472.9" r="4.5" fill="#22192e" fill-opacity="0.95"/><circle cx="259.6" cy="477.9" r="4.5" fill="#22192e" fill-opacity="0.95"/><circle cx="267.0" cy="465.0" r="4.5" fill="#22192e" fill-opacity="0.95"/><circle cx="274.3" cy="463.3" r="4.5" fill="#22192e" fill-opacity="0.95"/><circle cx="281.7" cy="455.2" r="4.5" fill="#22192e" fill-opacity="0.95"/><circle cx="289.1" cy="440.5" r="4.5" fill="#22192e" fill-opacity="0.95"/><circle cx="296.5" cy="456.4" r="4.5" fill="#22192e" fill-opacity="0.95"/><circle cx="303.8" cy="450.7" r="4.5" fill="#22192e" fill-opacity="0.95"/><circle cx="311.2" cy="475.2" r="4.5" fill="#22192e" fill-opacity="0.95"/><circle cx="318.6" cy="491.7" r="4.5" fill="#22192e" fill-opacity="0.95"/><circle cx="326.0" cy="469.1" r="4.5" fill="#22192e" fill-opacity="0.95"/><circle cx="333.3" cy="472.0" r="4.5" fill="#22192e" fill-opacity="0.95"/><circle cx="340.7" cy="437.7" r="4.5" fill="#22192e" fill-opacity="0.95"/><circle cx="348.1" cy="444.6" r="4.5" fill="#22192e" fill-opacity="0.95"/><circle cx="355.5" cy="428.6" r="4.5" fill="#22192e" fill-opacity="0.95"/><circle cx="362.8" cy="429.3" r="4.5" fill="#22192e" fill-opacity="0.95"/><circle cx="370.2" cy="456.9" r="4.5" fill="#22192e" fill-opacity="0.95"/><circle cx="377.6" cy="465.6" r="4.5" fill="#22192e" fill-opacity="0.95"/><circle cx="384.9" cy="420.2" r="4.5" fill="#22192e" fill-opacity="0.95"/><circle cx="392.3" cy="435.2" r="4.5" fill="#22192e" fill-opacity="0.95"/><circle cx="399.7" cy="418.6" r="4.5" fill="#22192e" fill-opacity="0.95"/><circle cx="407.1" cy="375.8" r="4.5" fill="#22192e" fill-opacity="0.95"/><circle cx="414.4" cy="430.8" r="4.5" fill="#22192e" fill-opacity="0.95"/><circle cx="421.8" cy="406.7" r="4.5" fill="#22192e" fill-opacity="0.95"/><circle cx="429.2" cy="415.9" r="4.5" fill="#22192e" fill-opacity="0.95"/><circle cx="436.6" cy="385.9" r="4.5" fill="#22192e" fill-opacity="0.95"/><circle cx="443.9" cy="357.6" r="4.5" fill="#22192e" fill-opacity="0.95"/><circle cx="451.3" cy="380.4" r="4.5" fill="#22192e" fill-opacity="0.95"/><circle cx="458.7" cy="416.6" r="4.5" fill="#22192e" fill-opacity="0.95"/><circle cx="466.1" cy="409.5" r="4.5" fill="#22192e" fill-opacity="0.95"/><circle cx="473.4" cy="397.4" r="4.5" fill="#22192e" fill-opacity="0.95"/><circle cx="480.8" cy="434.7" r="4.5" fill="#22192e" fill-opacity="0.95"/><circle cx="488.2" cy="388.5" r="4.5" fill="#22192e" fill-opacity="0.95"/><circle cx="495.6" cy="382.5" r="4.5" fill="#22192e" fill-opacity="0.95"/><circle cx="502.9" cy="390.4" r="4.5" fill="#22192e" fill-opacity="0.95"/><circle cx="510.3" cy="419.2" r="4.5" fill="#22192e" fill-opacity="0.95"/><circle cx="517.7" cy="376.3" r="4.5" fill="#22192e" fill-opacity="0.95"/><circle cx="525.1" cy="380.7" r="4.5" fill="#22192e" fill-opacity="0.95"/><circle cx="532.4" cy="367.0" r="4.5" fill="#22192e" fill-opacity="0.95"/><circle cx="539.8" cy="313.8" r="4.5" fill="#22192e" fill-opacity="0.95"/><circle cx="547.2" cy="381.4" r="4.5" fill="#22192e" fill-opacity="0.95"/><circle cx="554.5" cy="334.8" r="4.5" fill="#22192e" fill-opacity="0.95"/><circle cx="561.9" cy="355.1" r="4.5" fill="#22192e" fill-opacity="0.95"/><circle cx="569.3" cy="334.1" r="4.5" fill="#22192e" fill-opacity="0.95"/><circle cx="576.7" cy="369.1" r="4.5" fill="#22192e" fill-opacity="0.95"/><circle cx="584.0" cy="396.5" r="4.5" fill="#22192e" fill-opacity="0.95"/><circle cx="591.4" cy="320.9" r="4.5" fill="#22192e" fill-opacity="0.95"/><circle cx="598.8" cy="354.8" r="4.5" fill="#22192e" fill-opacity="0.95"/><circle cx="606.2" cy="349.9" r="4.5" fill="#22192e" fill-opacity="0.95"/><circle cx="613.5" cy="389.4" r="4.5" fill="#22192e" fill-opacity="0.95"/><circle cx="620.9" cy="408.5" r="4.5" fill="#22192e" fill-opacity="0.95"/><circle cx="628.3" cy="404.1" r="4.5" fill="#22192e" fill-opacity="0.95"/><circle cx="635.7" cy="369.2" r="4.5" fill="#22192e" fill-opacity="0.95"/><circle cx="643.0" cy="238.9" r="4.5" fill="#22192e" fill-opacity="0.95"/><circle cx="650.4" cy="231.7" r="4.5" fill="#22192e" fill-opacity="0.95"/><circle cx="657.8" cy="350.7" r="4.5" fill="#22192e" fill-opacity="0.95"/><circle cx="665.2" cy="365.3" r="4.5" fill="#22192e" fill-opacity="0.95"/><circle cx="672.5" cy="351.9" r="4.5" fill="#22192e" fill-opacity="0.95"/><circle cx="679.9" cy="445.0" r="4.5" fill="#22192e" fill-opacity="0.95"/><circle cx="687.3" cy="427.1" r="4.5" fill="#22192e" fill-opacity="0.95"/><circle cx="694.6" cy="333.4" r="4.5" fill="#22192e" fill-opacity="0.95"/><circle cx="702.0" cy="367.9" r="4.5" fill="#22192e" fill-opacity="0.95"/><circle cx="709.4" cy="271.1" r="4.5" fill="#22192e" fill-opacity="0.95"/><circle cx="716.8" cy="352.9" r="4.5" fill="#22192e" fill-opacity="0.95"/><circle cx="724.1" cy="322.2" r="4.5" fill="#22192e" fill-opacity="0.95"/><circle cx="731.5" cy="272.7" r="4.5" fill="#22192e" fill-opacity="0.95"/><circle cx="738.9" cy="285.1" r="4.5" fill="#22192e" fill-opacity="0.95"/><circle cx="746.3" cy="292.8" r="4.5" fill="#22192e" fill-opacity="0.95"/><circle cx="753.6" cy="249.7" r="4.5" fill="#22192e" fill-opacity="0.95"/><circle cx="761.0" cy="293.6" r="4.5" fill="#22192e" fill-opacity="0.95"/><circle cx="768.4" cy="432.1" r="4.5" fill="#22192e" fill-opacity="0.95"/><circle cx="775.8" cy="428.9" r="4.5" fill="#22192e" fill-opacity="0.95"/><circle cx="783.1" cy="350.7" r="4.5" fill="#22192e" fill-opacity="0.95"/><circle cx="790.5" cy="350.4" r="4.5" fill="#22192e" fill-opacity="0.95"/><circle cx="797.9" cy="385.6" r="4.5" fill="#22192e" fill-opacity="0.95"/><circle cx="805.3" cy="359.8" r="4.5" fill="#22192e" fill-opacity="0.95"/><circle cx="812.6" cy="448.0" r="4.5" fill="#22192e" fill-opacity="0.95"/><circle cx="820.0" cy="447.3" r="4.5" fill="#22192e" fill-opacity="0.95"/>
  <rect x="830" y="76" width="180" height="122" rx="14" fill="#fffdfa" stroke="#d7d1cb" stroke-width="1.2"/><line x1="846" y1="100" x2="880" y2="100" stroke="#79d1b0" stroke-width="4" stroke-linecap="round"/><circle cx="863" cy="100" r="4.5" fill="#79d1b0"/><text x="894" y="107" font-size="21" font-family="Helvetica, Arial, sans-serif" fill="#2e2a28">Local</text><line x1="846" y1="134" x2="880" y2="134" stroke="#456eb4" stroke-width="4" stroke-linecap="round"/><circle cx="863" cy="134" r="4.5" fill="#456eb4"/><text x="894" y="141" font-size="21" font-family="Helvetica, Arial, sans-serif" fill="#2e2a28">Remote Near</text><line x1="846" y1="168" x2="880" y2="168" stroke="#22192e" stroke-width="4" stroke-linecap="round"/><circle cx="863" cy="168" r="4.5" fill="#22192e"/><text x="894" y="175" font-size="21" font-family="Helvetica, Arial, sans-serif" fill="#2e2a28">Remote Far</text>
  <text x="90.0" y="592" text-anchor="middle" font-size="18" font-family="Helvetica, Arial, sans-serif" fill="#6f6762">1</text><text x="156.4" y="592" text-anchor="middle" font-size="18" font-family="Helvetica, Arial, sans-serif" fill="#6f6762">10</text><text x="267.0" y="592" text-anchor="middle" font-size="18" font-family="Helvetica, Arial, sans-serif" fill="#6f6762">25</text><text x="451.3" y="592" text-anchor="middle" font-size="18" font-family="Helvetica, Arial, sans-serif" fill="#6f6762">50</text><text x="635.7" y="592" text-anchor="middle" font-size="18" font-family="Helvetica, Arial, sans-serif" fill="#6f6762">75</text><text x="820.0" y="592" text-anchor="middle" font-size="18" font-family="Helvetica, Arial, sans-serif" fill="#6f6762">100</text>
  <text x="76" y="566.0" text-anchor="end" font-size="18" font-family="Helvetica, Arial, sans-serif" fill="#6f6762">0.00</text><text x="76" y="469.6" text-anchor="end" font-size="18" font-family="Helvetica, Arial, sans-serif" fill="#6f6762">2.0</text><text x="76" y="373.3" text-anchor="end" font-size="18" font-family="Helvetica, Arial, sans-serif" fill="#6f6762">4.0</text><text x="76" y="276.9" text-anchor="end" font-size="18" font-family="Helvetica, Arial, sans-serif" fill="#6f6762">6.0</text><text x="76" y="180.6" text-anchor="end" font-size="18" font-family="Helvetica, Arial, sans-serif" fill="#6f6762">8.0</text><text x="76" y="84.2" text-anchor="end" font-size="18" font-family="Helvetica, Arial, sans-serif" fill="#6f6762">10.0</text>
  <text x="455.0" y="618" text-anchor="middle" font-size="20" font-family="Helvetica, Arial, sans-serif" fill="#2e2a28">Context Size</text>
  <g transform="translate(24 315.0) rotate(-90)">
    <text text-anchor="middle" font-size="20" font-family="Helvetica, Arial, sans-serif" fill="#2e2a28">TTFT (seconds)</text>
  </g>
</svg>
