<svg xmlns="http://www.w3.org/2000/svg" width="1040" height="640" viewBox="0 0 1040 640">
  <rect width="1040" height="640" fill="#fffdfa"/>
  <text x="90" y="38" font-size="28" font-weight="700" font-family="Helvetica, Arial, sans-serif" fill="#2e2a28">Omitted Past Screenshots by Region</text>
  <text x="90" y="62" font-size="16" font-family="Helvetica, Arial, sans-serif" fill="#6f6762">8B TTFT when only the latest screenshot remains visual and past ones are text placeholders.</text>
  <line x1="90.0" y1="70" x2="90.0" y2="560" stroke="#d7d1cb" stroke-width="1"/><line x1="156.4" y1="70" x2="156.4" y2="560" stroke="#d7d1cb" stroke-width="1"/><line x1="267.0" y1="70" x2="267.0" y2="560" stroke="#d7d1cb" stroke-width="1"/><line x1="451.3" y1="70" x2="451.3" y2="560" stroke="#d7d1cb" stroke-width="1"/><line x1="635.7" y1="70" x2="635.7" y2="560" stroke="#d7d1cb" stroke-width="1"/><line x1="820.0" y1="70" x2="820.0" y2="560" stroke="#d7d1cb" stroke-width="1"/><line x1="90" y1="560.0" x2="820" y2="560.0" stroke="#d7d1cb" stroke-width="1"/><line x1="90" y1="471.2" x2="820" y2="471.2" stroke="#d7d1cb" stroke-width="1"/><line x1="90" y1="382.3" x2="820" y2="382.3" stroke="#d7d1cb" stroke-width="1"/><line x1="90" y1="293.5" x2="820" y2="293.5" stroke="#d7d1cb" stroke-width="1"/><line x1="90" y1="204.6" x2="820" y2="204.6" stroke="#d7d1cb" stroke-width="1"/><line x1="90" y1="115.8" x2="820" y2="115.8" stroke="#d7d1cb" stroke-width="1"/><line x1="90" y1="27.0" x2="820" y2="27.0" stroke="#d7d1cb" stroke-width="1"/>
  <line x1="90" y1="560" x2="820" y2="560" stroke="#3f3a37" stroke-width="2"/>
  <line x1="90" y1="70" x2="90" y2="560" stroke="#3f3a37" stroke-width="2"/>
  <polyline fill="none" stroke="#79d1b0" stroke-width="4" stroke-linecap="round" stroke-linejoin="round" points="90.0,550.1 97.4,449.0 104.7,444.5 112.1,440.5 119.5,449.4 126.9,459.1 134.2,445.8 141.6,453.9 149.0,455.6 156.4,455.7 163.7,372.0 171.1,457.2 178.5,465.0 185.9,452.7 193.2,464.6 200.6,456.1 208.0,461.4 215.4,456.6 222.7,464.1 230.1,453.2 237.5,360.0 244.8,453.3 252.2,464.1 259.6,454.8 267.0,460.5 274.3,453.5 281.7,462.5 289.1,453.4 296.5,454.4 303.8,454.1 311.2,460.1 318.6,355.3 326.0,450.1 333.3,445.3 340.7,448.5 348.1,442.9 355.5,453.4 362.8,449.6 370.2,452.6 377.6,452.9 384.9,453.8 392.3,452.0 399.7,450.7 407.1,452.2 414.4,451.7 421.8,353.0 429.2,449.4 436.6,452.1 443.9,449.4 451.3,451.2 458.7,451.9 466.1,354.7 473.4,448.7 480.8,455.2 488.2,443.2 495.6,455.3 502.9,447.6 510.3,458.0 517.7,358.2 525.1,451.6 532.4,446.3 539.8,359.4 547.2,448.3 554.5,450.8 561.9,447.6 569.3,446.0 576.7,441.6 584.0,444.5 591.4,447.9 598.8,453.9 606.2,446.9 613.5,455.9 620.9,447.1 628.3,448.7 635.7,448.0 643.0,445.3 650.4,444.7 657.8,448.5 665.2,447.4 672.5,443.9 679.9,442.4 687.3,443.5 694.6,446.7 702.0,448.0 709.4,445.8 716.8,447.8 724.1,354.7 731.5,444.4 738.9,444.0 746.3,455.5 753.6,448.0 761.0,356.9 768.4,448.3 775.8,453.4 783.1,446.4 790.5,448.5 797.9,447.8 805.3,447.9 812.6,442.0 820.0,443.5"/><circle cx="90.0" cy="550.1" r="4.5" fill="#79d1b0" fill-opacity="0.95"/><circle cx="97.4" cy="449.0" r="4.5" fill="#79d1b0" fill-opacity="0.95"/><circle cx="104.7" cy="444.5" r="4.5" fill="#79d1b0" fill-opacity="0.95"/><circle cx="112.1" cy="440.5" r="4.5" fill="#79d1b0" fill-opacity="0.95"/><circle cx="119.5" cy="449.4" r="4.5" fill="#79d1b0" fill-opacity="0.95"/><circle cx="126.9" cy="459.1" r="4.5" fill="#79d1b0" fill-opacity="0.95"/><circle cx="134.2" cy="445.8" r="4.5" fill="#79d1b0" fill-opacity="0.95"/><circle cx="141.6" cy="453.9" r="4.5" fill="#79d1b0" fill-opacity="0.95"/><circle cx="149.0" cy="455.6" r="4.5" fill="#79d1b0" fill-opacity="0.95"/><circle cx="156.4" cy="455.7" r="4.5" fill="#79d1b0" fill-opacity="0.95"/><circle cx="163.7" cy="372.0" r="4.5" fill="#79d1b0" fill-opacity="0.95"/><circle cx="171.1" cy="457.2" r="4.5" fill="#79d1b0" fill-opacity="0.95"/><circle cx="178.5" cy="465.0" r="4.5" fill="#79d1b0" fill-opacity="0.95"/><circle cx="185.9" cy="452.7" r="4.5" fill="#79d1b0" fill-opacity="0.95"/><circle cx="193.2" cy="464.6" r="4.5" fill="#79d1b0" fill-opacity="0.95"/><circle cx="200.6" cy="456.1" r="4.5" fill="#79d1b0" fill-opacity="0.95"/><circle cx="208.0" cy="461.4" r="4.5" fill="#79d1b0" fill-opacity="0.95"/><circle cx="215.4" cy="456.6" r="4.5" fill="#79d1b0" fill-opacity="0.95"/><circle cx="222.7" cy="464.1" r="4.5" fill="#79d1b0" fill-opacity="0.95"/><circle cx="230.1" cy="453.2" r="4.5" fill="#79d1b0" fill-opacity="0.95"/><circle cx="237.5" cy="360.0" r="4.5" fill="#79d1b0" fill-opacity="0.95"/><circle cx="244.8" cy="453.3" r="4.5" fill="#79d1b0" fill-opacity="0.95"/><circle cx="252.2" cy="464.1" r="4.5" fill="#79d1b0" fill-opacity="0.95"/><circle cx="259.6" cy="454.8" r="4.5" fill="#79d1b0" fill-opacity="0.95"/><circle cx="267.0" cy="460.5" r="4.5" fill="#79d1b0" fill-opacity="0.95"/><circle cx="274.3" cy="453.5" r="4.5" fill="#79d1b0" fill-opacity="0.95"/><circle cx="281.7" cy="462.5" r="4.5" fill="#79d1b0" fill-opacity="0.95"/><circle cx="289.1" cy="453.4" r="4.5" fill="#79d1b0" fill-opacity="0.95"/><circle cx="296.5" cy="454.4" r="4.5" fill="#79d1b0" fill-opacity="0.95"/><circle cx="303.8" cy="454.1" r="4.5" fill="#79d1b0" fill-opacity="0.95"/><circle cx="311.2" cy="460.1" r="4.5" fill="#79d1b0" fill-opacity="0.95"/><circle cx="318.6" cy="355.3" r="4.5" fill="#79d1b0" fill-opacity="0.95"/><circle cx="326.0" cy="450.1" r="4.5" fill="#79d1b0" fill-opacity="0.95"/><circle cx="333.3" cy="445.3" r="4.5" fill="#79d1b0" fill-opacity="0.95"/><circle cx="340.7" cy="448.5" r="4.5" fill="#79d1b0" fill-opacity="0.95"/><circle cx="348.1" cy="442.9" r="4.5" fill="#79d1b0" fill-opacity="0.95"/><circle cx="355.5" cy="453.4" r="4.5" fill="#79d1b0" fill-opacity="0.95"/><circle cx="362.8" cy="449.6" r="4.5" fill="#79d1b0" fill-opacity="0.95"/><circle cx="370.2" cy="452.6" r="4.5" fill="#79d1b0" fill-opacity="0.95"/><circle cx="377.6" cy="452.9" r="4.5" fill="#79d1b0" fill-opacity="0.95"/><circle cx="384.9" cy="453.8" r="4.5" fill="#79d1b0" fill-opacity="0.95"/><circle cx="392.3" cy="452.0" r="4.5" fill="#79d1b0" fill-opacity="0.95"/><circle cx="399.7" cy="450.7" r="4.5" fill="#79d1b0" fill-opacity="0.95"/><circle cx="407.1" cy="452.2" r="4.5" fill="#79d1b0" fill-opacity="0.95"/><circle cx="414.4" cy="451.7" r="4.5" fill="#79d1b0" fill-opacity="0.95"/><circle cx="421.8" cy="353.0" r="4.5" fill="#79d1b0" fill-opacity="0.95"/><circle cx="429.2" cy="449.4" r="4.5" fill="#79d1b0" fill-opacity="0.95"/><circle cx="436.6" cy="452.1" r="4.5" fill="#79d1b0" fill-opacity="0.95"/><circle cx="443.9" cy="449.4" r="4.5" fill="#79d1b0" fill-opacity="0.95"/><circle cx="451.3" cy="451.2" r="4.5" fill="#79d1b0" fill-opacity="0.95"/><circle cx="458.7" cy="451.9" r="4.5" fill="#79d1b0" fill-opacity="0.95"/><circle cx="466.1" cy="354.7" r="4.5" fill="#79d1b0" fill-opacity="0.95"/><circle cx="473.4" cy="448.7" r="4.5" fill="#79d1b0" fill-opacity="0.95"/><circle cx="480.8" cy="455.2" r="4.5" fill="#79d1b0" fill-opacity="0.95"/><circle cx="488.2" cy="443.2" r="4.5" fill="#79d1b0" fill-opacity="0.95"/><circle cx="495.6" cy="455.3" r="4.5" fill="#79d1b0" fill-opacity="0.95"/><circle cx="502.9" cy="447.6" r="4.5" fill="#79d1b0" fill-opacity="0.95"/><circle cx="510.3" cy="458.0" r="4.5" fill="#79d1b0" fill-opacity="0.95"/><circle cx="517.7" cy="358.2" r="4.5" fill="#79d1b0" fill-opacity="0.95"/><circle cx="525.1" cy="451.6" r="4.5" fill="#79d1b0" fill-opacity="0.95"/><circle cx="532.4" cy="446.3" r="4.5" fill="#79d1b0" fill-opacity="0.95"/><circle cx="539.8" cy="359.4" r="4.5" fill="#79d1b0" fill-opacity="0.95"/><circle cx="547.2" cy="448.3" r="4.5" fill="#79d1b0" fill-opacity="0.95"/><circle cx="554.5" cy="450.8" r="4.5" fill="#79d1b0" fill-opacity="0.95"/><circle cx="561.9" cy="447.6" r="4.5" fill="#79d1b0" fill-opacity="0.95"/><circle cx="569.3" cy="446.0" r="4.5" fill="#79d1b0" fill-opacity="0.95"/><circle cx="576.7" cy="441.6" r="4.5" fill="#79d1b0" fill-opacity="0.95"/><circle cx="584.0" cy="444.5" r="4.5" fill="#79d1b0" fill-opacity="0.95"/><circle cx="591.4" cy="447.9" r="4.5" fill="#79d1b0" fill-opacity="0.95"/><circle cx="598.8" cy="453.9" r="4.5" fill="#79d1b0" fill-opacity="0.95"/><circle cx="606.2" cy="446.9" r="4.5" fill="#79d1b0" fill-opacity="0.95"/><circle cx="613.5" cy="455.9" r="4.5" fill="#79d1b0" fill-opacity="0.95"/><circle cx="620.9" cy="447.1" r="4.5" fill="#79d1b0" fill-opacity="0.95"/><circle cx="628.3" cy="448.7" r="4.5" fill="#79d1b0" fill-opacity="0.95"/><circle cx="635.7" cy="448.0" r="4.5" fill="#79d1b0" fill-opacity="0.95"/><circle cx="643.0" cy="445.3" r="4.5" fill="#79d1b0" fill-opacity="0.95"/><circle cx="650.4" cy="444.7" r="4.5" fill="#79d1b0" fill-opacity="0.95"/><circle cx="657.8" cy="448.5" r="4.5" fill="#79d1b0" fill-opacity="0.95"/><circle cx="665.2" cy="447.4" r="4.5" fill="#79d1b0" fill-opacity="0.95"/><circle cx="672.5" cy="443.9" r="4.5" fill="#79d1b0" fill-opacity="0.95"/><circle cx="679.9" cy="442.4" r="4.5" fill="#79d1b0" fill-opacity="0.95"/><circle cx="687.3" cy="443.5" r="4.5" fill="#79d1b0" fill-opacity="0.95"/><circle cx="694.6" cy="446.7" r="4.5" fill="#79d1b0" fill-opacity="0.95"/><circle cx="702.0" cy="448.0" r="4.5" fill="#79d1b0" fill-opacity="0.95"/><circle cx="709.4" cy="445.8" r="4.5" fill="#79d1b0" fill-opacity="0.95"/><circle cx="716.8" cy="447.8" r="4.5" fill="#79d1b0" fill-opacity="0.95"/><circle cx="724.1" cy="354.7" r="4.5" fill="#79d1b0" fill-opacity="0.95"/><circle cx="731.5" cy="444.4" r="4.5" fill="#79d1b0" fill-opacity="0.95"/><circle cx="738.9" cy="444.0" r="4.5" fill="#79d1b0" fill-opacity="0.95"/><circle cx="746.3" cy="455.5" r="4.5" fill="#79d1b0" fill-opacity="0.95"/><circle cx="753.6" cy="448.0" r="4.5" fill="#79d1b0" fill-opacity="0.95"/><circle cx="761.0" cy="356.9" r="4.5" fill="#79d1b0" fill-opacity="0.95"/><circle cx="768.4" cy="448.3" r="4.5" fill="#79d1b0" fill-opacity="0.95"/><circle cx="775.8" cy="453.4" r="4.5" fill="#79d1b0" fill-opacity="0.95"/><circle cx="783.1" cy="446.4" r="4.5" fill="#79d1b0" fill-opacity="0.95"/><circle cx="790.5" cy="448.5" r="4.5" fill="#79d1b0" fill-opacity="0.95"/><circle cx="797.9" cy="447.8" r="4.5" fill="#79d1b0" fill-opacity="0.95"/><circle cx="805.3" cy="447.9" r="4.5" fill="#79d1b0" fill-opacity="0.95"/><circle cx="812.6" cy="442.0" r="4.5" fill="#79d1b0" fill-opacity="0.95"/><circle cx="820.0" cy="443.5" r="4.5" fill="#79d1b0" fill-opacity="0.95"/><polyline fill="none" stroke="#456eb4" stroke-width="4" stroke-linecap="round" stroke-linejoin="round" points="90.0,472.7 97.4,374.0 104.7,389.3 112.1,381.3 119.5,392.8 126.9,389.2 134.2,389.8 141.6,384.3 149.0,391.7 156.4,393.4 163.7,394.3 171.1,358.1 178.5,392.9 185.9,390.2 193.2,385.9 200.6,391.8 208.0,386.0 215.4,326.7 222.7,396.7 230.1,375.8 237.5,400.1 244.8,371.2 252.2,379.8 259.6,381.2 267.0,383.9 274.3,384.9 281.7,373.1 289.1,372.5 296.5,378.2 303.8,383.4 311.2,376.8 318.6,366.7 326.0,369.9 333.3,376.8 340.7,360.6 348.1,383.5 355.5,369.2 362.8,405.7 370.2,385.1 377.6,397.3 384.9,384.6 392.3,393.4 399.7,369.7 407.1,359.3 414.4,369.5 421.8,269.4 429.2,378.0 436.6,376.1 443.9,366.2 451.3,374.6 458.7,343.8 466.1,366.4 473.4,366.3 480.8,370.0 488.2,371.2 495.6,382.3 502.9,398.4 510.3,391.6 517.7,376.6 525.1,384.7 532.4,385.6 539.8,389.1 547.2,370.9 554.5,381.6 561.9,367.2 569.3,390.4 576.7,370.9 584.0,370.3 591.4,383.5 598.8,361.8 606.2,371.0 613.5,361.2 620.9,368.4 628.3,384.2 635.7,377.1 643.0,375.9 650.4,363.6 657.8,368.5 665.2,373.2 672.5,376.0 679.9,362.6 687.3,292.8 694.6,393.9 702.0,356.9 709.4,377.0 716.8,360.2 724.1,375.3 731.5,369.5 738.9,358.4 746.3,365.2 753.6,379.8 761.0,366.9 768.4,386.0 775.8,340.4 783.1,390.6 790.5,370.5 797.9,373.8 805.3,393.6 812.6,389.9 820.0,380.0"/><circle cx="90.0" cy="472.7" r="4.5" fill="#456eb4" fill-opacity="0.95"/><circle cx="97.4" cy="374.0" r="4.5" fill="#456eb4" fill-opacity="0.95"/><circle cx="104.7" cy="389.3" r="4.5" fill="#456eb4" fill-opacity="0.95"/><circle cx="112.1" cy="381.3" r="4.5" fill="#456eb4" fill-opacity="0.95"/><circle cx="119.5" cy="392.8" r="4.5" fill="#456eb4" fill-opacity="0.95"/><circle cx="126.9" cy="389.2" r="4.5" fill="#456eb4" fill-opacity="0.95"/><circle cx="134.2" cy="389.8" r="4.5" fill="#456eb4" fill-opacity="0.95"/><circle cx="141.6" cy="384.3" r="4.5" fill="#456eb4" fill-opacity="0.95"/><circle cx="149.0" cy="391.7" r="4.5" fill="#456eb4" fill-opacity="0.95"/><circle cx="156.4" cy="393.4" r="4.5" fill="#456eb4" fill-opacity="0.95"/><circle cx="163.7" cy="394.3" r="4.5" fill="#456eb4" fill-opacity="0.95"/><circle cx="171.1" cy="358.1" r="4.5" fill="#456eb4" fill-opacity="0.95"/><circle cx="178.5" cy="392.9" r="4.5" fill="#456eb4" fill-opacity="0.95"/><circle cx="185.9" cy="390.2" r="4.5" fill="#456eb4" fill-opacity="0.95"/><circle cx="193.2" cy="385.9" r="4.5" fill="#456eb4" fill-opacity="0.95"/><circle cx="200.6" cy="391.8" r="4.5" fill="#456eb4" fill-opacity="0.95"/><circle cx="208.0" cy="386.0" r="4.5" fill="#456eb4" fill-opacity="0.95"/><circle cx="215.4" cy="326.7" r="4.5" fill="#456eb4" fill-opacity="0.95"/><circle cx="222.7" cy="396.7" r="4.5" fill="#456eb4" fill-opacity="0.95"/><circle cx="230.1" cy="375.8" r="4.5" fill="#456eb4" fill-opacity="0.95"/><circle cx="237.5" cy="400.1" r="4.5" fill="#456eb4" fill-opacity="0.95"/><circle cx="244.8" cy="371.2" r="4.5" fill="#456eb4" fill-opacity="0.95"/><circle cx="252.2" cy="379.8" r="4.5" fill="#456eb4" fill-opacity="0.95"/><circle cx="259.6" cy="381.2" r="4.5" fill="#456eb4" fill-opacity="0.95"/><circle cx="267.0" cy="383.9" r="4.5" fill="#456eb4" fill-opacity="0.95"/><circle cx="274.3" cy="384.9" r="4.5" fill="#456eb4" fill-opacity="0.95"/><circle cx="281.7" cy="373.1" r="4.5" fill="#456eb4" fill-opacity="0.95"/><circle cx="289.1" cy="372.5" r="4.5" fill="#456eb4" fill-opacity="0.95"/><circle cx="296.5" cy="378.2" r="4.5" fill="#456eb4" fill-opacity="0.95"/><circle cx="303.8" cy="383.4" r="4.5" fill="#456eb4" fill-opacity="0.95"/><circle cx="311.2" cy="376.8" r="4.5" fill="#456eb4" fill-opacity="0.95"/><circle cx="318.6" cy="366.7" r="4.5" fill="#456eb4" fill-opacity="0.95"/><circle cx="326.0" cy="369.9" r="4.5" fill="#456eb4" fill-opacity="0.95"/><circle cx="333.3" cy="376.8" r="4.5" fill="#456eb4" fill-opacity="0.95"/><circle cx="340.7" cy="360.6" r="4.5" fill="#456eb4" fill-opacity="0.95"/><circle cx="348.1" cy="383.5" r="4.5" fill="#456eb4" fill-opacity="0.95"/><circle cx="355.5" cy="369.2" r="4.5" fill="#456eb4" fill-opacity="0.95"/><circle cx="362.8" cy="405.7" r="4.5" fill="#456eb4" fill-opacity="0.95"/><circle cx="370.2" cy="385.1" r="4.5" fill="#456eb4" fill-opacity="0.95"/><circle cx="377.6" cy="397.3" r="4.5" fill="#456eb4" fill-opacity="0.95"/><circle cx="384.9" cy="384.6" r="4.5" fill="#456eb4" fill-opacity="0.95"/><circle cx="392.3" cy="393.4" r="4.5" fill="#456eb4" fill-opacity="0.95"/><circle cx="399.7" cy="369.7" r="4.5" fill="#456eb4" fill-opacity="0.95"/><circle cx="407.1" cy="359.3" r="4.5" fill="#456eb4" fill-opacity="0.95"/><circle cx="414.4" cy="369.5" r="4.5" fill="#456eb4" fill-opacity="0.95"/><circle cx="421.8" cy="269.4" r="4.5" fill="#456eb4" fill-opacity="0.95"/><circle cx="429.2" cy="378.0" r="4.5" fill="#456eb4" fill-opacity="0.95"/><circle cx="436.6" cy="376.1" r="4.5" fill="#456eb4" fill-opacity="0.95"/><circle cx="443.9" cy="366.2" r="4.5" fill="#456eb4" fill-opacity="0.95"/><circle cx="451.3" cy="374.6" r="4.5" fill="#456eb4" fill-opacity="0.95"/><circle cx="458.7" cy="343.8" r="4.5" fill="#456eb4" fill-opacity="0.95"/><circle cx="466.1" cy="366.4" r="4.5" fill="#456eb4" fill-opacity="0.95"/><circle cx="473.4" cy="366.3" r="4.5" fill="#456eb4" fill-opacity="0.95"/><circle cx="480.8" cy="370.0" r="4.5" fill="#456eb4" fill-opacity="0.95"/><circle cx="488.2" cy="371.2" r="4.5" fill="#456eb4" fill-opacity="0.95"/><circle cx="495.6" cy="382.3" r="4.5" fill="#456eb4" fill-opacity="0.95"/><circle cx="502.9" cy="398.4" r="4.5" fill="#456eb4" fill-opacity="0.95"/><circle cx="510.3" cy="391.6" r="4.5" fill="#456eb4" fill-opacity="0.95"/><circle cx="517.7" cy="376.6" r="4.5" fill="#456eb4" fill-opacity="0.95"/><circle cx="525.1" cy="384.7" r="4.5" fill="#456eb4" fill-opacity="0.95"/><circle cx="532.4" cy="385.6" r="4.5" fill="#456eb4" fill-opacity="0.95"/><circle cx="539.8" cy="389.1" r="4.5" fill="#456eb4" fill-opacity="0.95"/><circle cx="547.2" cy="370.9" r="4.5" fill="#456eb4" fill-opacity="0.95"/><circle cx="554.5" cy="381.6" r="4.5" fill="#456eb4" fill-opacity="0.95"/><circle cx="561.9" cy="367.2" r="4.5" fill="#456eb4" fill-opacity="0.95"/><circle cx="569.3" cy="390.4" r="4.5" fill="#456eb4" fill-opacity="0.95"/><circle cx="576.7" cy="370.9" r="4.5" fill="#456eb4" fill-opacity="0.95"/><circle cx="584.0" cy="370.3" r="4.5" fill="#456eb4" fill-opacity="0.95"/><circle cx="591.4" cy="383.5" r="4.5" fill="#456eb4" fill-opacity="0.95"/><circle cx="598.8" cy="361.8" r="4.5" fill="#456eb4" fill-opacity="0.95"/><circle cx="606.2" cy="371.0" r="4.5" fill="#456eb4" fill-opacity="0.95"/><circle cx="613.5" cy="361.2" r="4.5" fill="#456eb4" fill-opacity="0.95"/><circle cx="620.9" cy="368.4" r="4.5" fill="#456eb4" fill-opacity="0.95"/><circle cx="628.3" cy="384.2" r="4.5" fill="#456eb4" fill-opacity="0.95"/><circle cx="635.7" cy="377.1" r="4.5" fill="#456eb4" fill-opacity="0.95"/><circle cx="643.0" cy="375.9" r="4.5" fill="#456eb4" fill-opacity="0.95"/><circle cx="650.4" cy="363.6" r="4.5" fill="#456eb4" fill-opacity="0.95"/><circle cx="657.8" cy="368.5" r="4.5" fill="#456eb4" fill-opacity="0.95"/><circle cx="665.2" cy="373.2" r="4.5" fill="#456eb4" fill-opacity="0.95"/><circle cx="672.5" cy="376.0" r="4.5" fill="#456eb4" fill-opacity="0.95"/><circle cx="679.9" cy="362.6" r="4.5" fill="#456eb4" fill-opacity="0.95"/><circle cx="687.3" cy="292.8" r="4.5" fill="#456eb4" fill-opacity="0.95"/><circle cx="694.6" cy="393.9" r="4.5" fill="#456eb4" fill-opacity="0.95"/><circle cx="702.0" cy="356.9" r="4.5" fill="#456eb4" fill-opacity="0.95"/><circle cx="709.4" cy="377.0" r="4.5" fill="#456eb4" fill-opacity="0.95"/><circle cx="716.8" cy="360.2" r="4.5" fill="#456eb4" fill-opacity="0.95"/><circle cx="724.1" cy="375.3" r="4.5" fill="#456eb4" fill-opacity="0.95"/><circle cx="731.5" cy="369.5" r="4.5" fill="#456eb4" fill-opacity="0.95"/><circle cx="738.9" cy="358.4" r="4.5" fill="#456eb4" fill-opacity="0.95"/><circle cx="746.3" cy="365.2" r="4.5" fill="#456eb4" fill-opacity="0.95"/><circle cx="753.6" cy="379.8" r="4.5" fill="#456eb4" fill-opacity="0.95"/><circle cx="761.0" cy="366.9" r="4.5" fill="#456eb4" fill-opacity="0.95"/><circle cx="768.4" cy="386.0" r="4.5" fill="#456eb4" fill-opacity="0.95"/><circle cx="775.8" cy="340.4" r="4.5" fill="#456eb4" fill-opacity="0.95"/><circle cx="783.1" cy="390.6" r="4.5" fill="#456eb4" fill-opacity="0.95"/><circle cx="790.5" cy="370.5" r="4.5" fill="#456eb4" fill-opacity="0.95"/><circle cx="797.9" cy="373.8" r="4.5" fill="#456eb4" fill-opacity="0.95"/><circle cx="805.3" cy="393.6" r="4.5" fill="#456eb4" fill-opacity="0.95"/><circle cx="812.6" cy="389.9" r="4.5" fill="#456eb4" fill-opacity="0.95"/><circle cx="820.0" cy="380.0" r="4.5" fill="#456eb4" fill-opacity="0.95"/><polyline fill="none" stroke="#22192e" stroke-width="4" stroke-linecap="round" stroke-linejoin="round" points="90.0,448.6 97.4,147.1 104.7,283.4 112.1,187.1 119.5,260.6 126.9,228.7 134.2,255.1 141.6,273.9 149.0,248.8 156.4,255.2 163.7,240.8 171.1,307.3 178.5,244.0 185.9,259.3 193.2,268.0 200.6,265.2 208.0,276.5 215.4,270.6 222.7,225.8 230.1,258.1 237.5,302.9 244.8,303.9 252.2,318.7 259.6,246.5 267.0,225.4 274.3,236.4 281.7,260.5 289.1,125.2 296.5,188.2 303.8,209.1 311.2,191.9 318.6,245.2 326.0,252.7 333.3,297.7 340.7,247.3 348.1,245.6 355.5,241.0 362.8,262.8 370.2,239.6 377.6,175.8 384.9,184.0 392.3,275.1 399.7,247.4 407.1,227.1 414.4,254.6 421.8,295.4 429.2,227.4 436.6,202.4 443.9,243.4 451.3,199.4 458.7,267.2 466.1,302.7 473.4,255.2 480.8,280.2 488.2,189.5 495.6,290.2 502.9,251.5 510.3,316.7 517.7,244.1 525.1,276.6 532.4,265.2 539.8,187.6 547.2,221.0 554.5,172.8 561.9,194.6 569.3,227.2 576.7,284.2 584.0,287.4 591.4,106.3 598.8,227.3 606.2,206.0 613.5,237.8 620.9,184.3 628.3,208.1 635.7,189.3 643.0,234.8 650.4,193.6 657.8,295.5 665.2,267.1 672.5,212.4 679.9,223.8 687.3,158.1 694.6,316.7 702.0,282.1 709.4,271.1 716.8,273.4 724.1,183.4 731.5,252.9 738.9,223.4 746.3,234.1 753.6,274.5 761.0,249.8 768.4,237.9 775.8,275.5 783.1,216.2 790.5,280.4 797.9,284.3 805.3,254.1 812.6,229.9 820.0,239.0"/><circle cx="90.0" cy="448.6" r="4.5" fill="#22192e" fill-opacity="0.95"/><circle cx="97.4" cy="147.1" r="4.5" fill="#22192e" fill-opacity="0.95"/><circle cx="104.7" cy="283.4" r="4.5" fill="#22192e" fill-opacity="0.95"/><circle cx="112.1" cy="187.1" r="4.5" fill="#22192e" fill-opacity="0.95"/><circle cx="119.5" cy="260.6" r="4.5" fill="#22192e" fill-opacity="0.95"/><circle cx="126.9" cy="228.7" r="4.5" fill="#22192e" fill-opacity="0.95"/><circle cx="134.2" cy="255.1" r="4.5" fill="#22192e" fill-opacity="0.95"/><circle cx="141.6" cy="273.9" r="4.5" fill="#22192e" fill-opacity="0.95"/><circle cx="149.0" cy="248.8" r="4.5" fill="#22192e" fill-opacity="0.95"/><circle cx="156.4" cy="255.2" r="4.5" fill="#22192e" fill-opacity="0.95"/><circle cx="163.7" cy="240.8" r="4.5" fill="#22192e" fill-opacity="0.95"/><circle cx="171.1" cy="307.3" r="4.5" fill="#22192e" fill-opacity="0.95"/><circle cx="178.5" cy="244.0" r="4.5" fill="#22192e" fill-opacity="0.95"/><circle cx="185.9" cy="259.3" r="4.5" fill="#22192e" fill-opacity="0.95"/><circle cx="193.2" cy="268.0" r="4.5" fill="#22192e" fill-opacity="0.95"/><circle cx="200.6" cy="265.2" r="4.5" fill="#22192e" fill-opacity="0.95"/><circle cx="208.0" cy="276.5" r="4.5" fill="#22192e" fill-opacity="0.95"/><circle cx="215.4" cy="270.6" r="4.5" fill="#22192e" fill-opacity="0.95"/><circle cx="222.7" cy="225.8" r="4.5" fill="#22192e" fill-opacity="0.95"/><circle cx="230.1" cy="258.1" r="4.5" fill="#22192e" fill-opacity="0.95"/><circle cx="237.5" cy="302.9" r="4.5" fill="#22192e" fill-opacity="0.95"/><circle cx="244.8" cy="303.9" r="4.5" fill="#22192e" fill-opacity="0.95"/><circle cx="252.2" cy="318.7" r="4.5" fill="#22192e" fill-opacity="0.95"/><circle cx="259.6" cy="246.5" r="4.5" fill="#22192e" fill-opacity="0.95"/><circle cx="267.0" cy="225.4" r="4.5" fill="#22192e" fill-opacity="0.95"/><circle cx="274.3" cy="236.4" r="4.5" fill="#22192e" fill-opacity="0.95"/><circle cx="281.7" cy="260.5" r="4.5" fill="#22192e" fill-opacity="0.95"/><circle cx="289.1" cy="125.2" r="4.5" fill="#22192e" fill-opacity="0.95"/><circle cx="296.5" cy="188.2" r="4.5" fill="#22192e" fill-opacity="0.95"/><circle cx="303.8" cy="209.1" r="4.5" fill="#22192e" fill-opacity="0.95"/><circle cx="311.2" cy="191.9" r="4.5" fill="#22192e" fill-opacity="0.95"/><circle cx="318.6" cy="245.2" r="4.5" fill="#22192e" fill-opacity="0.95"/><circle cx="326.0" cy="252.7" r="4.5" fill="#22192e" fill-opacity="0.95"/><circle cx="333.3" cy="297.7" r="4.5" fill="#22192e" fill-opacity="0.95"/><circle cx="340.7" cy="247.3" r="4.5" fill="#22192e" fill-opacity="0.95"/><circle cx="348.1" cy="245.6" r="4.5" fill="#22192e" fill-opacity="0.95"/><circle cx="355.5" cy="241.0" r="4.5" fill="#22192e" fill-opacity="0.95"/><circle cx="362.8" cy="262.8" r="4.5" fill="#22192e" fill-opacity="0.95"/><circle cx="370.2" cy="239.6" r="4.5" fill="#22192e" fill-opacity="0.95"/><circle cx="377.6" cy="175.8" r="4.5" fill="#22192e" fill-opacity="0.95"/><circle cx="384.9" cy="184.0" r="4.5" fill="#22192e" fill-opacity="0.95"/><circle cx="392.3" cy="275.1" r="4.5" fill="#22192e" fill-opacity="0.95"/><circle cx="399.7" cy="247.4" r="4.5" fill="#22192e" fill-opacity="0.95"/><circle cx="407.1" cy="227.1" r="4.5" fill="#22192e" fill-opacity="0.95"/><circle cx="414.4" cy="254.6" r="4.5" fill="#22192e" fill-opacity="0.95"/><circle cx="421.8" cy="295.4" r="4.5" fill="#22192e" fill-opacity="0.95"/><circle cx="429.2" cy="227.4" r="4.5" fill="#22192e" fill-opacity="0.95"/><circle cx="436.6" cy="202.4" r="4.5" fill="#22192e" fill-opacity="0.95"/><circle cx="443.9" cy="243.4" r="4.5" fill="#22192e" fill-opacity="0.95"/><circle cx="451.3" cy="199.4" r="4.5" fill="#22192e" fill-opacity="0.95"/><circle cx="458.7" cy="267.2" r="4.5" fill="#22192e" fill-opacity="0.95"/><circle cx="466.1" cy="302.7" r="4.5" fill="#22192e" fill-opacity="0.95"/><circle cx="473.4" cy="255.2" r="4.5" fill="#22192e" fill-opacity="0.95"/><circle cx="480.8" cy="280.2" r="4.5" fill="#22192e" fill-opacity="0.95"/><circle cx="488.2" cy="189.5" r="4.5" fill="#22192e" fill-opacity="0.95"/><circle cx="495.6" cy="290.2" r="4.5" fill="#22192e" fill-opacity="0.95"/><circle cx="502.9" cy="251.5" r="4.5" fill="#22192e" fill-opacity="0.95"/><circle cx="510.3" cy="316.7" r="4.5" fill="#22192e" fill-opacity="0.95"/><circle cx="517.7" cy="244.1" r="4.5" fill="#22192e" fill-opacity="0.95"/><circle cx="525.1" cy="276.6" r="4.5" fill="#22192e" fill-opacity="0.95"/><circle cx="532.4" cy="265.2" r="4.5" fill="#22192e" fill-opacity="0.95"/><circle cx="539.8" cy="187.6" r="4.5" fill="#22192e" fill-opacity="0.95"/><circle cx="547.2" cy="221.0" r="4.5" fill="#22192e" fill-opacity="0.95"/><circle cx="554.5" cy="172.8" r="4.5" fill="#22192e" fill-opacity="0.95"/><circle cx="561.9" cy="194.6" r="4.5" fill="#22192e" fill-opacity="0.95"/><circle cx="569.3" cy="227.2" r="4.5" fill="#22192e" fill-opacity="0.95"/><circle cx="576.7" cy="284.2" r="4.5" fill="#22192e" fill-opacity="0.95"/><circle cx="584.0" cy="287.4" r="4.5" fill="#22192e" fill-opacity="0.95"/><circle cx="591.4" cy="106.3" r="4.5" fill="#22192e" fill-opacity="0.95"/><circle cx="598.8" cy="227.3" r="4.5" fill="#22192e" fill-opacity="0.95"/><circle cx="606.2" cy="206.0" r="4.5" fill="#22192e" fill-opacity="0.95"/><circle cx="613.5" cy="237.8" r="4.5" fill="#22192e" fill-opacity="0.95"/><circle cx="620.9" cy="184.3" r="4.5" fill="#22192e" fill-opacity="0.95"/><circle cx="628.3" cy="208.1" r="4.5" fill="#22192e" fill-opacity="0.95"/><circle cx="635.7" cy="189.3" r="4.5" fill="#22192e" fill-opacity="0.95"/><circle cx="643.0" cy="234.8" r="4.5" fill="#22192e" fill-opacity="0.95"/><circle cx="650.4" cy="193.6" r="4.5" fill="#22192e" fill-opacity="0.95"/><circle cx="657.8" cy="295.5" r="4.5" fill="#22192e" fill-opacity="0.95"/><circle cx="665.2" cy="267.1" r="4.5" fill="#22192e" fill-opacity="0.95"/><circle cx="672.5" cy="212.4" r="4.5" fill="#22192e" fill-opacity="0.95"/><circle cx="679.9" cy="223.8" r="4.5" fill="#22192e" fill-opacity="0.95"/><circle cx="687.3" cy="158.1" r="4.5" fill="#22192e" fill-opacity="0.95"/><circle cx="694.6" cy="316.7" r="4.5" fill="#22192e" fill-opacity="0.95"/><circle cx="702.0" cy="282.1" r="4.5" fill="#22192e" fill-opacity="0.95"/><circle cx="709.4" cy="271.1" r="4.5" fill="#22192e" fill-opacity="0.95"/><circle cx="716.8" cy="273.4" r="4.5" fill="#22192e" fill-opacity="0.95"/><circle cx="724.1" cy="183.4" r="4.5" fill="#22192e" fill-opacity="0.95"/><circle cx="731.5" cy="252.9" r="4.5" fill="#22192e" fill-opacity="0.95"/><circle cx="738.9" cy="223.4" r="4.5" fill="#22192e" fill-opacity="0.95"/><circle cx="746.3" cy="234.1" r="4.5" fill="#22192e" fill-opacity="0.95"/><circle cx="753.6" cy="274.5" r="4.5" fill="#22192e" fill-opacity="0.95"/><circle cx="761.0" cy="249.8" r="4.5" fill="#22192e" fill-opacity="0.95"/><circle cx="768.4" cy="237.9" r="4.5" fill="#22192e" fill-opacity="0.95"/><circle cx="775.8" cy="275.5" r="4.5" fill="#22192e" fill-opacity="0.95"/><circle cx="783.1" cy="216.2" r="4.5" fill="#22192e" fill-opacity="0.95"/><circle cx="790.5" cy="280.4" r="4.5" fill="#22192e" fill-opacity="0.95"/><circle cx="797.9" cy="284.3" r="4.5" fill="#22192e" fill-opacity="0.95"/><circle cx="805.3" cy="254.1" r="4.5" fill="#22192e" fill-opacity="0.95"/><circle cx="812.6" cy="229.9" r="4.5" fill="#22192e" fill-opacity="0.95"/><circle cx="820.0" cy="239.0" r="4.5" fill="#22192e" fill-opacity="0.95"/>
  <rect x="830" y="76" width="180" height="122" rx="14" fill="#fffdfa" stroke="#d7d1cb" stroke-width="1.2"/><line x1="846" y1="100" x2="880" y2="100" stroke="#79d1b0" stroke-width="4" stroke-linecap="round"/><circle cx="863" cy="100" r="4.5" fill="#79d1b0"/><text x="894" y="107" font-size="21" font-family="Helvetica, Arial, sans-serif" fill="#2e2a28">Local</text><line x1="846" y1="134" x2="880" y2="134" stroke="#456eb4" stroke-width="4" stroke-linecap="round"/><circle cx="863" cy="134" r="4.5" fill="#456eb4"/><text x="894" y="141" font-size="21" font-family="Helvetica, Arial, sans-serif" fill="#2e2a28">Remote Near</text><line x1="846" y1="168" x2="880" y2="168" stroke="#22192e" stroke-width="4" stroke-linecap="round"/><circle cx="863" cy="168" r="4.5" fill="#22192e"/><text x="894" y="175" font-size="21" font-family="Helvetica, Arial, sans-serif" fill="#2e2a28">Remote Far</text>
  <text x="90.0" y="592" text-anchor="middle" font-size="18" font-family="Helvetica, Arial, sans-serif" fill="#6f6762">1</text><text x="156.4" y="592" text-anchor="middle" font-size="18" font-family="Helvetica, Arial, sans-serif" fill="#6f6762">10</text><text x="267.0" y="592" text-anchor="middle" font-size="18" font-family="Helvetica, Arial, sans-serif" fill="#6f6762">25</text><text x="451.3" y="592" text-anchor="middle" font-size="18" font-family="Helvetica, Arial, sans-serif" fill="#6f6762">50</text><text x="635.7" y="592" text-anchor="middle" font-size="18" font-family="Helvetica, Arial, sans-serif" fill="#6f6762">75</text><text x="820.0" y="592" text-anchor="middle" font-size="18" font-family="Helvetica, Arial, sans-serif" fill="#6f6762">100</text>
  <text x="76" y="566.0" text-anchor="end" font-size="18" font-family="Helvetica, Arial, sans-serif" fill="#6f6762">0.00</text><text x="76" y="477.2" text-anchor="end" font-size="18" font-family="Helvetica, Arial, sans-serif" fill="#6f6762">0.20</text><text x="76" y="388.3" text-anchor="end" font-size="18" font-family="Helvetica, Arial, sans-serif" fill="#6f6762">0.40</text><text x="76" y="299.5" text-anchor="end" font-size="18" font-family="Helvetica, Arial, sans-serif" fill="#6f6762">0.60</text><text x="76" y="210.6" text-anchor="end" font-size="18" font-family="Helvetica, Arial, sans-serif" fill="#6f6762">0.80</text><text x="76" y="121.8" text-anchor="end" font-size="18" font-family="Helvetica, Arial, sans-serif" fill="#6f6762">1.0</text><text x="76" y="33.0" text-anchor="end" font-size="18" font-family="Helvetica, Arial, sans-serif" fill="#6f6762">1.2</text>
  <text x="455.0" y="618" text-anchor="middle" font-size="20" font-family="Helvetica, Arial, sans-serif" fill="#2e2a28">Context Size</text>
  <g transform="translate(24 315.0) rotate(-90)">
    <text text-anchor="middle" font-size="20" font-family="Helvetica, Arial, sans-serif" fill="#2e2a28">TTFT (seconds)</text>
  </g>
</svg>
