<svg xmlns="http://www.w3.org/2000/svg" width="1040" height="560" viewBox="0 0 1040 560">
  <rect width="1040" height="560" fill="#fffdfa"/>
  <line x1="90.0" y1="32" x2="90.0" y2="480" stroke="#d7d1cb" stroke-width="1"/><line x1="156.4" y1="32" x2="156.4" y2="480" stroke="#d7d1cb" stroke-width="1"/><line x1="267.0" y1="32" x2="267.0" y2="480" stroke="#d7d1cb" stroke-width="1"/><line x1="451.3" y1="32" x2="451.3" y2="480" stroke="#d7d1cb" stroke-width="1"/><line x1="635.7" y1="32" x2="635.7" y2="480" stroke="#d7d1cb" stroke-width="1"/><line x1="820.0" y1="32" x2="820.0" y2="480" stroke="#d7d1cb" stroke-width="1"/><line x1="90" y1="480.0" x2="820" y2="480.0" stroke="#d7d1cb" stroke-width="1"/><line x1="90" y1="398.8" x2="820" y2="398.8" stroke="#d7d1cb" stroke-width="1"/><line x1="90" y1="317.5" x2="820" y2="317.5" stroke="#d7d1cb" stroke-width="1"/><line x1="90" y1="236.3" x2="820" y2="236.3" stroke="#d7d1cb" stroke-width="1"/><line x1="90" y1="155.1" x2="820" y2="155.1" stroke="#d7d1cb" stroke-width="1"/><line x1="90" y1="73.9" x2="820" y2="73.9" stroke="#d7d1cb" stroke-width="1"/><line x1="90" y1="-7.4" x2="820" y2="-7.4" stroke="#d7d1cb" stroke-width="1"/>
  <line x1="90" y1="480" x2="820" y2="480" stroke="#3f3a37" stroke-width="2"/>
  <line x1="90" y1="32" x2="90" y2="480" stroke="#3f3a37" stroke-width="2"/>
  <polyline fill="none" stroke="#79d1b0" stroke-width="4" stroke-linecap="round" stroke-linejoin="round" points="90.0,470.9 97.4,378.5 104.7,374.4 112.1,370.8 119.5,378.9 126.9,387.7 134.2,375.6 141.6,383.0 149.0,384.6 156.4,384.7 163.7,308.1 171.1,386.0 178.5,393.2 185.9,381.9 193.2,392.7 200.6,385.0 208.0,389.8 215.4,385.5 222.7,392.4 230.1,382.3 237.5,297.2 244.8,382.5 252.2,392.3 259.6,383.8 267.0,389.0 274.3,382.6 281.7,390.9 289.1,382.6 296.5,383.4 303.8,383.2 311.2,388.7 318.6,292.9 326.0,379.6 333.3,375.1 340.7,378.1 348.1,373.0 355.5,382.5 362.8,379.0 370.2,381.8 377.6,382.1 384.9,382.9 392.3,381.2 399.7,380.1 407.1,381.4 414.4,381.0 421.8,290.8 429.2,378.8 436.6,381.3 443.9,378.9 451.3,380.6 458.7,381.2 466.1,292.3 473.4,378.2 480.8,384.1 488.2,373.2 495.6,384.3 502.9,377.2 510.3,386.7 517.7,295.5 525.1,380.9 532.4,376.0 539.8,296.6 547.2,377.8 554.5,380.2 561.9,377.2 569.3,375.8 576.7,371.8 584.0,374.4 591.4,377.5 598.8,383.0 606.2,376.6 613.5,384.8 620.9,376.8 628.3,378.3 635.7,377.6 643.0,375.1 650.4,374.6 657.8,378.1 665.2,377.0 672.5,373.9 679.9,372.5 687.3,373.4 694.6,376.4 702.0,377.6 709.4,375.6 716.8,377.4 724.1,292.3 731.5,374.3 738.9,373.9 746.3,384.4 753.6,377.6 761.0,294.3 768.4,377.9 775.8,382.5 783.1,376.2 790.5,378.0 797.9,377.5 805.3,377.5 812.6,372.1 820.0,373.5"/><circle cx="90.0" cy="470.9" r="4.5" fill="#79d1b0" fill-opacity="0.95"/><circle cx="97.4" cy="378.5" r="4.5" fill="#79d1b0" fill-opacity="0.95"/><circle cx="104.7" cy="374.4" r="4.5" fill="#79d1b0" fill-opacity="0.95"/><circle cx="112.1" cy="370.8" r="4.5" fill="#79d1b0" fill-opacity="0.95"/><circle cx="119.5" cy="378.9" r="4.5" fill="#79d1b0" fill-opacity="0.95"/><circle cx="126.9" cy="387.7" r="4.5" fill="#79d1b0" fill-opacity="0.95"/><circle cx="134.2" cy="375.6" r="4.5" fill="#79d1b0" fill-opacity="0.95"/><circle cx="141.6" cy="383.0" r="4.5" fill="#79d1b0" fill-opacity="0.95"/><circle cx="149.0" cy="384.6" r="4.5" fill="#79d1b0" fill-opacity="0.95"/><circle cx="156.4" cy="384.7" r="4.5" fill="#79d1b0" fill-opacity="0.95"/><circle cx="163.7" cy="308.1" r="4.5" fill="#79d1b0" fill-opacity="0.95"/><circle cx="171.1" cy="386.0" r="4.5" fill="#79d1b0" fill-opacity="0.95"/><circle cx="178.5" cy="393.2" r="4.5" fill="#79d1b0" fill-opacity="0.95"/><circle cx="185.9" cy="381.9" r="4.5" fill="#79d1b0" fill-opacity="0.95"/><circle cx="193.2" cy="392.7" r="4.5" fill="#79d1b0" fill-opacity="0.95"/><circle cx="200.6" cy="385.0" r="4.5" fill="#79d1b0" fill-opacity="0.95"/><circle cx="208.0" cy="389.8" r="4.5" fill="#79d1b0" fill-opacity="0.95"/><circle cx="215.4" cy="385.5" r="4.5" fill="#79d1b0" fill-opacity="0.95"/><circle cx="222.7" cy="392.4" r="4.5" fill="#79d1b0" fill-opacity="0.95"/><circle cx="230.1" cy="382.3" r="4.5" fill="#79d1b0" fill-opacity="0.95"/><circle cx="237.5" cy="297.2" r="4.5" fill="#79d1b0" fill-opacity="0.95"/><circle cx="244.8" cy="382.5" r="4.5" fill="#79d1b0" fill-opacity="0.95"/><circle cx="252.2" cy="392.3" r="4.5" fill="#79d1b0" fill-opacity="0.95"/><circle cx="259.6" cy="383.8" r="4.5" fill="#79d1b0" fill-opacity="0.95"/><circle cx="267.0" cy="389.0" r="4.5" fill="#79d1b0" fill-opacity="0.95"/><circle cx="274.3" cy="382.6" r="4.5" fill="#79d1b0" fill-opacity="0.95"/><circle cx="281.7" cy="390.9" r="4.5" fill="#79d1b0" fill-opacity="0.95"/><circle cx="289.1" cy="382.6" r="4.5" fill="#79d1b0" fill-opacity="0.95"/><circle cx="296.5" cy="383.4" r="4.5" fill="#79d1b0" fill-opacity="0.95"/><circle cx="303.8" cy="383.2" r="4.5" fill="#79d1b0" fill-opacity="0.95"/><circle cx="311.2" cy="388.7" r="4.5" fill="#79d1b0" fill-opacity="0.95"/><circle cx="318.6" cy="292.9" r="4.5" fill="#79d1b0" fill-opacity="0.95"/><circle cx="326.0" cy="379.6" r="4.5" fill="#79d1b0" fill-opacity="0.95"/><circle cx="333.3" cy="375.1" r="4.5" fill="#79d1b0" fill-opacity="0.95"/><circle cx="340.7" cy="378.1" r="4.5" fill="#79d1b0" fill-opacity="0.95"/><circle cx="348.1" cy="373.0" r="4.5" fill="#79d1b0" fill-opacity="0.95"/><circle cx="355.5" cy="382.5" r="4.5" fill="#79d1b0" fill-opacity="0.95"/><circle cx="362.8" cy="379.0" r="4.5" fill="#79d1b0" fill-opacity="0.95"/><circle cx="370.2" cy="381.8" r="4.5" fill="#79d1b0" fill-opacity="0.95"/><circle cx="377.6" cy="382.1" r="4.5" fill="#79d1b0" fill-opacity="0.95"/><circle cx="384.9" cy="382.9" r="4.5" fill="#79d1b0" fill-opacity="0.95"/><circle cx="392.3" cy="381.2" r="4.5" fill="#79d1b0" fill-opacity="0.95"/><circle cx="399.7" cy="380.1" r="4.5" fill="#79d1b0" fill-opacity="0.95"/><circle cx="407.1" cy="381.4" r="4.5" fill="#79d1b0" fill-opacity="0.95"/><circle cx="414.4" cy="381.0" r="4.5" fill="#79d1b0" fill-opacity="0.95"/><circle cx="421.8" cy="290.8" r="4.5" fill="#79d1b0" fill-opacity="0.95"/><circle cx="429.2" cy="378.8" r="4.5" fill="#79d1b0" fill-opacity="0.95"/><circle cx="436.6" cy="381.3" r="4.5" fill="#79d1b0" fill-opacity="0.95"/><circle cx="443.9" cy="378.9" r="4.5" fill="#79d1b0" fill-opacity="0.95"/><circle cx="451.3" cy="380.6" r="4.5" fill="#79d1b0" fill-opacity="0.95"/><circle cx="458.7" cy="381.2" r="4.5" fill="#79d1b0" fill-opacity="0.95"/><circle cx="466.1" cy="292.3" r="4.5" fill="#79d1b0" fill-opacity="0.95"/><circle cx="473.4" cy="378.2" r="4.5" fill="#79d1b0" fill-opacity="0.95"/><circle cx="480.8" cy="384.1" r="4.5" fill="#79d1b0" fill-opacity="0.95"/><circle cx="488.2" cy="373.2" r="4.5" fill="#79d1b0" fill-opacity="0.95"/><circle cx="495.6" cy="384.3" r="4.5" fill="#79d1b0" fill-opacity="0.95"/><circle cx="502.9" cy="377.2" r="4.5" fill="#79d1b0" fill-opacity="0.95"/><circle cx="510.3" cy="386.7" r="4.5" fill="#79d1b0" fill-opacity="0.95"/><circle cx="517.7" cy="295.5" r="4.5" fill="#79d1b0" fill-opacity="0.95"/><circle cx="525.1" cy="380.9" r="4.5" fill="#79d1b0" fill-opacity="0.95"/><circle cx="532.4" cy="376.0" r="4.5" fill="#79d1b0" fill-opacity="0.95"/><circle cx="539.8" cy="296.6" r="4.5" fill="#79d1b0" fill-opacity="0.95"/><circle cx="547.2" cy="377.8" r="4.5" fill="#79d1b0" fill-opacity="0.95"/><circle cx="554.5" cy="380.2" r="4.5" fill="#79d1b0" fill-opacity="0.95"/><circle cx="561.9" cy="377.2" r="4.5" fill="#79d1b0" fill-opacity="0.95"/><circle cx="569.3" cy="375.8" r="4.5" fill="#79d1b0" fill-opacity="0.95"/><circle cx="576.7" cy="371.8" r="4.5" fill="#79d1b0" fill-opacity="0.95"/><circle cx="584.0" cy="374.4" r="4.5" fill="#79d1b0" fill-opacity="0.95"/><circle cx="591.4" cy="377.5" r="4.5" fill="#79d1b0" fill-opacity="0.95"/><circle cx="598.8" cy="383.0" r="4.5" fill="#79d1b0" fill-opacity="0.95"/><circle cx="606.2" cy="376.6" r="4.5" fill="#79d1b0" fill-opacity="0.95"/><circle cx="613.5" cy="384.8" r="4.5" fill="#79d1b0" fill-opacity="0.95"/><circle cx="620.9" cy="376.8" r="4.5" fill="#79d1b0" fill-opacity="0.95"/><circle cx="628.3" cy="378.3" r="4.5" fill="#79d1b0" fill-opacity="0.95"/><circle cx="635.7" cy="377.6" r="4.5" fill="#79d1b0" fill-opacity="0.95"/><circle cx="643.0" cy="375.1" r="4.5" fill="#79d1b0" fill-opacity="0.95"/><circle cx="650.4" cy="374.6" r="4.5" fill="#79d1b0" fill-opacity="0.95"/><circle cx="657.8" cy="378.1" r="4.5" fill="#79d1b0" fill-opacity="0.95"/><circle cx="665.2" cy="377.0" r="4.5" fill="#79d1b0" fill-opacity="0.95"/><circle cx="672.5" cy="373.9" r="4.5" fill="#79d1b0" fill-opacity="0.95"/><circle cx="679.9" cy="372.5" r="4.5" fill="#79d1b0" fill-opacity="0.95"/><circle cx="687.3" cy="373.4" r="4.5" fill="#79d1b0" fill-opacity="0.95"/><circle cx="694.6" cy="376.4" r="4.5" fill="#79d1b0" fill-opacity="0.95"/><circle cx="702.0" cy="377.6" r="4.5" fill="#79d1b0" fill-opacity="0.95"/><circle cx="709.4" cy="375.6" r="4.5" fill="#79d1b0" fill-opacity="0.95"/><circle cx="716.8" cy="377.4" r="4.5" fill="#79d1b0" fill-opacity="0.95"/><circle cx="724.1" cy="292.3" r="4.5" fill="#79d1b0" fill-opacity="0.95"/><circle cx="731.5" cy="374.3" r="4.5" fill="#79d1b0" fill-opacity="0.95"/><circle cx="738.9" cy="373.9" r="4.5" fill="#79d1b0" fill-opacity="0.95"/><circle cx="746.3" cy="384.4" r="4.5" fill="#79d1b0" fill-opacity="0.95"/><circle cx="753.6" cy="377.6" r="4.5" fill="#79d1b0" fill-opacity="0.95"/><circle cx="761.0" cy="294.3" r="4.5" fill="#79d1b0" fill-opacity="0.95"/><circle cx="768.4" cy="377.9" r="4.5" fill="#79d1b0" fill-opacity="0.95"/><circle cx="775.8" cy="382.5" r="4.5" fill="#79d1b0" fill-opacity="0.95"/><circle cx="783.1" cy="376.2" r="4.5" fill="#79d1b0" fill-opacity="0.95"/><circle cx="790.5" cy="378.0" r="4.5" fill="#79d1b0" fill-opacity="0.95"/><circle cx="797.9" cy="377.5" r="4.5" fill="#79d1b0" fill-opacity="0.95"/><circle cx="805.3" cy="377.5" r="4.5" fill="#79d1b0" fill-opacity="0.95"/><circle cx="812.6" cy="372.1" r="4.5" fill="#79d1b0" fill-opacity="0.95"/><circle cx="820.0" cy="373.5" r="4.5" fill="#79d1b0" fill-opacity="0.95"/><polyline fill="none" stroke="#456eb4" stroke-width="4" stroke-linecap="round" stroke-linejoin="round" points="90.0,400.2 97.4,309.9 104.7,324.0 112.1,316.6 119.5,327.1 126.9,323.8 134.2,324.4 141.6,319.4 149.0,326.1 156.4,327.6 163.7,328.5 171.1,295.4 178.5,327.2 185.9,324.8 193.2,320.9 200.6,326.2 208.0,320.9 215.4,266.7 222.7,330.7 230.1,311.6 237.5,333.8 244.8,307.4 252.2,315.2 259.6,316.5 267.0,319.0 274.3,319.9 281.7,309.2 289.1,308.5 296.5,313.8 303.8,318.5 311.2,312.5 318.6,303.3 326.0,306.2 333.3,312.5 340.7,297.7 348.1,318.6 355.5,305.6 362.8,338.9 370.2,320.1 377.6,331.2 384.9,319.7 392.3,327.7 399.7,306.0 407.1,296.5 414.4,305.9 421.8,214.3 429.2,313.6 436.6,311.9 443.9,302.8 451.3,310.5 458.7,282.3 466.1,303.0 473.4,302.9 480.8,306.3 488.2,307.4 495.6,317.6 502.9,332.3 510.3,326.0 517.7,312.3 525.1,319.7 532.4,320.5 539.8,323.8 547.2,307.1 554.5,316.9 561.9,303.8 569.3,325.0 576.7,307.1 584.0,306.5 591.4,318.6 598.8,298.8 606.2,307.2 613.5,298.2 620.9,304.8 628.3,319.2 635.7,312.8 643.0,311.7 650.4,300.4 657.8,304.9 665.2,309.2 672.5,311.7 679.9,299.5 687.3,235.7 694.6,328.2 702.0,294.3 709.4,312.7 716.8,297.4 724.1,311.2 731.5,305.9 738.9,295.7 746.3,301.9 753.6,315.2 761.0,303.4 768.4,320.9 775.8,279.2 783.1,325.1 790.5,306.8 797.9,309.8 805.3,327.9 812.6,324.4 820.0,315.5"/><circle cx="90.0" cy="400.2" r="4.5" fill="#456eb4" fill-opacity="0.95"/><circle cx="97.4" cy="309.9" r="4.5" fill="#456eb4" fill-opacity="0.95"/><circle cx="104.7" cy="324.0" r="4.5" fill="#456eb4" fill-opacity="0.95"/><circle cx="112.1" cy="316.6" r="4.5" fill="#456eb4" fill-opacity="0.95"/><circle cx="119.5" cy="327.1" r="4.5" fill="#456eb4" fill-opacity="0.95"/><circle cx="126.9" cy="323.8" r="4.5" fill="#456eb4" fill-opacity="0.95"/><circle cx="134.2" cy="324.4" r="4.5" fill="#456eb4" fill-opacity="0.95"/><circle cx="141.6" cy="319.4" r="4.5" fill="#456eb4" fill-opacity="0.95"/><circle cx="149.0" cy="326.1" r="4.5" fill="#456eb4" fill-opacity="0.95"/><circle cx="156.4" cy="327.6" r="4.5" fill="#456eb4" fill-opacity="0.95"/><circle cx="163.7" cy="328.5" r="4.5" fill="#456eb4" fill-opacity="0.95"/><circle cx="171.1" cy="295.4" r="4.5" fill="#456eb4" fill-opacity="0.95"/><circle cx="178.5" cy="327.2" r="4.5" fill="#456eb4" fill-opacity="0.95"/><circle cx="185.9" cy="324.8" r="4.5" fill="#456eb4" fill-opacity="0.95"/><circle cx="193.2" cy="320.9" r="4.5" fill="#456eb4" fill-opacity="0.95"/><circle cx="200.6" cy="326.2" r="4.5" fill="#456eb4" fill-opacity="0.95"/><circle cx="208.0" cy="320.9" r="4.5" fill="#456eb4" fill-opacity="0.95"/><circle cx="215.4" cy="266.7" r="4.5" fill="#456eb4" fill-opacity="0.95"/><circle cx="222.7" cy="330.7" r="4.5" fill="#456eb4" fill-opacity="0.95"/><circle cx="230.1" cy="311.6" r="4.5" fill="#456eb4" fill-opacity="0.95"/><circle cx="237.5" cy="333.8" r="4.5" fill="#456eb4" fill-opacity="0.95"/><circle cx="244.8" cy="307.4" r="4.5" fill="#456eb4" fill-opacity="0.95"/><circle cx="252.2" cy="315.2" r="4.5" fill="#456eb4" fill-opacity="0.95"/><circle cx="259.6" cy="316.5" r="4.5" fill="#456eb4" fill-opacity="0.95"/><circle cx="267.0" cy="319.0" r="4.5" fill="#456eb4" fill-opacity="0.95"/><circle cx="274.3" cy="319.9" r="4.5" fill="#456eb4" fill-opacity="0.95"/><circle cx="281.7" cy="309.2" r="4.5" fill="#456eb4" fill-opacity="0.95"/><circle cx="289.1" cy="308.5" r="4.5" fill="#456eb4" fill-opacity="0.95"/><circle cx="296.5" cy="313.8" r="4.5" fill="#456eb4" fill-opacity="0.95"/><circle cx="303.8" cy="318.5" r="4.5" fill="#456eb4" fill-opacity="0.95"/><circle cx="311.2" cy="312.5" r="4.5" fill="#456eb4" fill-opacity="0.95"/><circle cx="318.6" cy="303.3" r="4.5" fill="#456eb4" fill-opacity="0.95"/><circle cx="326.0" cy="306.2" r="4.5" fill="#456eb4" fill-opacity="0.95"/><circle cx="333.3" cy="312.5" r="4.5" fill="#456eb4" fill-opacity="0.95"/><circle cx="340.7" cy="297.7" r="4.5" fill="#456eb4" fill-opacity="0.95"/><circle cx="348.1" cy="318.6" r="4.5" fill="#456eb4" fill-opacity="0.95"/><circle cx="355.5" cy="305.6" r="4.5" fill="#456eb4" fill-opacity="0.95"/><circle cx="362.8" cy="338.9" r="4.5" fill="#456eb4" fill-opacity="0.95"/><circle cx="370.2" cy="320.1" r="4.5" fill="#456eb4" fill-opacity="0.95"/><circle cx="377.6" cy="331.2" r="4.5" fill="#456eb4" fill-opacity="0.95"/><circle cx="384.9" cy="319.7" r="4.5" fill="#456eb4" fill-opacity="0.95"/><circle cx="392.3" cy="327.7" r="4.5" fill="#456eb4" fill-opacity="0.95"/><circle cx="399.7" cy="306.0" r="4.5" fill="#456eb4" fill-opacity="0.95"/><circle cx="407.1" cy="296.5" r="4.5" fill="#456eb4" fill-opacity="0.95"/><circle cx="414.4" cy="305.9" r="4.5" fill="#456eb4" fill-opacity="0.95"/><circle cx="421.8" cy="214.3" r="4.5" fill="#456eb4" fill-opacity="0.95"/><circle cx="429.2" cy="313.6" r="4.5" fill="#456eb4" fill-opacity="0.95"/><circle cx="436.6" cy="311.9" r="4.5" fill="#456eb4" fill-opacity="0.95"/><circle cx="443.9" cy="302.8" r="4.5" fill="#456eb4" fill-opacity="0.95"/><circle cx="451.3" cy="310.5" r="4.5" fill="#456eb4" fill-opacity="0.95"/><circle cx="458.7" cy="282.3" r="4.5" fill="#456eb4" fill-opacity="0.95"/><circle cx="466.1" cy="303.0" r="4.5" fill="#456eb4" fill-opacity="0.95"/><circle cx="473.4" cy="302.9" r="4.5" fill="#456eb4" fill-opacity="0.95"/><circle cx="480.8" cy="306.3" r="4.5" fill="#456eb4" fill-opacity="0.95"/><circle cx="488.2" cy="307.4" r="4.5" fill="#456eb4" fill-opacity="0.95"/><circle cx="495.6" cy="317.6" r="4.5" fill="#456eb4" fill-opacity="0.95"/><circle cx="502.9" cy="332.3" r="4.5" fill="#456eb4" fill-opacity="0.95"/><circle cx="510.3" cy="326.0" r="4.5" fill="#456eb4" fill-opacity="0.95"/><circle cx="517.7" cy="312.3" r="4.5" fill="#456eb4" fill-opacity="0.95"/><circle cx="525.1" cy="319.7" r="4.5" fill="#456eb4" fill-opacity="0.95"/><circle cx="532.4" cy="320.5" r="4.5" fill="#456eb4" fill-opacity="0.95"/><circle cx="539.8" cy="323.8" r="4.5" fill="#456eb4" fill-opacity="0.95"/><circle cx="547.2" cy="307.1" r="4.5" fill="#456eb4" fill-opacity="0.95"/><circle cx="554.5" cy="316.9" r="4.5" fill="#456eb4" fill-opacity="0.95"/><circle cx="561.9" cy="303.8" r="4.5" fill="#456eb4" fill-opacity="0.95"/><circle cx="569.3" cy="325.0" r="4.5" fill="#456eb4" fill-opacity="0.95"/><circle cx="576.7" cy="307.1" r="4.5" fill="#456eb4" fill-opacity="0.95"/><circle cx="584.0" cy="306.5" r="4.5" fill="#456eb4" fill-opacity="0.95"/><circle cx="591.4" cy="318.6" r="4.5" fill="#456eb4" fill-opacity="0.95"/><circle cx="598.8" cy="298.8" r="4.5" fill="#456eb4" fill-opacity="0.95"/><circle cx="606.2" cy="307.2" r="4.5" fill="#456eb4" fill-opacity="0.95"/><circle cx="613.5" cy="298.2" r="4.5" fill="#456eb4" fill-opacity="0.95"/><circle cx="620.9" cy="304.8" r="4.5" fill="#456eb4" fill-opacity="0.95"/><circle cx="628.3" cy="319.2" r="4.5" fill="#456eb4" fill-opacity="0.95"/><circle cx="635.7" cy="312.8" r="4.5" fill="#456eb4" fill-opacity="0.95"/><circle cx="643.0" cy="311.7" r="4.5" fill="#456eb4" fill-opacity="0.95"/><circle cx="650.4" cy="300.4" r="4.5" fill="#456eb4" fill-opacity="0.95"/><circle cx="657.8" cy="304.9" r="4.5" fill="#456eb4" fill-opacity="0.95"/><circle cx="665.2" cy="309.2" r="4.5" fill="#456eb4" fill-opacity="0.95"/><circle cx="672.5" cy="311.7" r="4.5" fill="#456eb4" fill-opacity="0.95"/><circle cx="679.9" cy="299.5" r="4.5" fill="#456eb4" fill-opacity="0.95"/><circle cx="687.3" cy="235.7" r="4.5" fill="#456eb4" fill-opacity="0.95"/><circle cx="694.6" cy="328.2" r="4.5" fill="#456eb4" fill-opacity="0.95"/><circle cx="702.0" cy="294.3" r="4.5" fill="#456eb4" fill-opacity="0.95"/><circle cx="709.4" cy="312.7" r="4.5" fill="#456eb4" fill-opacity="0.95"/><circle cx="716.8" cy="297.4" r="4.5" fill="#456eb4" fill-opacity="0.95"/><circle cx="724.1" cy="311.2" r="4.5" fill="#456eb4" fill-opacity="0.95"/><circle cx="731.5" cy="305.9" r="4.5" fill="#456eb4" fill-opacity="0.95"/><circle cx="738.9" cy="295.7" r="4.5" fill="#456eb4" fill-opacity="0.95"/><circle cx="746.3" cy="301.9" r="4.5" fill="#456eb4" fill-opacity="0.95"/><circle cx="753.6" cy="315.2" r="4.5" fill="#456eb4" fill-opacity="0.95"/><circle cx="761.0" cy="303.4" r="4.5" fill="#456eb4" fill-opacity="0.95"/><circle cx="768.4" cy="320.9" r="4.5" fill="#456eb4" fill-opacity="0.95"/><circle cx="775.8" cy="279.2" r="4.5" fill="#456eb4" fill-opacity="0.95"/><circle cx="783.1" cy="325.1" r="4.5" fill="#456eb4" fill-opacity="0.95"/><circle cx="790.5" cy="306.8" r="4.5" fill="#456eb4" fill-opacity="0.95"/><circle cx="797.9" cy="309.8" r="4.5" fill="#456eb4" fill-opacity="0.95"/><circle cx="805.3" cy="327.9" r="4.5" fill="#456eb4" fill-opacity="0.95"/><circle cx="812.6" cy="324.4" r="4.5" fill="#456eb4" fill-opacity="0.95"/><circle cx="820.0" cy="315.5" r="4.5" fill="#456eb4" fill-opacity="0.95"/><polyline fill="none" stroke="#22192e" stroke-width="4" stroke-linecap="round" stroke-linejoin="round" points="90.0,378.2 97.4,102.5 104.7,227.1 112.1,139.0 119.5,206.3 126.9,177.1 134.2,201.2 141.6,218.4 149.0,195.4 156.4,201.4 163.7,188.1 171.1,248.9 178.5,191.1 185.9,205.1 193.2,213.1 200.6,210.5 208.0,220.8 215.4,215.4 222.7,174.5 230.1,204.0 237.5,244.9 244.8,245.8 252.2,259.4 259.6,193.4 267.0,174.1 274.3,184.1 281.7,206.2 289.1,82.5 296.5,140.1 303.8,159.2 311.2,143.4 318.6,192.2 326.0,199.1 333.3,240.2 340.7,194.1 348.1,192.6 355.5,188.4 362.8,208.3 370.2,187.0 377.6,128.7 384.9,136.3 392.3,219.5 399.7,194.2 407.1,175.7 414.4,200.8 421.8,238.1 429.2,175.9 436.6,153.0 443.9,190.5 451.3,150.3 458.7,212.3 466.1,244.8 473.4,201.3 480.8,224.2 488.2,141.2 495.6,233.3 502.9,198.0 510.3,257.5 517.7,191.2 525.1,220.9 532.4,210.5 539.8,139.5 547.2,170.0 554.5,126.0 561.9,145.9 569.3,175.7 576.7,227.8 584.0,230.8 591.4,65.2 598.8,175.8 606.2,156.4 613.5,185.4 620.9,136.5 628.3,158.3 635.7,141.1 643.0,182.7 650.4,145.0 657.8,238.2 665.2,212.2 672.5,162.2 679.9,172.6 687.3,112.5 694.6,257.6 702.0,225.9 709.4,215.9 716.8,218.0 724.1,135.7 731.5,199.2 738.9,172.2 746.3,182.0 753.6,219.0 761.0,196.4 768.4,185.5 775.8,219.9 783.1,165.7 790.5,224.3 797.9,227.9 805.3,200.3 812.6,178.2 820.0,186.6"/><circle cx="90.0" cy="378.2" r="4.5" fill="#22192e" fill-opacity="0.95"/><circle cx="97.4" cy="102.5" r="4.5" fill="#22192e" fill-opacity="0.95"/><circle cx="104.7" cy="227.1" r="4.5" fill="#22192e" fill-opacity="0.95"/><circle cx="112.1" cy="139.0" r="4.5" fill="#22192e" fill-opacity="0.95"/><circle cx="119.5" cy="206.3" r="4.5" fill="#22192e" fill-opacity="0.95"/><circle cx="126.9" cy="177.1" r="4.5" fill="#22192e" fill-opacity="0.95"/><circle cx="134.2" cy="201.2" r="4.5" fill="#22192e" fill-opacity="0.95"/><circle cx="141.6" cy="218.4" r="4.5" fill="#22192e" fill-opacity="0.95"/><circle cx="149.0" cy="195.4" r="4.5" fill="#22192e" fill-opacity="0.95"/><circle cx="156.4" cy="201.4" r="4.5" fill="#22192e" fill-opacity="0.95"/><circle cx="163.7" cy="188.1" r="4.5" fill="#22192e" fill-opacity="0.95"/><circle cx="171.1" cy="248.9" r="4.5" fill="#22192e" fill-opacity="0.95"/><circle cx="178.5" cy="191.1" r="4.5" fill="#22192e" fill-opacity="0.95"/><circle cx="185.9" cy="205.1" r="4.5" fill="#22192e" fill-opacity="0.95"/><circle cx="193.2" cy="213.1" r="4.5" fill="#22192e" fill-opacity="0.95"/><circle cx="200.6" cy="210.5" r="4.5" fill="#22192e" fill-opacity="0.95"/><circle cx="208.0" cy="220.8" r="4.5" fill="#22192e" fill-opacity="0.95"/><circle cx="215.4" cy="215.4" r="4.5" fill="#22192e" fill-opacity="0.95"/><circle cx="222.7" cy="174.5" r="4.5" fill="#22192e" fill-opacity="0.95"/><circle cx="230.1" cy="204.0" r="4.5" fill="#22192e" fill-opacity="0.95"/><circle cx="237.5" cy="244.9" r="4.5" fill="#22192e" fill-opacity="0.95"/><circle cx="244.8" cy="245.8" r="4.5" fill="#22192e" fill-opacity="0.95"/><circle cx="252.2" cy="259.4" r="4.5" fill="#22192e" fill-opacity="0.95"/><circle cx="259.6" cy="193.4" r="4.5" fill="#22192e" fill-opacity="0.95"/><circle cx="267.0" cy="174.1" r="4.5" fill="#22192e" fill-opacity="0.95"/><circle cx="274.3" cy="184.1" r="4.5" fill="#22192e" fill-opacity="0.95"/><circle cx="281.7" cy="206.2" r="4.5" fill="#22192e" fill-opacity="0.95"/><circle cx="289.1" cy="82.5" r="4.5" fill="#22192e" fill-opacity="0.95"/><circle cx="296.5" cy="140.1" r="4.5" fill="#22192e" fill-opacity="0.95"/><circle cx="303.8" cy="159.2" r="4.5" fill="#22192e" fill-opacity="0.95"/><circle cx="311.2" cy="143.4" r="4.5" fill="#22192e" fill-opacity="0.95"/><circle cx="318.6" cy="192.2" r="4.5" fill="#22192e" fill-opacity="0.95"/><circle cx="326.0" cy="199.1" r="4.5" fill="#22192e" fill-opacity="0.95"/><circle cx="333.3" cy="240.2" r="4.5" fill="#22192e" fill-opacity="0.95"/><circle cx="340.7" cy="194.1" r="4.5" fill="#22192e" fill-opacity="0.95"/><circle cx="348.1" cy="192.6" r="4.5" fill="#22192e" fill-opacity="0.95"/><circle cx="355.5" cy="188.4" r="4.5" fill="#22192e" fill-opacity="0.95"/><circle cx="362.8" cy="208.3" r="4.5" fill="#22192e" fill-opacity="0.95"/><circle cx="370.2" cy="187.0" r="4.5" fill="#22192e" fill-opacity="0.95"/><circle cx="377.6" cy="128.7" r="4.5" fill="#22192e" fill-opacity="0.95"/><circle cx="384.9" cy="136.3" r="4.5" fill="#22192e" fill-opacity="0.95"/><circle cx="392.3" cy="219.5" r="4.5" fill="#22192e" fill-opacity="0.95"/><circle cx="399.7" cy="194.2" r="4.5" fill="#22192e" fill-opacity="0.95"/><circle cx="407.1" cy="175.7" r="4.5" fill="#22192e" fill-opacity="0.95"/><circle cx="414.4" cy="200.8" r="4.5" fill="#22192e" fill-opacity="0.95"/><circle cx="421.8" cy="238.1" r="4.5" fill="#22192e" fill-opacity="0.95"/><circle cx="429.2" cy="175.9" r="4.5" fill="#22192e" fill-opacity="0.95"/><circle cx="436.6" cy="153.0" r="4.5" fill="#22192e" fill-opacity="0.95"/><circle cx="443.9" cy="190.5" r="4.5" fill="#22192e" fill-opacity="0.95"/><circle cx="451.3" cy="150.3" r="4.5" fill="#22192e" fill-opacity="0.95"/><circle cx="458.7" cy="212.3" r="4.5" fill="#22192e" fill-opacity="0.95"/><circle cx="466.1" cy="244.8" r="4.5" fill="#22192e" fill-opacity="0.95"/><circle cx="473.4" cy="201.3" r="4.5" fill="#22192e" fill-opacity="0.95"/><circle cx="480.8" cy="224.2" r="4.5" fill="#22192e" fill-opacity="0.95"/><circle cx="488.2" cy="141.2" r="4.5" fill="#22192e" fill-opacity="0.95"/><circle cx="495.6" cy="233.3" r="4.5" fill="#22192e" fill-opacity="0.95"/><circle cx="502.9" cy="198.0" r="4.5" fill="#22192e" fill-opacity="0.95"/><circle cx="510.3" cy="257.5" r="4.5" fill="#22192e" fill-opacity="0.95"/><circle cx="517.7" cy="191.2" r="4.5" fill="#22192e" fill-opacity="0.95"/><circle cx="525.1" cy="220.9" r="4.5" fill="#22192e" fill-opacity="0.95"/><circle cx="532.4" cy="210.5" r="4.5" fill="#22192e" fill-opacity="0.95"/><circle cx="539.8" cy="139.5" r="4.5" fill="#22192e" fill-opacity="0.95"/><circle cx="547.2" cy="170.0" r="4.5" fill="#22192e" fill-opacity="0.95"/><circle cx="554.5" cy="126.0" r="4.5" fill="#22192e" fill-opacity="0.95"/><circle cx="561.9" cy="145.9" r="4.5" fill="#22192e" fill-opacity="0.95"/><circle cx="569.3" cy="175.7" r="4.5" fill="#22192e" fill-opacity="0.95"/><circle cx="576.7" cy="227.8" r="4.5" fill="#22192e" fill-opacity="0.95"/><circle cx="584.0" cy="230.8" r="4.5" fill="#22192e" fill-opacity="0.95"/><circle cx="591.4" cy="65.2" r="4.5" fill="#22192e" fill-opacity="0.95"/><circle cx="598.8" cy="175.8" r="4.5" fill="#22192e" fill-opacity="0.95"/><circle cx="606.2" cy="156.4" r="4.5" fill="#22192e" fill-opacity="0.95"/><circle cx="613.5" cy="185.4" r="4.5" fill="#22192e" fill-opacity="0.95"/><circle cx="620.9" cy="136.5" r="4.5" fill="#22192e" fill-opacity="0.95"/><circle cx="628.3" cy="158.3" r="4.5" fill="#22192e" fill-opacity="0.95"/><circle cx="635.7" cy="141.1" r="4.5" fill="#22192e" fill-opacity="0.95"/><circle cx="643.0" cy="182.7" r="4.5" fill="#22192e" fill-opacity="0.95"/><circle cx="650.4" cy="145.0" r="4.5" fill="#22192e" fill-opacity="0.95"/><circle cx="657.8" cy="238.2" r="4.5" fill="#22192e" fill-opacity="0.95"/><circle cx="665.2" cy="212.2" r="4.5" fill="#22192e" fill-opacity="0.95"/><circle cx="672.5" cy="162.2" r="4.5" fill="#22192e" fill-opacity="0.95"/><circle cx="679.9" cy="172.6" r="4.5" fill="#22192e" fill-opacity="0.95"/><circle cx="687.3" cy="112.5" r="4.5" fill="#22192e" fill-opacity="0.95"/><circle cx="694.6" cy="257.6" r="4.5" fill="#22192e" fill-opacity="0.95"/><circle cx="702.0" cy="225.9" r="4.5" fill="#22192e" fill-opacity="0.95"/><circle cx="709.4" cy="215.9" r="4.5" fill="#22192e" fill-opacity="0.95"/><circle cx="716.8" cy="218.0" r="4.5" fill="#22192e" fill-opacity="0.95"/><circle cx="724.1" cy="135.7" r="4.5" fill="#22192e" fill-opacity="0.95"/><circle cx="731.5" cy="199.2" r="4.5" fill="#22192e" fill-opacity="0.95"/><circle cx="738.9" cy="172.2" r="4.5" fill="#22192e" fill-opacity="0.95"/><circle cx="746.3" cy="182.0" r="4.5" fill="#22192e" fill-opacity="0.95"/><circle cx="753.6" cy="219.0" r="4.5" fill="#22192e" fill-opacity="0.95"/><circle cx="761.0" cy="196.4" r="4.5" fill="#22192e" fill-opacity="0.95"/><circle cx="768.4" cy="185.5" r="4.5" fill="#22192e" fill-opacity="0.95"/><circle cx="775.8" cy="219.9" r="4.5" fill="#22192e" fill-opacity="0.95"/><circle cx="783.1" cy="165.7" r="4.5" fill="#22192e" fill-opacity="0.95"/><circle cx="790.5" cy="224.3" r="4.5" fill="#22192e" fill-opacity="0.95"/><circle cx="797.9" cy="227.9" r="4.5" fill="#22192e" fill-opacity="0.95"/><circle cx="805.3" cy="200.3" r="4.5" fill="#22192e" fill-opacity="0.95"/><circle cx="812.6" cy="178.2" r="4.5" fill="#22192e" fill-opacity="0.95"/><circle cx="820.0" cy="186.6" r="4.5" fill="#22192e" fill-opacity="0.95"/>
  <rect x="830" y="38" width="180" height="122" rx="14" fill="#fffdfa" stroke="#d7d1cb" stroke-width="1.2"/><line x1="846" y1="62" x2="880" y2="62" stroke="#79d1b0" stroke-width="4" stroke-linecap="round"/><circle cx="863" cy="62" r="4.5" fill="#79d1b0"/><text x="894" y="69" font-size="21" font-family="Helvetica, Arial, sans-serif" fill="#2e2a28">local</text><line x1="846" y1="96" x2="880" y2="96" stroke="#456eb4" stroke-width="4" stroke-linecap="round"/><circle cx="863" cy="96" r="4.5" fill="#456eb4"/><text x="894" y="103" font-size="21" font-family="Helvetica, Arial, sans-serif" fill="#2e2a28">us-ca-2</text><line x1="846" y1="130" x2="880" y2="130" stroke="#22192e" stroke-width="4" stroke-linecap="round"/><circle cx="863" cy="130" r="4.5" fill="#22192e"/><text x="894" y="137" font-size="21" font-family="Helvetica, Arial, sans-serif" fill="#2e2a28">us-mo-1</text>
  <text x="90.0" y="512" text-anchor="middle" font-size="18" font-family="Helvetica, Arial, sans-serif" fill="#6f6762">1</text><text x="156.4" y="512" text-anchor="middle" font-size="18" font-family="Helvetica, Arial, sans-serif" fill="#6f6762">10</text><text x="267.0" y="512" text-anchor="middle" font-size="18" font-family="Helvetica, Arial, sans-serif" fill="#6f6762">25</text><text x="451.3" y="512" text-anchor="middle" font-size="18" font-family="Helvetica, Arial, sans-serif" fill="#6f6762">50</text><text x="635.7" y="512" text-anchor="middle" font-size="18" font-family="Helvetica, Arial, sans-serif" fill="#6f6762">75</text><text x="820.0" y="512" text-anchor="middle" font-size="18" font-family="Helvetica, Arial, sans-serif" fill="#6f6762">100</text>
  <text x="76" y="486.0" text-anchor="end" font-size="18" font-family="Helvetica, Arial, sans-serif" fill="#6f6762">0.00</text><text x="76" y="404.8" text-anchor="end" font-size="18" font-family="Helvetica, Arial, sans-serif" fill="#6f6762">0.20</text><text x="76" y="323.5" text-anchor="end" font-size="18" font-family="Helvetica, Arial, sans-serif" fill="#6f6762">0.40</text><text x="76" y="242.3" text-anchor="end" font-size="18" font-family="Helvetica, Arial, sans-serif" fill="#6f6762">0.60</text><text x="76" y="161.1" text-anchor="end" font-size="18" font-family="Helvetica, Arial, sans-serif" fill="#6f6762">0.80</text><text x="76" y="79.9" text-anchor="end" font-size="18" font-family="Helvetica, Arial, sans-serif" fill="#6f6762">1.0</text><text x="76" y="-1.4" text-anchor="end" font-size="18" font-family="Helvetica, Arial, sans-serif" fill="#6f6762">1.2</text>
  <text x="455.0" y="538" text-anchor="middle" font-size="20" font-family="Helvetica, Arial, sans-serif" fill="#2e2a28">Context Size</text>
  <g transform="translate(24 256.0) rotate(-90)">
    <text text-anchor="middle" font-size="20" font-family="Helvetica, Arial, sans-serif" fill="#2e2a28">TTFT (seconds)</text>
  </g>
</svg>
